{
.appVersion = "3133";
.formatVersion = 3;
axes = (
{
name = Weight;
tag = wght;
},
{
name = Width;
tag = wdth;
}
);
customParameters = (
{
name = fsType;
value = (
);
},
{
name = "Use Typo Metrics";
value = 1;
},
{
name = "Axis Mappings";
value = {
wdth = {
75 = 75;
100 = 100;
};
wght = {
400 = 400;
500 = 470;
600 = 550;
700 = 650;
800 = 766;
900 = 900;
};
};
},
{
name = "Variable Font Origin";
value = "EAF0EFDD-E653-4C10-B7B2-F7A391578EE2";
}
);
date = "2016-04-15 23:15:50 +0000";
familyName = Besley;
featurePrefixes = (
{
automatic = 1;
code = "languagesystem DFLT dflt;

languagesystem latn dflt;
languagesystem latn CAT;
";
name = Languagesystems;
}
);
features = (
{
automatic = 1;
code = "feature locl;
feature frac;
feature ordn;
feature c2sc;
feature smcp;
";
tag = aalt;
},
{
automatic = 1;
code = "lookup locl_latn_0 {
	script latn;
	language CAT;
	sub  l' periodcentered' l by ldot;
	sub  L' periodcentered' L by Ldot;
} locl_latn_0;
";
tag = locl;
},
{
automatic = 1;
code = "sub one slash four by onequarter;
sub one slash two by onehalf;
sub three slash four by threequarters;
";
tag = frac;
},
{
automatic = 1;
code = "sub [zero one two three four five six seven eight nine] [A a]' by ordfeminine;
sub [zero one two three four five six seven eight nine] [O o]' by ordmasculine;
";
tag = ordn;
},
{
automatic = 1;
code = "sub A by a.sc;
sub Aacute by aacute.sc;
sub Abreve by abreve.sc;
sub Acircumflex by acircumflex.sc;
sub Adieresis by adieresis.sc;
sub Agrave by agrave.sc;
sub Amacron by amacron.sc;
sub Aogonek by aogonek.sc;
sub Aring by aring.sc;
sub Atilde by atilde.sc;
sub B by b.sc;
sub C by c.sc;
sub Cacute by cacute.sc;
sub Ccaron by ccaron.sc;
sub Ccedilla by ccedilla.sc;
sub Ccircumflex by ccircumflex.sc;
sub Cdotaccent by cdotaccent.sc;
sub D by d.sc;
sub Dcaron by dcaron.sc;
sub E by e.sc;
sub Eacute by eacute.sc;
sub Ebreve by ebreve.sc;
sub Ecaron by ecaron.sc;
sub Ecircumflex by ecircumflex.sc;
sub Edieresis by edieresis.sc;

glyphs = (
{
glyphname = A;
kernLeft = kc0_5;
kernRight = kc0_6;
layers = (
{
anchors = (
{
name = "Anchor-0";
pos = (864,1500);
},
{
name = "Anchor-1";
pos = (796,0);
},
{
name = "Anchor-2";
pos = (796,0);
},
{
name = "Anchor-3";
pos = (1396,0);
}
);
layerId = "EAF0EFDD-E653-4C10-B7B2-F7A391578EE2";
shapes = (
{
closed = 1;
nodes = (
(524,578,ls),
(514,554,o),
(516,550,o),
(552,550,cs),
(1058,550,ls),
(1119,550,o),
(1112,553,o),
(1096,596,cs),
(848,1246,ls),
(833,1286,o),
(831,1286,o),
(816,1252,cs)
);
},
{
closed = 1;
nodes = (
(0,84,ls),
(0,104,o),
(6,110,o),
(28,110,cs),
(154,110,ls),
(196,110,o),
(203,122,o),
(215,150,cs),
(808,1500,ls),
(812,1509,o),
(816,1510,o),
(829,1510,cs),
(909,1510,ls),
(925,1510,o),
(931,1509,o),
(935,1498,cs),
(1478,154,ls),
(1491,122,o),
(1488,110,o),
(1534,110,cs),
(1692,110,ls),
(1719,110,o),
(1720,106,o),
(1720,79,cs),
(1720,35,ls),
(1720,4,o),
(1719,0,o),
(1688,0,cs),
(1098,0,ls),
(1072,0,o),
(1060,3,o),
(1060,32,cs),
(1060,78,ls),
(1060,106,o),
(1070,110,o),
(1096,110,cs),
(1248,110,ls),
(1280,110,o),
(1272,127,o),
(1265,146,cs),
(1175,386,ls),
(1158,431,o),
(1160,440,o),
(1096,440,cs),
(516,440,ls),
(470,440,o),
(462,431,o),
(449,400,cs),
(346,158,ls),
(332,126,o),
(333,110,o),
(377,110,cs),
(528,110,ls),
(552,110,o),
(560,105,o),
(560,80,cs),
(560,32,ls),
(560,0,o),
(560,0,o),
(528,0,cs),
(50,0,ls),
(13,0,o),
(0,2,o),
(0,42,cs)
);
}
);
vertWidth = 0;
width = 1720;
},
{
anchors = (
{
name = "Anchor-0";
pos = (964,1500);
},
{
name = "Anchor-1";
pos = (796,0);
},
{
name = "Anchor-2";
pos = (796,0);
},
{
name = "Anchor-3";
pos = (1486,0);
}
);
layerId = "8097EFC1-F009-4E0B-8F96-722A50586A5E";
shapes = (
{
closed = 1;
nodes = (
(712,735,ls),
(699,705,o),
(685,670,o),
(739,670,cs),
(950,670,ls),
(996,670,o),
(988,703,o),
(978,731,cs),
(874,1023,ls),
(858,1069,o),
(842,1050,o),
(829,1019,cs)
);
},
{
closed = 1;
nodes = (
(0,221,ls),
(0,255,o),
(8,270,o),
(46,270,cs),
(211,270,ls),
(244,270,o),
(242,285,o),
(251,307,cs),
(758,1477,ls),
(771,1509,o),
(775,1510,o),
(821,1510,cs),
(1121,1510,ls),
(1168,1510,o),
(1174,1499,o),
(1187,1467,cs),
(1648,331,ls),
(1663,293,o),
(1658,270,o),
(1715,270,cs),
(1847,270,ls),
(1882,270,o),
(1900,270,o),
(1900,231,cs),
(1900,45,ls),
(1900,5,o),
(1894,0,o),
(1855,0,cs),
(961,0,ls),
(921,0,o),
(920,9,o),
(920,49,cs),
(920,227,ls),
(920,265,o),
(926,270,o),
(963,270,cs),
(1077,270,ls),
(1135,270,o),
(1140,280,o),
(1126,319,cs),
(1102,387,ls),
(1092,414,o),
(1094,420,o),
(1055,420,cs),
(633,420,ls),
(594,420,o),
(583,424,o),
(571,395,cs),
(538,313,ls),
(525,281,o),
(527,270,o),
(563,270,cs),
(667,270,ls),
(699,270,o),
(700,261,o),
(700,229,cs),
(700,37,ls),
(700,4,o),
(690,0,o),
(659,0,cs),
(66,0,ls),
(10,0,o),
(0,1,o),
(0,57,cs)
);
}
);
vertWidth = 0;
width = 1900;
},
{
anchors = (
{
name = "Anchor-0";
pos = (593,1500);
},
{
name = "Anchor-1";
pos = (536,0);
},
{
name = "Anchor-2";
pos = (536,0);
},
{
name = "Anchor-3";
pos = (996,0);
}
);
layerId = "871B1205-2168-46B7-8FAD-FF3EA4ADCFD7";
shapes = (
{
closed = 1;
nodes = (
(360,578,ls),
(354,554,o),
(352,550,o),
(388,550,cs),
(714,550,ls),
(755,550,o),
(763,552,o),
(752,596,cs),
(578,1316,ls),
(568,1357,o),
(555,1357,o),
(546,1322,cs)
);
},
{
closed = 1;
nodes = (
(0,84,ls),
(0,104,o),
(6,110,o),
(28,110,cs),
(54,110,ls),
(96,110,o),
(107,121,o),
(115,150,cs),
(478,1500,ls),
(482,1509,o),
(486,1510,o),
(499,1510,cs),
(679,1510,ls),
(695,1510,o),
(701,1509,o),
(705,1498,cs),
(1068,154,ls),
(1077,121,o),
(1078,110,o),
(1124,110,cs),
(1182,110,ls),
(1209,110,o),
(1210,106,o),
(1210,79,cs),
(1210,35,ls),
(1210,4,o),
(1209,0,o),
(1178,0,cs),
(798,0,ls),
(772,0,o),
(760,3,o),
(760,32,cs),
(760,78,ls),
(760,106,o),
(770,110,o),
(796,110,cs),
(858,110,ls),
(880,110,o),
(880,127,o),
(875,146,cs),
(811,386,ls),
(799,431,o),
(796,440,o),
(732,440,cs),
(377,440,ls),
(331,440,o),
(318,432,o),
(310,400,cs),
(246,158,ls),
(237,125,o),
(243,110,o),
(277,110,cs),
(328,110,ls),
(352,110,o),
(360,105,o),
(360,80,cs),
(360,32,ls),
(360,0,o),
(360,0,o),
(328,0,cs),
(50,0,ls),
(13,0,o),
(0,2,o),
(0,42,cs)
);
}
);
vertWidth = 0;
width = 1210;
},
{
anchors = (
{
name = "Anchor-0";
pos = (704,1500);
},
{
name = "Anchor-1";
pos = (536,0);
},
{
name = "Anchor-2";
pos = (536,0);
},
{
name = "Anchor-3";
pos = (1076,0);
}
);
layerId = "E1447247-EC0C-4B84-932A-C76B64125023";
shapes = (
{
closed = 1;
nodes = (
(518,735,ls),
(511.945,703.658,o),
(491,670,o),
(545,670,cs),
(626,670,ls),
(672,670,o),
(658.242,702.153,o),
(654,731,cs),
(614,1003,ls),
(607.04,1050.329,o),
(575.205,1031.119,o),
(569,999,cs)
);
},
{
closed = 1;
nodes = (
(0,221,ls),
(0,255,o),
(8,270,o),
(46,270,cs),
(111,270,ls),
(144,270,o),
(142,285,o),
(151,307,cs),
(428,1477,ls),
(441,1509,o),
(445,1510,o),
(491,1510,cs),
(891,1510,ls),
(938,1510,o),
(944,1499,o),
(957,1467,cs),
(1238,331,ls),
(1253,293,o),
(1248,270,o),
(1305,270,cs),
(1337,270,ls),
(1372,270,o),
(1390,270,o),
(1390,231,cs),
(1390,45,ls),
(1390,5,o),
(1384,0,o),
(1345,0,cs),
(651,0,ls),
(611,0,o),
(610,9,o),
(610,49,cs),
(610,227,ls),
(610,265,o),
(616,270,o),
(653,270,cs),
(667,270,ls),
(715,270,o),
(720.717,278.908,o),
(716,319,cs),
(708,387,ls),
(704.73,414.792,o),
(700,420,o),
(661,420,cs),
(514,420,ls),
(475,420,o),
(457.15,425.169,o),
(452,395,cs),
(438,313,ls),
(432.323,279.75,o),
(437,270,o),
(463,270,cs),
(467,270,ls),
(499,270,o),
(500,261,o),
(500,229,cs),
(500,37,ls),
(500,4,o),
(490,0,o),
(459,0,cs),
(66,0,ls),
(10,0,o),
(0,1,o),
(0,57,cs)
);
}
);
vertWidth = 0;
width = 1390;
}
);
unicode = 65;
},
{
glyphname = AE;
kernLeft = kc0_5;
layers = (
{
layerId = "EAF0EFDD-E653-4C10-B7B2-F7A391578EE2";
shapes = (
{
closed = 1;
nodes = (
(0,84,ls),
(0,104,o),
(6,110,o),
(28,110,cs),
(144,110,ls),
(186,110,o),
(196,120,o),
(215,150,cs),
(1082,1349,ls),
(1112,1391,o),
(1095,1390,o),
(1024,1390,cs),
(896,1390,ls),
(871,1390,o),
(870,1394,o),
(870,1420,cs),
(870,1472,ls),
(870,1495,o),
(877,1500,o),
(898,1500,cs),
(1524,1500,ls),
(1547,1500,o),
(1550,1496,o),
(1550,1472,cs),
(1550,1423,ls),
(1550,1399,o),
(1548,1390,o),
(1522,1390,cs),
(1278,1390,ls),
(1224,1390,o),
(1241,1381,o),
(1219,1351,cs),
(654,578,ls),
(641,557,o),
(646,550,o),
(682,550,cs),
(1374,550,l),
(1354,440,l),
(596,440,ls),
(560,440,o),
(547,428,o),
(529,400,cs),
(346,158,ls),
(325,124,o),
(333,110,o),
(377,110,cs),
(528,110,ls),
(552,110,o),
(560,105,o),
(560,80,cs),
(560,32,ls),
(560,0,o),
(560,0,o),
(528,0,cs),
(50,0,ls),
(13,0,o),
(0,2,o),
(0,42,cs)
);
},
{
pos = (990,0);
ref = E;
}
);
vertWidth = 0;
width = 2505;
},
{
layerId = "8097EFC1-F009-4E0B-8F96-722A50586A5E";
shapes = (
{
closed = 1;
nodes = (
(0,254,ls),
(0,274,o),
(6,280,o),
(28,280,cs),
(144,280,ls),
(186,280,o),
(191,296,o),
(215,320,cs),
(1032,1189,ls),
(1062,1231,o),
(1045,1230,o),
(974,1230,cs),
(846,1230,ls),
(821,1230,o),
(820,1234,o),
(820,1260,cs),
(820,1472,ls),
(820,1495,o),
(827,1500,o),
(848,1500,cs),
(1684,1500,ls),
(1707,1500,o),
(1710,1496,o),
(1710,1472,cs),
(1710,1263,ls),
(1710,1239,o),
(1708,1230,o),
(1682,1230,cs),
(1438,1230,ls),
(1374,1230,o),
(1371,1231,o),
(1349,1201,cs),
(844,678,ls),
(831,657,o),
(836,650,o),
(872,650,cs),
(1534,650,l),
(1514,440,l),
(676,440,ls),
(640,440,o),
(623,421,o),
(599,400,cs),
(526,328,ls),
(498,301,o),
(503,280,o),
(547,280,cs),
(678,280,ls),
(702,280,o),
(710,275,o),
(710,250,cs),
(710,32,ls),
(710,0,o),
(710,0,o),
(678,0,cs),
(50,0,ls),
(13,0,o),
(0,2,o),
(0,42,cs)
);
},
{
pos = (1150,0);
ref = E;
}
);
vertWidth = 0;
width = 2825;
},
{
layerId = "871B1205-2168-46B7-8FAD-FF3EA4ADCFD7";
shapes = (
{
closed = 1;
nodes = (
(0,84,ls),
(0,104,o),
(6,110,o),
(28,110,cs),
(44,110,ls),
(86,110,o),
(96,120,o),
(115,150,cs),
(682,1349,ls),
(712,1391,o),
(695,1390,o),
(624,1390,cs),
(606,1390,ls),
(581,1390,o),
(580,1394,o),
(580,1420,cs),
(580,1472,ls),
(580,1495,o),
(587,1500,o),
(608,1500,cs),
(1124,1500,ls),
(1147,1500,o),
(1150,1496,o),
(1150,1472,cs),
(1150,1423,ls),
(1150,1399,o),
(1148,1390,o),
(1122,1390,cs),
(858,1390,ls),
(804,1390,o),
(821,1381,o),
(799,1351,cs),
(444,578,ls),
(431,557,o),
(436,550,o),
(472,550,cs),
(874,550,l),
(854,440,l),
(431,440,ls),
(395,440,o),
(382,428,o),
(364,400,cs),
(256,158,ls),
(235,124,o),
(243,110,o),
(287,110,cs),
(328,110,ls),
(352,110,o),
(360,105,o),
(360,80,cs),
(360,32,ls),
(360,0,o),
(360,0,o),
(328,0,cs),
(50,0,ls),
(13,0,o),
(0,2,o),
(0,42,cs)
);
},
{
pos = (590,0);
ref = E;
}
);
vertWidth = 0;
width = 1603;
},
{
layerId = "E1447247-EC0C-4B84-932A-C76B64125023";
shapes = (
{
closed = 1;
nodes = (
(0,254,ls),
(0,274,o),
(6,280,o),
(28,280,cs),
(44,280,ls),
(86,280,o),
(91,296,o),
(115,320,cs),
(632,1189,ls),
(662,1231,o),
(645,1230,o),
(574,1230,cs),
(546,1230,ls),
(521,1230,o),
(520,1234,o),
(520,1260,cs),
(520,1472,ls),
(520,1495,o),
(527,1500,o),
(548,1500,cs),
(1284,1500,ls),
(1307,1500,o),
(1310,1496,o),
(1310,1472,cs),
(1310,1263,ls),
(1310,1239,o),
(1308,1230,o),
(1282,1230,cs),
(1038,1230,ls),
(974,1230,o),
(971,1231,o),
(949,1201,cs),
(624,678,ls),
(611,657,o),
(616,650,o),
(652,650,cs),
(1134,650,l),
(1114,440,l),
(546,440,ls),
(510,440,o),
(484.554,426.044,o),
(469,400,cs),
(426,328,ls),
(406.753,295.772,o),
(403,280,o),
(447,280,cs),
(478,280,ls),
(502,280,o),
(510,275,o),
(510,250,cs),
(510,32,ls),
(510,0,o),
(510,0,o),
(478,0,cs),
(50,0,ls),
(13,0,o),
(0,2,o),
(0,42,cs)
);
},
{
pos = (749.999,0);
ref = E;
}
);
vertWidth = 0;
width = 1920;
}
);
unicode = 198;
},
{
glyphname = B;
kernLeft = kc0_1;
kernRight = kc0_29;
layers = (
{
anchors = (
{
name = "Anchor-0";
pos = (674,1500);
},
{
name = "Anchor-1";
pos = (706,0);
},
{
name = "Anchor-2";
pos = (706,0);
}
);
layerId = "EAF0EFDD-E653-4C10-B7B2-F7A391578EE2";
shapes = (
{
closed = 1;
nodes = (
(1047,110,o),
(1195,222,o),
(1195,420,cs),
(1195,618,o),
(1047,720,o),
(875,720,cs),
(534,720,ls),
(491,720,o),
(485,711,o),
(485,666,cs),
(485,148,ls),
(485,115,o),
(496,110,o),
(531,110,cs),
(875,110,ls)
);
},
{
closed = 1;
nodes = (
(855,830,ls),
(1007,830,o),
(1155,912,o),
(1155,1110,cs),
(1155,1308,o),
(1007,1390,o),
(855,1390,cs),
(520,1390,ls),
(488,1390,o),
(485,1378,o),
(485,1345,cs),
(485,870,ls),
(485,831,o),
(494,830,o),
(534,830,cs)
);
},
{
closed = 1;
nodes = (
(116,0,ls),
(85,0,o),
(75,1,o),
(75,32,cs),
(75,76,ls),
(75,106,o),
(84,110,o),
(112,110,cs),
(255,110,ls),
(283,110,o),
(295,113,o),
(295,140,cs),
(295,1352,ls),
(295,1388,o),
(287,1390,o),
(250,1390,cs),
(116,1390,ls),
(82,1390,o),
(75,1393,o),
(75,1426,cs),
(75,1468,ls),
(75,1495,o),
(83,1500,o),
(108,1500,cs),
(855,1500,ls),
(1157,1500,o),
(1355,1370,o),
(1355,1110,cs),
(1355,937,o),
(1277,835,o),
(1128,793,cs),
(1099,785,o),
(1102,772,o),
(1126,766,cs),
(1309,718,o),
(1415,610,o),
(1415,420,cs),
(1415,120,o),
(1217,0,o),
(895,0,cs)
);
}
);
vertWidth = 0;
width = 1495;
},
{
anchors = (
{
name = "Anchor-0";
pos = (794,1500);
},
{
name = "Anchor-1";
pos = (826,0);
},
{
name = "Anchor-2";
pos = (826,0);
}
);
layerId = "8097EFC1-F009-4E0B-8F96-722A50586A5E";
shapes = (
{
closed = 1;
nodes = (
(1102,270,o),
(1150,352,o),
(1150,470,cs),
(1150,588,o),
(1062,640,o),
(930,640,cs),
(781,640,ls),
(755,640,o),
(740,624,o),
(740,596,cs),
(740,326,ls),
(740,285,o),
(746,270,o),
(785,270,cs),
(930,270,ls)
);
},
{
closed = 1;
nodes = (
(890,910,ls),
(1012,910,o),
(1090,962,o),
(1090,1080,cs),
(1090,1198,o),
(1032,1230,o),
(890,1230,cs),
(791,1230,ls),
(760,1230,o),
(740,1229,o),
(740,1198,cs),
(740,969,ls),
(740,919,o),
(748,910,o),
(797,910,cs)
);
},
{
closed = 1;
nodes = (
(97,0,ls),
(51,0,o),
(50,19,o),
(50,66,cs),
(50,240,ls),
(50,266,o),
(61,270,o),
(85,270,cs),
(223,270,ls),
(267,270,o),
(270,287,o),
(270,332,cs),
(270,1178,ls),
(270,1214,o),
(264,1230,o),
(229,1230,cs),
(93,1230,ls),
(56,1230,o),
(50,1236,o),
(50,1272,cs),
(50,1448,ls),
(50,1488,o),
(59,1500,o),
(97,1500,cs),
(910,1500,ls),
(1372,1500,o),
(1570,1410,o),
(1570,1130,cs),
(1570,965,o),
(1474,859,o),
(1295,805,cs),
(1257,794,o),
(1255,769,o),
(1301,760,cs),
(1523,714,o),
(1650,603,o),
(1650,420,cs),
(1650,100,o),
(1452,0,o),
(970,0,cs)
);
}
);
vertWidth = 0;
width = 1700;
},
{
anchors = (
{
name = "Anchor-0";
pos = (467,1500);
},
{
name = "Anchor-1";
pos = (479,0);
},
{
name = "Anchor-2";
pos = (479,0);
}
);
layerId = "871B1205-2168-46B7-8FAD-FF3EA4ADCFD7";
shapes = (
{
closed = 1;
nodes = (
(690,110,o),
(768,212,o),
(768,410,cs),
(768,608,o),
(710,720,o),
(528,720,cs),
(387,720,ls),
(344,720,o),
(338,711,o),
(338,666,cs),
(338,148,ls),
(338,115,o),
(349,110,o),
(384,110,cs),
(528,110,ls)
);
},
{
closed = 1;
nodes = (
(508,830,ls),
(690,830,o),
(738,912,o),
(738,1110,cs),
(738,1308,o),
(670,1390,o),
(488,1390,cs),
(373,1390,ls),
(341,1390,o),
(338,1378,o),
(338,1345,cs),
(338,870,ls),
(338,831,o),
(342,830,o),
(357,830,cs)
);
},
{
closed = 1;
nodes = (
(79,0,ls),
(48,0,o),
(38,1,o),
(38,32,cs),
(38,76,ls),
(38,106,o),
(47,110,o),
(75,110,cs),
(118,110,ls),
(146,110,o),
(158,113,o),
(158,140,cs),
(158,1352,ls),
(158,1388,o),
(150,1390,o),
(113,1390,cs),
(79,1390,ls),
(45,1390,o),
(38,1393,o),
(38,1426,cs),
(38,1468,ls),
(38,1495,o),
(46,1500,o),
(71,1500,cs),
(508,1500,ls),
(760,1500,o),
(938,1390,o),
(938,1130,cs),
(938,917,o),
(840,835,o),
(741,793,cs),
(713,781,o),
(715,773,o),
(739,766,cs),
(872,728,o),
(978,630,o),
(978,390,cs),
(978,90,o),
(770,0,o),
(578,0,cs)
);
}
);
vertWidth = 0;
width = 1018;
},
{
anchors = (
{
name = "Anchor-0";
pos = (654,1500);
},
{
name = "Anchor-1";
pos = (686,0);
},
{
name = "Anchor-2";
pos = (686,0);
}
);
layerId = "E1447247-EC0C-4B84-932A-C76B64125023";
shapes = (
{
closed = 1;
nodes = (
(692,270,o),
(720,352,o),
(720,470,cs),
(720,588,o),
(672,640,o),
(630,640,cs),
(601,640,ls),
(575,640,o),
(560,624,o),
(560,596,cs),
(560,326,ls),
(560,285,o),
(566,270,o),
(605,270,cs),
(630,270,ls)
);
},
{
closed = 1;
nodes = (
(600,910,ls),
(652,910,o),
(670,962,o),
(670,1080,cs),
(670,1198,o),
(642,1230,o),
(600,1230,cs),
(591,1230,ls),
(560,1230,o),
(560,1229,o),
(560,1198,cs),
(560,969,ls),
(560,919,o),
(563,910,o),
(587,910,cs)
);
},
{
closed = 1;
nodes = (
(57,0,ls),
(11,0,o),
(10,19,o),
(10,66,cs),
(10,240,ls),
(10,266,o),
(21,270,o),
(45,270,cs),
(83,270,ls),
(127,270,o),
(130,287,o),
(130,332,cs),
(130,1178,ls),
(130,1214,o),
(124,1230,o),
(89,1230,cs),
(53,1230,ls),
(16,1230,o),
(10,1236,o),
(10,1272,cs),
(10,1448,ls),
(10,1488,o),
(19,1500,o),
(57,1500,cs),
(690,1500,ls),
(1002,1500,o),
(1150,1380,o),
(1150,1150,cs),
(1150,945,o),
(1034,859,o),
(905,805,cs),
(868.508,789.725,o),
(865.719,772.11,o),
(911,760,cs),
(1083,714,o),
(1210,623,o),
(1210,390,cs),
(1210,120,o),
(1062,0,o),
(730,0,cs)
);
}
);
vertWidth = 0;
width = 1210;
}
);
unicode = 66;
},
{
glyphname = C;
kernLeft = kc0_3;
kernRight = kc0_2;
layers = (
{
anchors = (
{
name = "Anchor-0";
pos = (866,1500);
},
{
name = "Anchor-1";
pos = (867,0);
},
{
name = "Anchor-2";
pos = (867,0);
}
);
layerId = "EAF0EFDD-E653-4C10-B7B2-F7A391578EE2";
shapes = (
{
closed = 1;
nodes = (
(110,1196,o),
(464,1520,o),
(870,1520,cs),
(1063,1520,o),
(1213,1439,o),
(1314,1333,cs),
(1334,1312,o),
(1342,1312,o),
(1353,1349,cs),
(1395,1492,ls),
(1399,1506,o),
(1397,1510,o),
(1416,1510,cs),
(1470,1510,ls),
(1487,1510,o),
(1490,1507,o),
(1490,1491,cs),
(1490,1016,ls),
(1490,994,o),
(1484,990,o),
(1461,990,cs),
(1400,990,ls),
(1374,990,o),
(1380,998,o),
(1376,1019,cs),
(1342,1213,o),
(1154,1404,o),
(880,1404,cs),
(532,1404,o),
(340,1114,o),
(340,750,cs),
(340,386,o),
(512,98,o),
(860,98,cs),
(1181,98,o),
(1371,335,o),
(1398,574,cs),
(1399,586,o),
(1404,590,o),
(1418,590,cs),
(1488,590,ls),
(1502,590,o),
(1510,589,o),
(1509,576,cs),
(1484,236,o),
(1241,-20,o),
(840,-20,cs),
(414,-20,o),
(110,304,o),
(110,750,cs)
);
}
);
vertWidth = 0;
width = 1620;
},
{
anchors = (
{
name = "Anchor-0";
pos = (916,1500);
},
{
name = "Anchor-1";
pos = (917,0);
},
{
name = "Anchor-2";
pos = (917,0);
}
);
layerId = "8097EFC1-F009-4E0B-8F96-722A50586A5E";
shapes = (
{
closed = 1;
nodes = (
(70,1196,o),
(424,1540,o),
(910,1540,cs),
(1050,1540,o),
(1161,1497,o),
(1246,1431,cs),
(1287,1400,o),
(1295,1401,o),
(1329,1444,cs),
(1362,1488,ls),
(1377,1507,o),
(1383,1510,o),
(1420,1510,cs),
(1560,1510,ls),
(1609,1510,o),
(1610,1501,o),
(1610,1452,cs),
(1610,974,ls),
(1610,936,o),
(1605,930,o),
(1565,930,cs),
(1352,930,ls),
(1304,930,o),
(1298,941,o),
(1289,977,cs),
(1244,1157,o),
(1150,1284,o),
(940,1284,cs),
(732,1284,o),
(590,1094,o),
(590,750,cs),
(590,406,o),
(732,228,o),
(960,228,cs),
(1146,228,o),
(1290,338,o),
(1330,522,cs),
(1342,577,o),
(1349,590,o),
(1398,590,cs),
(1594,590,ls),
(1647,590,o),
(1651,579,o),
(1646,542,cs),
(1604,202,o),
(1365,-40,o),
(920,-40,cs),
(414,-40,o),
(70,264,o),
(70,750,cs)
);
}
);
vertWidth = 0;
width = 1702;
},
{
anchors = (
{
name = "Anchor-0";
pos = (571,1500);
},
{
name = "Anchor-1";
pos = (592,0);
},
{
name = "Anchor-2";
pos = (592,0);
}
);
layerId = "871B1205-2168-46B7-8FAD-FF3EA4ADCFD7";
shapes = (
{
closed = 1;
nodes = (
(55,1196,o),
(239,1520,o),
(545,1520,cs),
(738,1520,o),
(823,1426,o),
(879,1333,cs),
(887,1319,o),
(893,1330,o),
(898,1349,cs),
(940,1492,ls),
(944,1506,o),
(942,1510,o),
(961,1510,cs),
(1015,1510,ls),
(1032,1510,o),
(1035,1507,o),
(1035,1491,cs),
(1035,1016,ls),
(1035,994,o),
(1029,990,o),
(1006,990,cs),
(945,990,ls),
(919,990,o),
(925,998,o),
(921,1019,cs),
(887,1213,o),
(789,1404,o),
(615,1404,cs),
(347,1404,o),
(255,1114,o),
(255,750,cs),
(255,386,o),
(327,98,o),
(595,98,cs),
(816,98,o),
(916,335,o),
(943,574,cs),
(944,586,o),
(949,590,o),
(963,590,cs),
(1033,590,ls),
(1047,590,o),
(1055,589,o),
(1054,576,cs),
(1029,236,o),
(886,-20,o),
(585,-20,cs),
(179,-20,o),
(55,304,o),
(55,750,cs)
);
}
);
vertWidth = 0;
width = 1109;
},
{
anchors = (
{
name = "Anchor-0";
pos = (676.398,1500);
},
{
name = "Anchor-1";
pos = (677.398,0);
},
{
name = "Anchor-2";
pos = (677.398,0);
}
);
layerId = "E1447247-EC0C-4B84-932A-C76B64125023";
shapes = (
{
closed = 1;
nodes = (
(30.398,1196,o),
(184.398,1540,o),
(580.398,1540,cs),
(720.398,1540,o),
(791.398,1487,o),
(826.398,1431,cs),
(853.641,1387.412,o),
(855.398,1401,o),
(889.398,1444,cs),
(922.398,1488,ls),
(937.398,1507,o),
(943.398,1510,o),
(980.398,1510,cs),
(1120.398,1510,ls),
(1169.398,1510,o),
(1170.398,1501,o),
(1170.398,1452,cs),
(1170.398,974,ls),
(1170.398,936,o),
(1165.398,930,o),
(1125.398,930,cs),
(912.398,930,ls),
(864.398,930,o),
(858.398,941,o),
(849.398,977,cs),
(804.398,1157,o),
(810.398,1284,o),
(700.398,1284,cs),
(592.398,1284,o),
(550.398,1094,o),
(550.398,750,cs),
(550.398,406,o),
(592.398,228,o),
(720.398,228,cs),
(806.398,228,o),
(850.398,338,o),
(890.398,522,cs),
(902.398,577,o),
(909.398,590,o),
(958.398,590,cs),
(1154.398,590,ls),
(1207.398,590,o),
(1211.398,579,o),
(1206.398,542,cs),
(1164.398,202,o),
(1025.398,-40,o),
(680.398,-40,cs),
(194.398,-40,o),
(30.398,264,o),
(30.398,750,cs)
);
}
);
vertWidth = 0;
width = 1208;
}
);
unicode = 67;
},
{
glyphname = D;
kernLeft = kc0_1;
kernRight = kc0_3;
layers = (
{
anchors = (
{
name = "Anchor-0";
pos = (684,1500);
},
{
name = "Anchor-1";
pos = (683,0);
},
{
name = "Anchor-2";
pos = (683,0);
}
);
layerId = "EAF0EFDD-E653-4C10-B7B2-F7A391578EE2";
shapes = (
{
closed = 1;
nodes = (
(75,72,ls),
(75,104,o),
(79,110,o),
(110,110,cs),
(264,110,ls),
(294,110,o),
(295,119,o),
(295,150,cs),
(295,1346,ls),
(295,1380,o),
(294,1390,o),
(260,1390,cs),
(132,1390,ls),
(90,1390,o),
(75,1391,o),
(75,1426,cs),
(75,1471,ls),
(75,1496,o),
(99,1500,o),
(130,1500,cs),
(815,1500,ls),
(1261,1500,o),
(1535,1176,o),
(1535,750,cs),
(1535,324,o),
(1241,0,o),
(815,0,cs),
(110,0,ls),
(80,0,o),
(75,6,o),
(75,34,cs)
);
},
{
closed = 1;
nodes = (
(815,110,ls),
(1183,110,o),
(1305,386,o),
(1305,750,cs),
(1305,1114,o),
(1163,1390,o),
(815,1390,cs),
(528,1390,ls),
(491,1390,o),
(485,1385,o),
(485,1346,cs),
(485,144,ls),
(485,112,o),
(493,110,o),
(526,110,cs)
);
}
);
vertWidth = 0;
width = 1645;
},
{
anchors = (
{
name = "Anchor-0";
pos = (934,1500);
},
{
name = "Anchor-1";
pos = (933,0);
},
{
name = "Anchor-2";
pos = (933,0);
}
);
layerId = "8097EFC1-F009-4E0B-8F96-722A50586A5E";
shapes = (
{
closed = 1;
nodes = (
(50,230,ls),
(50,263,o),
(58,270,o),
(89,270,cs),
(233,270,ls),
(269,270,o),
(270,279,o),
(270,316,cs),
(270,1179,ls),
(270,1222,o),
(264,1230,o),
(223,1230,cs),
(99,1230,ls),
(55,1230,o),
(50,1236,o),
(50,1278,cs),
(50,1447,ls),
(50,1492,o),
(60,1500,o),
(103,1500,cs),
(910,1500,ls),
(1576,1500,o),
(1770,1176,o),
(1770,750,cs),
(1770,324,o),
(1556,0,o),
(910,0,cs),
(98,0,ls),
(65,0,o),
(50,1,o),
(50,34,cs)
);
},
{
closed = 1;
nodes = (
(890,270,ls),
(1118,270,o),
(1250,426,o),
(1250,750,cs),
(1250,1074,o),
(1098,1230,o),
(890,1230,cs),
(799,1230,ls),
(752,1230,o),
(740,1222,o),
(740,1174,cs),
(740,316,ls),
(740,272,o),
(753,270,o),
(798,270,cs)
);
}
);
vertWidth = 0;
width = 1840;
},
{
anchors = (
{
name = "Anchor-0";
pos = (548,1500);
},
{
name = "Anchor-1";
pos = (547,0);
},
{
name = "Anchor-2";
pos = (547,0);
}
);
layerId = "871B1205-2168-46B7-8FAD-FF3EA4ADCFD7";
shapes = (
{
closed = 1;
nodes = (
(39,72,ls),
(39,104,o),
(43,110,o),
(74,110,cs),
(128,110,ls),
(158,110,o),
(159,119,o),
(159,150,cs),
(159,1346,ls),
(159,1380,o),
(158,1390,o),
(124,1390,cs),
(96,1390,ls),
(54,1390,o),
(39,1391,o),
(39,1426,cs),
(39,1471,ls),
(39,1496,o),
(63,1500,o),
(94,1500,cs),
(579,1500,ls),
(905,1500,o),
(1069,1176,o),
(1069,750,cs),
(1069,324,o),
(885,0,o),
(579,0,cs),
(74,0,ls),
(44,0,o),
(39,6,o),
(39,34,cs)
);
},
{
closed = 1;
nodes = (
(499,110,ls),
(767,110,o),
(869,296,o),
(869,750,cs),
(869,1214,o),
(747,1390,o),
(499,1390,cs),
(372,1390,ls),
(355,1390,o),
(339,1385,o),
(339,1346,cs),
(339,144,ls),
(339,112,o),
(337,110,o),
(370,110,cs)
);
}
);
vertWidth = 0;
width = 1124;
},
{
anchors = (
{
name = "Anchor-0";
pos = (694,1500);
},
{
name = "Anchor-1";
pos = (693,0);
},
{
name = "Anchor-2";
pos = (693,0);
}
);
layerId = "E1447247-EC0C-4B84-932A-C76B64125023";
shapes = (
{
closed = 1;
nodes = (
(10,230,ls),
(10,263,o),
(18,270,o),
(49,270,cs),
(93,270,ls),
(129,270,o),
(130,279,o),
(130,316,cs),
(130,1179,ls),
(130,1222,o),
(124,1230,o),
(83,1230,cs),
(59,1230,ls),
(15,1230,o),
(10,1236,o),
(10,1278,cs),
(10,1447,ls),
(10,1492,o),
(20,1500,o),
(63,1500,cs),
(670,1500,ls),
(1216,1500,o),
(1300,1176,o),
(1300,750,cs),
(1300,324,o),
(1196,0,o),
(670,0,cs),
(58,0,ls),
(25,0,o),
(10,1,o),
(10,34,cs)
);
},
{
closed = 1;
nodes = (
(650,270,ls),
(778,270,o),
(810,426,o),
(810,750,cs),
(810,1074,o),
(758,1230,o),
(650,1230,cs),
(639,1230,ls),
(612,1230,o),
(600,1222,o),
(600,1174,cs),
(600,316,ls),
(600,272,o),
(603,270,o),
(648,270,cs)
);
}
);
vertWidth = 0;
width = 1320;
}
);
unicode = 68;
},
{
glyphname = Eth;
kernLeft = kc0_1;
kernRight = kc0_3;
layers = (
{
layerId = "EAF0EFDD-E653-4C10-B7B2-F7A391578EE2";
shapes = (
{
closed = 1;
nodes = (
(872,840,ls),
(900,840,o),
(903,836,o),
(903,812,cs),
(903,763,ls),
(903,739,o),
(901,730,o),
(869,730,cs),
(108,730,ls),
(78,730,o),
(76,734,o),
(76,760,cs),
(76,812,ls),
(76,835,o),
(84,840,o),
(110,840,cs)
);
},
{
ref = D;
}
);
vertWidth = 0;
width = 1645;
},
{
layerId = "8097EFC1-F009-4E0B-8F96-722A50586A5E";
shapes = (
{
closed = 1;
nodes = (
(862,900,ls),
(900,900,o),
(903,893,o),
(903,861,cs),
(903,711,ls),
(903,676,o),
(903,670,o),
(860,670,cs),
(127,670,ls),
(83,670,o),
(76,675,o),
(76,710,cs),
(76,859,ls),
(76,891,o),
(78,900,o),
(117,900,cs)
);
},
{
ref = D;
}
);
vertWidth = 0;
width = 1840;
},
{
layerId = "871B1205-2168-46B7-8FAD-FF3EA4ADCFD7";
shapes = (
{
closed = 1;
nodes = (
(536,840,ls),
(564,840,o),
(567,836,o),
(567,812,cs),
(567,763,ls),
(567,739,o),
(565,730,o),
(533,730,cs),
(72,730,ls),
(42,730,o),
(40,734,o),
(40,760,cs),
(40,812,ls),
(40,835,o),
(48,840,o),
(74,840,cs)
);
},
{
ref = D;
}
);
vertWidth = 0;
width = 1124;
},
{
layerId = "E1447247-EC0C-4B84-932A-C76B64125023";
shapes = (
{
closed = 1;
nodes = (
(682,900,ls),
(720,900,o),
(723,893,o),
(723,861,cs),
(723,711,ls),
(723,676,o),
(723,670,o),
(680,670,cs),
(67,670,ls),
(23,670,o),
(16,675,o),
(16,710,cs),
(16,859,ls),
(16,891,o),
(18,900,o),
(57,900,cs)
);
},
{
ref = D;
}
);
vertWidth = 0;
width = 1320;
}
);
unicode = 208;
},
{
glyphname = Dcroat;
kernRight = kc0_3;
layers = (
{
layerId = "EAF0EFDD-E653-4C10-B7B2-F7A391578EE2";
shapes = (
{
closed = 1;
nodes = (
(872,840,ls),
(900,840,o),
(903,836,o),
(903,812,cs),
(903,763,ls),
(903,739,o),
(901,730,o),
(869,730,cs),
(108,730,ls),
(78,730,o),
(76,734,o),
(76,760,cs),
(76,812,ls),
(76,835,o),
(84,840,o),
(110,840,cs)
);
},
{
ref = D;
}
);
vertWidth = 0;
width = 1645;
},
{
layerId = "8097EFC1-F009-4E0B-8F96-722A50586A5E";
shapes = (
{
closed = 1;
nodes = (
(862,900,ls),
(900,900,o),
(903,893,o),
(903,861,cs),
(903,711,ls),
(903,676,o),
(903,670,o),
(860,670,cs),
(127,670,ls),
(83,670,o),
(76,675,o),
(76,710,cs),
(76,859,ls),
(76,891,o),
(78,900,o),
(117,900,cs)
);
},
{
ref = D;
}
);
vertWidth = 0;
width = 1840;
},
{
layerId = "871B1205-2168-46B7-8FAD-FF3EA4ADCFD7";
shapes = (
{
closed = 1;
nodes = (
(536,840,ls),
(564,840,o),
(567,836,o),
(567,812,cs),
(567,763,ls),
(567,739,o),
(565,730,o),
(533,730,cs),
(72,730,ls),
(42,730,o),
(40,734,o),
(40,760,cs),
(40,812,ls),
(40,835,o),
(48,840,o),
(74,840,cs)
);
},
{
ref = D;
}
);
vertWidth = 0;
width = 1124;
},
{
layerId = "E1447247-EC0C-4B84-932A-C76B64125023";
shapes = (
{
closed = 1;
nodes = (
(672,900,ls),
(710,900,o),
(713,893,o),
(713,861,cs),
(713,711,ls),
(713,676,o),
(713,670,o),
(670,670,cs),
(61,670,ls),
(17,670,o),
(10,675,o),
(10,710,cs),
(10,859,ls),
(10,891,o),
(12,900,o),
(51,900,cs)
);
},
{
ref = D;
}
);
vertWidth = 0;
width = 1320;
}
);
unicode = 272;
},
{
glyphname = E;
kernLeft = kc0_1;
kernRight = kc0_2;
layers = (
{
anchors = (
{
name = "Anchor-0";
pos = (794,1500);
},
{
name = "Anchor-1";
pos = (766,0);
},
{
name = "Anchor-2";
pos = (766,0);
},
{
name = "Anchor-3";
pos = (1206,0);
}
);
layerId = "EAF0EFDD-E653-4C10-B7B2-F7A391578EE2";
shapes = (
{
closed = 1;
nodes = (
(111,1390,ls),
(78,1390,o),
(75,1401,o),
(75,1432,cs),
(75,1462,ls),
(75,1493,o),
(79,1500,o),
(109,1500,cs),
(1311,1500,ls),
(1357,1500,o),
(1365,1498,o),
(1365,1452,cs),
(1365,1070,ls),
(1365,1038,o),
(1371,1030,o),
(1337,1030,cs),
(1297,1030,ls),
(1268,1030,o),
(1266,1042,o),
(1265,1068,cs),
(1259,1312,o),
(1188,1390,o),
(965,1390,cs),
(529,1390,ls),
(493,1390,o),
(485,1384,o),
(485,1346,cs),
(485,860,ls),
(485,831,o),
(487,816,o),
(519,816,cs),
(655,816,ls),
(815,816,o),
(884,897,o),
(894,1014,cs),
(896,1041,o),
(901,1046,o),
(921,1046,cs),
(954,1046,ls),
(976,1046,o),
(985,1039,o),
(985,1016,cs),
(985,536,ls),
(985,504,o),
(982,496,o),
(953,496,cs),
(920,496,ls),
(908,496,o),
(896,499,o),
(893,530,cs),
(882,647,o),
(814,736,o),
(655,736,cs),
(523,736,ls),
(488,736,o),
(485,728,o),
(485,692,cs),
(485,154,ls),
(485,117,o),
(490,110,o),
(529,110,cs),
(945,110,ls),
(1209,110,o),
(1280,190,o),
(1285,478,cs),
(1285,504,o),
(1291,510,o),
(1309,510,cs),
(1347,510,ls),
(1372,510,o),
(1385,507,o),
(1385,480,cs),
(1385,34,ls),
(1385,6,o),
(1380,0,o),
(1353,0,cs),
(115,0,ls),
(85,0,o),
(75,4,o),
(75,36,cs),
(75,82,ls),
(75,109,o),
(84,110,o),
(111,110,cs),
(241,110,ls),
(290,110,o),
(295,116,o),
(295,166,cs),
(295,1348,ls),
(295,1389,o),
(287,1390,o),
(246,1390,cs)
);
}
);
vertWidth = 0;
width = 1515;
},
{
anchors = (
{
name = "Anchor-0";
pos = (844,1500);
},
{
name = "Anchor-1";
pos = (816,0);
},
{
name = "Anchor-2";
pos = (816,0);
},
{
name = "Anchor-3";
pos = (1426,50);
}
);
layerId = "8097EFC1-F009-4E0B-8F96-722A50586A5E";
shapes = (
{
closed = 1;
nodes = (
(96,1230,ls),
(54,1230,o),
(50,1238,o),
(50,1278,cs),
(50,1454,ls),
(50,1499,o),
(64,1500,o),
(106,1500,cs),
(1538,1500,ls),
(1577,1500,o),
(1580,1489,o),
(1580,1452,cs),
(1580,948,ls),
(1580,910,o),
(1580,910,o),
(1542,910,cs),
(1352,910,ls),
(1322,910,o),
(1320,924,o),
(1319,950,cs),
(1313,1154,o),
(1260,1230,o),
(1040,1230,cs),
(798,1230,ls),
(759,1230,o),
(740,1226,o),
(740,1183,cs),
(740,918,ls),
(740,870,o),
(746,860,o),
(778,860,cs),
(783,860,ls),
(886,860,o),
(950,945,o),
(966,1038,cs),
(971,1069,o),
(973,1086,o),
(1001,1086,cs),
(1112,1086,ls),
(1155,1086,o),
(1160,1080,o),
(1160,1038,cs),
(1160,458,ls),
(1160,423,o),
(1155,416,o),
(1118,416,cs),
(1010,416,ls),
(969,416,o),
(971,435,o),
(965,468,cs),
(949,559,o),
(869,650,o),
(792,650,cs),
(786,650,ls),
(759,650,o),
(740,633,o),
(740,592,cs),
(740,310,ls),
(740,263,o),
(749,270,o),
(794,270,cs),
(1020,270,ls),
(1274,270,o),
(1332,361,o),
(1339,592,cs),
(1341,643,o),
(1335,650,o),
(1390,650,cs),
(1560,650,ls),
(1605,650,o),
(1600,644,o),
(1600,600,cs),
(1600,40,ls),
(1600,-2,o),
(1598,0,o),
(1556,0,cs),
(100,0,ls),
(60,0,o),
(50,-7,o),
(50,36,cs),
(50,238,ls),
(50,272,o),
(53,270,o),
(86,270,cs),
(226,270,ls),
(269,270,o),
(270,269,o),
(270,312,cs),
(270,1192,ls),
(270,1227,o),
(262,1230,o),
(226,1230,cs)
);
}
);
vertWidth = 0;
width = 1679;
},
{
anchors = (
{
name = "Anchor-0";
pos = (527,1500);
},
{
name = "Anchor-1";
pos = (559,0);
},
{
name = "Anchor-2";
pos = (559,0);
},
{
name = "Anchor-3";
pos = (869,50);
}
);
layerId = "871B1205-2168-46B7-8FAD-FF3EA4ADCFD7";
shapes = (
{
closed = 1;
nodes = (
(74,1390,ls),
(41,1390,o),
(38,1401,o),
(38,1432,cs),
(38,1462,ls),
(38,1493,o),
(42,1500,o),
(72,1500,cs),
(874,1500,ls),
(920,1500,o),
(928,1498,o),
(928,1452,cs),
(928,1070,ls),
(928,1038,o),
(934,1030,o),
(900,1030,cs),
(890,1030,ls),
(861,1030,o),
(859,1042,o),
(858,1068,cs),
(852,1312,o),
(701,1390,o),
(528,1390,cs),
(392,1390,ls),
(356,1390,o),
(348,1384,o),
(348,1346,cs),
(348,860,ls),
(348,831,o),
(350,816,o),
(362,816,cs),
(434,816,ls),
(544,816,o),
(597,897,o),
(597,1014,cs),
(596,1041,o),
(604,1046,o),
(624,1046,cs),
(657,1046,ls),
(679,1046,o),
(688,1039,o),
(688,1016,cs),
(688,536,ls),
(688,504,o),
(685,496,o),
(656,496,cs),
(623,496,ls),
(611,496,o),
(595,499,o),
(596,530,cs),
(595,647,o),
(567,736,o),
(428,736,cs),
(381,736,ls),
(356,736,o),
(348,728,o),
(348,692,cs),
(348,154,ls),
(348,117,o),
(353,110,o),
(392,110,cs),
(508,110,ls),
(722,110,o),
(873,190,o),
(878,478,cs),
(878,504,o),
(884,510,o),
(902,510,cs),
(910,510,ls),
(935,510,o),
(948,507,o),
(948,480,cs),
(948,34,ls),
(948,6,o),
(943,0,o),
(916,0,cs),
(78,0,ls),
(48,0,o),
(38,4,o),
(38,36,cs),
(38,82,ls),
(38,109,o),
(47,110,o),
(74,110,cs),
(104,110,ls),
(153,110,o),
(158,116,o),
(158,166,cs),
(158,1348,ls),
(158,1389,o),
(150,1390,o),
(109,1390,cs)
);
}
);
vertWidth = 0;
width = 1013;
},
{
anchors = (
{
name = "Anchor-0";
pos = (703.835,1500);
},
{
name = "Anchor-1";
pos = (675.835,0);
},
{
name = "Anchor-2";
pos = (675.835,0);
},
{
name = "Anchor-3";
pos = (985.835,50);
}
);
layerId = "E1447247-EC0C-4B84-932A-C76B64125023";
shapes = (
{
closed = 1;
nodes = (
(55.835,1230,ls),
(13.835,1230,o),
(9.835,1238,o),
(9.835,1278,cs),
(9.835,1454,ls),
(9.835,1499,o),
(23.835,1500,o),
(65.835,1500,cs),
(1097.835,1500,ls),
(1136.835,1500,o),
(1139.835,1489,o),
(1139.835,1452,cs),
(1139.835,948,ls),
(1139.835,910,o),
(1139.835,910,o),
(1101.835,910,cs),
(941.835,910,ls),
(911.835,910,o),
(909.835,924,o),
(908.835,950,cs),
(902.835,1154,o),
(869.835,1230,o),
(699.835,1230,cs),
(657.835,1230,ls),
(618.835,1230,o),
(599.835,1226,o),
(599.835,1183,cs),
(599.835,918,ls),
(599.835,870,o),
(605.835,860,o),
(617.835,860,cs),
(618.835,860,ls),
(641.835,860,o),
(659.835,945,o),
(665.835,1038,cs),
(667.856,1069.336,o),
(672.835,1086,o),
(700.835,1086,cs),
(811.835,1086,ls),
(854.835,1086,o),
(859.835,1080,o),
(859.835,1038,cs),
(859.835,458,ls),
(859.835,423,o),
(854.835,416,o),
(817.835,416,cs),
(709.835,416,ls),
(668.835,416,o),
(667.042,434.531,o),
(664.835,468,cs),
(658.835,559,o),
(648.835,650,o),
(621.835,650,cs),
(620.835,650,ls),
(603.835,650,o),
(599.835,633,o),
(599.835,592,cs),
(599.835,310,ls),
(599.835,263,o),
(608.835,270,o),
(653.835,270,cs),
(679.835,270,ls),
(883.835,270,o),
(921.835,361,o),
(928.835,592,cs),
(930.835,643,o),
(924.835,650,o),
(979.835,650,cs),
(1119.835,650,ls),
(1164.835,650,o),
(1159.835,644,o),
(1159.835,600,cs),
(1159.835,40,ls),
(1159.835,-2,o),
(1157.835,0,o),
(1115.835,0,cs),
(59.835,0,ls),
(19.835,0,o),
(9.835,-7,o),
(9.835,36,cs),
(9.835,238,ls),
(9.835,272,o),
(12.835,270,o),
(45.835,270,cs),
(85.835,270,ls),
(128.835,270,o),
(129.835,269,o),
(129.835,312,cs),
(129.835,1192,ls),
(129.835,1227,o),
(121.835,1230,o),
(85.835,1230,cs)
);
}
);
vertWidth = 0;
width = 1170;
}
);
unicode = 69;
},
{
glyphname = F;
kernLeft = kc0_1;
kernRight = kc0_28;
layers = (
{
anchors = (
{
name = "Anchor-0";
pos = (764,1500);
},
{
name = "Anchor-1";
pos = (396,0);
},
{
name = "Anchor-2";
pos = (396,0);
}
);
layerId = "EAF0EFDD-E653-4C10-B7B2-F7A391578EE2";
shapes = (
{
closed = 1;
nodes = (
(99,1390,ls),
(80,1390,o),
(75,1392,o),
(75,1412,cs),
(75,1481,ls),
(75,1495,o),
(76,1500,o),
(90,1500,cs),
(1321,1500,ls),
(1342,1500,o),
(1345,1493,o),
(1345,1471,cs),
(1345,1050,ls),
(1345,1031,o),
(1336,1030,o),
(1317,1030,cs),
(1265,1030,ls),
(1245,1030,o),
(1245,1035,o),
(1245,1054,cs),
(1242,1313,o),
(1174,1390,o),
(945,1390,cs),
(519,1390,ls),
(494,1390,o),
(485,1376,o),
(485,1353,cs),
(485,836,ls),
(485,802,o),
(491,796,o),
(524,796,cs),
(675,796,ls),
(830,796,o),
(900,856,o),
(913,964,cs),
(916,992,o),
(906,1006,o),
(940,1006,cs),
(974,1006,ls),
(997,1006,o),
(1005,1004,o),
(1005,982,cs),
(1005,503,ls),
(1005,485,o),
(1004,476,o),
(986,476,cs),
(934,476,ls),
(915,476,o),
(916,481,o),
(915,499,cs),
(909,623,o),
(841,696,o),
(675,696,cs),
(515,696,ls),
(487,696,o),
(485,688,o),
(485,659,cs),
(485,150,ls),
(485,118,o),
(489,110,o),
(523,110,cs),
(697,110,ls),
(716,110,o),
(725,109,o),
(725,90,cs),
(725,30,ls),
(725,4,o),
(716,0,o),
(692,0,cs),
(100,0,ls),
(80,0,o),
(75,0,o),
(75,20,cs),
(75,92,ls),
(75,109,o),
(84,110,o),
(102,110,cs),
(268,110,ls),
(290,110,o),
(295,117,o),
(295,140,cs),
(295,1360,ls),
(295,1387,o),
(292,1390,o),
(266,1390,cs)
);
}
);
vertWidth = 0;
width = 1445;
},
{
anchors = (
{
name = "Anchor-0";
pos = (824,1500);
},
{
name = "Anchor-1";
pos = (516,0);
},
{
name = "Anchor-2";
pos = (516,0);
}
);
layerId = "8097EFC1-F009-4E0B-8F96-722A50586A5E";
shapes = (
{
closed = 1;
nodes = (
(75,1230,ls),
(52,1230,o),
(50,1238,o),
(50,1262,cs),
(50,1474,ls),
(50,1499,o),
(59,1500,o),
(84,1500,cs),
(1524,1500,ls),
(1556,1500,o),
(1560,1493,o),
(1560,1460,cs),
(1560,921,ls),
(1560,893,o),
(1553,890,o),
(1524,890,cs),
(1346,890,ls),
(1310,890,o),
(1301,890,o),
(1300,925,cs),
(1295,1135,o),
(1242,1230,o),
(1020,1230,cs),
(782,1230,ls),
(750,1230,o),
(740,1229,o),
(740,1197,cs),
(740,851,ls),
(740,841,o),
(743,837,o),
(749,837,cs),
(751,837,ls),
(854,837,o),
(941,929,o),
(949,1049,cs),
(950,1064,o),
(948,1066,o),
(964,1066,cs),
(1117,1066,ls),
(1138,1066,o),
(1140,1058,o),
(1140,1036,cs),
(1140,406,ls),
(1140,382,o),
(1134,376,o),
(1108,376,cs),
(988,376,ls),
(959,376,o),
(952,377,o),
(949,403,cs),
(937,521,o),
(846,615,o),
(754,615,cs),
(753,615,ls),
(741,615,o),
(740,607,o),
(740,603,cs),
(740,317,ls),
(740,277,o),
(745,270,o),
(787,270,cs),
(963,270,ls),
(1000,270,o),
(1000,270,o),
(1000,233,cs),
(1000,47,ls),
(1000,5,o),
(994,0,o),
(953,0,cs),
(91,0,ls),
(58,0,o),
(50,3,o),
(50,35,cs),
(50,241,ls),
(50,269,o),
(59,270,o),
(88,270,cs),
(227,270,ls),
(267,270,o),
(270,277,o),
(270,318,cs),
(270,1195,ls),
(270,1225,o),
(262,1230,o),
(234,1230,cs)
);
}
);
vertWidth = 0;
width = 1625;
},
{
anchors = (
{
name = "Anchor-0";
pos = (527,1500);
},
{
name = "Anchor-1";
pos = (249,0);
},
{
name = "Anchor-2";
pos = (249,0);
}
);
layerId = "871B1205-2168-46B7-8FAD-FF3EA4ADCFD7";
shapes = (
{
closed = 1;
nodes = (
(62,1390,ls),
(43,1390,o),
(38,1392,o),
(38,1412,cs),
(38,1481,ls),
(38,1495,o),
(39,1500,o),
(53,1500,cs),
(904,1500,ls),
(925,1500,o),
(928,1493,o),
(928,1471,cs),
(928,1050,ls),
(928,1031,o),
(919,1030,o),
(900,1030,cs),
(878,1030,ls),
(858,1030,o),
(858,1035,o),
(858,1054,cs),
(855,1313,o),
(737,1390,o),
(508,1390,cs),
(382,1390,ls),
(357,1390,o),
(348,1376,o),
(348,1353,cs),
(348,836,ls),
(348,802,o),
(354,796,o),
(387,796,cs),
(478,796,ls),
(573,796,o),
(623,856,o),
(636,964,cs),
(639,992,o),
(639,1006,o),
(673,1006,cs),
(697,1006,ls),
(720,1006,o),
(728,1004,o),
(728,982,cs),
(728,503,ls),
(728,485,o),
(727,476,o),
(709,476,cs),
(657,476,ls),
(638,476,o),
(639,481,o),
(638,499,cs),
(632,623,o),
(584,696,o),
(478,696,cs),
(378,696,ls),
(350,696,o),
(348,688,o),
(348,659,cs),
(348,150,ls),
(348,118,o),
(352,110,o),
(386,110,cs),
(460,110,ls),
(479,110,o),
(488,109,o),
(488,90,cs),
(488,30,ls),
(488,4,o),
(479,0,o),
(455,0,cs),
(63,0,ls),
(43,0,o),
(38,0,o),
(38,20,cs),
(38,92,ls),
(38,109,o),
(47,110,o),
(65,110,cs),
(131,110,ls),
(153,110,o),
(158,117,o),
(158,140,cs),
(158,1360,ls),
(158,1387,o),
(155,1390,o),
(129,1390,cs)
);
}
);
vertWidth = 0;
width = 978;
},
{
anchors = (
{
name = "Anchor-0";
pos = (684,1500);
},
{
name = "Anchor-1";
pos = (376,0);
},
{
name = "Anchor-2";
pos = (376,0);
}
);
layerId = "E1447247-EC0C-4B84-932A-C76B64125023";
shapes = (
{
closed = 1;
nodes = (
(35,1230,ls),
(12,1230,o),
(10,1238,o),
(10,1262,cs),
(10,1474,ls),
(10,1499,o),
(19,1500,o),
(44,1500,cs),
(1104,1500,ls),
(1136,1500,o),
(1140,1493,o),
(1140,1460,cs),
(1140,921,ls),
(1140,893,o),
(1133,890,o),
(1104,890,cs),
(956,890,ls),
(920,890,o),
(911,890,o),
(910,925,cs),
(905,1135,o),
(902,1230,o),
(680,1230,cs),
(642,1230,ls),
(610,1230,o),
(600,1229,o),
(600,1197,cs),
(600,851,ls),
(600,841,o),
(603,837,o),
(609,837,cs),
(611,837,ls),
(654,837,o),
(661,929,o),
(669,1049,cs),
(670,1064,o),
(678,1066,o),
(694,1066,cs),
(837,1066,ls),
(858,1066,o),
(860,1058,o),
(860,1036,cs),
(860,406,ls),
(860,382,o),
(854,376,o),
(828,376,cs),
(708,376,ls),
(679,376,o),
(672,377,o),
(669,403,cs),
(657,521,o),
(646,615,o),
(614,615,cs),
(613,615,ls),
(601,615,o),
(600,607,o),
(600,603,cs),
(600,317,ls),
(600,277,o),
(605,270,o),
(647,270,cs),
(723,270,ls),
(760,270,o),
(760,270,o),
(760,233,cs),
(760,47,ls),
(760,5,o),
(754,0,o),
(713,0,cs),
(51,0,ls),
(18,0,o),
(10,3,o),
(10,35,cs),
(10,241,ls),
(10,269,o),
(19,270,o),
(48,270,cs),
(87,270,ls),
(127,270,o),
(130,277,o),
(130,318,cs),
(130,1195,ls),
(130,1225,o),
(122,1230,o),
(94,1230,cs)
);
}
);
vertWidth = 0;
width = 1150;
}
);
unicode = 70;
},
{
glyphname = G;
kernLeft = kc0_3;
kernRight = kc0_27;
layers = (
{
anchors = (
{
name = "Anchor-0";
pos = (866,1500);
},
{
name = "Anchor-1";
pos = (837,0);
},
{
name = "Anchor-2";
pos = (837,0);
}
);
layerId = "EAF0EFDD-E653-4C10-B7B2-F7A391578EE2";
shapes = (
{
closed = 1;
nodes = (
(1661,740,ls),
(1701,740,o),
(1710,737,o),
(1710,694,cs),
(1710,644,ls),
(1710,615,o),
(1704,610,o),
(1673,610,cs),
(1543,610,ls),
(1513,610,o),
(1510,603,o),
(1510,572,cs),
(1510,482,ls),
(1510,448,o),
(1510,419,o),
(1504,392,cs),
(1462,210,o),
(1256,-20,o),
(840,-20,cs),
(424,-20,o),
(110,304,o),
(110,750,cs),
(110,1196,o),
(464,1520,o),
(870,1520,cs),
(1071,1520,o),
(1216,1455,o),
(1318,1349,cs),
(1340,1326,o),
(1347,1332,o),
(1357,1364,cs),
(1389,1464,ls),
(1395,1483,o),
(1402,1500,o),
(1419,1500,cs),
(1463,1500,ls),
(1479,1500,o),
(1490,1491,o),
(1490,1474,cs),
(1490,1034,ls),
(1490,1013,o),
(1488,990,o),
(1465,990,cs),
(1417,990,ls),
(1382,990,o),
(1380,997,o),
(1376,1026,cs),
(1347,1218,o),
(1230,1408,o),
(884,1408,cs),
(556,1408,o),
(340,1114,o),
(340,750,cs),
(340,386,o),
(512,90,o),
(850,90,cs),
(1100,90,o),
(1240,225,o),
(1290,344,cs),
(1297,361,o),
(1300,374,o),
(1300,400,cs),
(1300,578,ls),
(1300,608,o),
(1286,610,o),
(1259,610,cs),
(1091,610,ls),
(1057,610,o),
(1050,613,o),
(1050,646,cs),
(1050,702,ls),
(1050,734,o),
(1056,740,o),
(1087,740,cs)
);
}
);
vertWidth = 0;
width = 1740;
},
{
anchors = (
{
name = "Anchor-0";
pos = (916,1500);
},
{
name = "Anchor-1";
pos = (887,0);
},
{
name = "Anchor-2";
pos = (887,0);
}
);
layerId = "8097EFC1-F009-4E0B-8F96-722A50586A5E";
shapes = (
{
closed = 1;
nodes = (
(1819,860,ls),
(1864,860,o),
(1870,855,o),
(1870,808,cs),
(1870,626,ls),
(1870,592,o),
(1862,590,o),
(1827,590,cs),
(1707,590,ls),
(1676,590,o),
(1670,586,o),
(1670,556,cs),
(1670,334,ls),
(1670,288,o),
(1664,283,o),
(1641,261,cs),
(1516,142,o),
(1257,-40,o),
(920,-40,cs),
(424,-40,o),
(70,264,o),
(70,750,cs),
(70,1196,o),
(404,1540,o),
(890,1540,cs),
(1056,1540,o),
(1183,1494,o),
(1277,1425,cs),
(1308,1403,o),
(1318,1402,o),
(1343,1434,cs),
(1386,1492,ls),
(1396,1505,o),
(1408,1510,o),
(1433,1510,cs),
(1583,1510,ls),
(1617,1510,o),
(1630,1507,o),
(1630,1474,cs),
(1630,1029,ls),
(1630,985,o),
(1629,970,o),
(1585,970,cs),
(1389,970,ls),
(1332,970,o),
(1336,983,o),
(1319,1020,cs),
(1240,1192,o),
(1130,1284,o),
(940,1284,cs),
(732,1284,o),
(590,1094,o),
(590,750,cs),
(590,406,o),
(712,210,o),
(910,210,cs),
(1088,210,o),
(1144,295,o),
(1182,384,cs),
(1194,412,o),
(1200,431,o),
(1200,474,cs),
(1200,544,ls),
(1200,583,o),
(1197,590,o),
(1159,590,cs),
(955,590,ls),
(909,590,o),
(910,610,o),
(910,652,cs),
(910,810,ls),
(910,858,o),
(922,860,o),
(967,860,cs)
);
}
);
vertWidth = 0;
width = 1890;
},
{
anchors = (
{
name = "Anchor-0";
pos = (661,1500);
},
{
name = "Anchor-1";
pos = (632,0);
},
{
name = "Anchor-2";
pos = (632,0);
}
);
layerId = "871B1205-2168-46B7-8FAD-FF3EA4ADCFD7";
shapes = (
{
closed = 1;
nodes = (
(1086,740,ls),
(1126,740,o),
(1135,737,o),
(1135,694,cs),
(1135,644,ls),
(1135,615,o),
(1129,610,o),
(1098,610,cs),
(1068,610,ls),
(1038,610,o),
(1035,603,o),
(1035,572,cs),
(1035,462,ls),
(1035,428,o),
(1033,414,o),
(1030,382,cs),
(1012,170,o),
(871,-20,o),
(585,-20,cs),
(169,-20,o),
(55,304,o),
(55,750,cs),
(55,1196,o),
(219,1520,o),
(595,1520,cs),
(756,1520,o),
(851,1447,o),
(888,1379,cs),
(899,1358,o),
(909,1361,o),
(917,1394,cs),
(934,1464,ls),
(939,1483,o),
(947,1500,o),
(964,1500,cs),
(1008,1500,ls),
(1024,1500,o),
(1035,1491,o),
(1035,1474,cs),
(1035,1034,ls),
(1035,1013,o),
(1033,990,o),
(1010,990,cs),
(962,990,ls),
(927,990,o),
(924,997,o),
(921,1026,cs),
(897,1218,o),
(855,1408,o),
(609,1408,cs),
(351,1408,o),
(245,1114,o),
(245,750,cs),
(245,386,o),
(327,80,o),
(585,80,cs),
(715,80,o),
(812,215,o),
(839,344,cs),
(843,363,o),
(845,374,o),
(845,400,cs),
(845,578,ls),
(845,608,o),
(841,610,o),
(814,610,cs),
(746,610,ls),
(712,610,o),
(715,613,o),
(715,646,cs),
(715,702,ls),
(715,734,o),
(721,740,o),
(752,740,cs)
);
}
);
vertWidth = 0;
width = 1150;
},
{
anchors = (
{
name = "Anchor-0";
pos = (666,1500);
},
{
name = "Anchor-1";
pos = (637,0);
},
{
name = "Anchor-2";
pos = (637,0);
}
);
layerId = "E1447247-EC0C-4B84-932A-C76B64125023";
shapes = (
{
closed = 1;
nodes = (
(1249,860,ls),
(1294,860,o),
(1300,855,o),
(1300,808,cs),
(1300,626,ls),
(1300,592,o),
(1292,590,o),
(1257,590,cs),
(1237,590,ls),
(1206,590,o),
(1200,586,o),
(1200,556,cs),
(1200,334,ls),
(1200,288,o),
(1189.11,277.837,o),
(1172,251,cs),
(1077,102,o),
(1007,-40,o),
(670,-40,cs),
(174,-40,o),
(20,264,o),
(20,750,cs),
(20,1196,o),
(164,1540,o),
(620,1540,cs),
(746,1540,o),
(823,1454,o),
(837,1425,cs),
(853.526,1390.768,o),
(868,1402,o),
(893,1434,cs),
(936,1492,ls),
(946,1505,o),
(958,1510,o),
(983,1510,cs),
(1133,1510,ls),
(1167,1510,o),
(1180,1507,o),
(1180,1474,cs),
(1180,1029,ls),
(1180,985,o),
(1179,970,o),
(1135,970,cs),
(939,970,ls),
(882,970,o),
(885.093,982.597,o),
(869,1020,cs),
(795,1192,o),
(780,1284,o),
(690,1284,cs),
(582,1284,o),
(540,1094,o),
(540,750,cs),
(540,406,o),
(572,210,o),
(660,210,cs),
(718,210,o),
(727,285,o),
(742,384,cs),
(746.563,414.119,o),
(750,431,o),
(750,474,cs),
(750,544,ls),
(750,583,o),
(747,590,o),
(709,590,cs),
(705,590,ls),
(659,590,o),
(660,610,o),
(660,652,cs),
(660,810,ls),
(660,858,o),
(672,860,o),
(717,860,cs)
);
}
);
vertWidth = 0;
width = 1310;
}
);
unicode = 71;
},
{
glyphname = H;
kernLeft = kc0_1;
kernRight = kc0_1;
layers = (
{
anchors = (
{
name = "Anchor-0";
pos = (876,1500);
},
{
name = "Anchor-1";
pos = (876,0);
},
{
name = "Anchor-2";
pos = (876,0);
}
);
layerId = "EAF0EFDD-E653-4C10-B7B2-F7A391578EE2";
shapes = (
{
closed = 1;
nodes = (
(485,888,ls),
(485,837,o),
(489,830,o),
(542,830,cs),
(1232,830,ls),
(1284,830,o),
(1285,841,o),
(1285,894,cs),
(1285,1338,ls),
(1285,1380,o),
(1284,1390,o),
(1242,1390,cs),
(1079,1390,ls),
(1051,1390,o),
(1045,1403,o),
(1045,1429,cs),
(1045,1458,ls),
(1045,1494,o),
(1050,1500,o),
(1085,1500,cs),
(1655,1500,ls),
(1687,1500,o),
(1695,1496,o),
(1695,1462,cs),
(1695,1424,ls),
(1695,1396,o),
(1686,1390,o),
(1656,1390,cs),
(1530,1390,ls),
(1486,1390,o),
(1475,1388,o),
(1475,1344,cs),
(1475,144,ls),
(1475,116,o),
(1482,110,o),
(1512,110,cs),
(1656,110,ls),
(1683,110,o),
(1695,107,o),
(1695,78,cs),
(1695,44,ls),
(1695,2,o),
(1684,0,o),
(1645,0,cs),
(1085,0,ls),
(1049,0,o),
(1045,7,o),
(1045,44,cs),
(1045,74,ls),
(1045,102,o),
(1047,110,o),
(1074,110,cs),
(1243,110,ls),
(1282,110,o),
(1285,123,o),
(1285,160,cs),
(1285,672,ls),
(1285,715,o),
(1276,720,o),
(1236,720,cs),
(532,720,ls),
(492,720,o),
(485,717,o),
(485,678,cs),
(485,150,ls),
(485,119,o),
(490,110,o),
(523,110,cs),
(692,110,ls),
(719,110,o),
(725,105,o),
(725,76,cs),
(725,50,ls),
(725,5,o),
(719,0,o),
(675,0,cs),
(115,0,ls),
(82,0,o),
(75,5,o),
(75,40,cs),
(75,68,ls),
(75,104,o),
(81,110,o),
(116,110,cs),
(254,110,ls),
(286,110,o),
(295,112,o),
(295,144,cs),
(295,1351,ls),
(295,1383,o),
(286,1390,o),
(256,1390,cs),
(110,1390,ls),
(76,1390,o),
(75,1401,o),
(75,1436,cs),
(75,1462,ls),
(75,1494,o),
(85,1500,o),
(115,1500,cs),
(685,1500,ls),
(712,1500,o),
(725,1497,o),
(725,1468,cs),
(725,1428,ls),
(725,1396,o),
(719,1390,o),
(688,1390,cs),
(524,1390,ls),
(490,1390,o),
(485,1383,o),
(485,1347,cs)
);
}
);
vertWidth = 0;
width = 1770;
},
{
anchors = (
{
name = "Anchor-0";
pos = (1011,1500);
},
{
name = "Anchor-1";
pos = (1006,0);
},
{
name = "Anchor-2";
pos = (1006,0);
}
);
layerId = "8097EFC1-F009-4E0B-8F96-722A50586A5E";
shapes = (
{
closed = 1;
nodes = (
(740,950,ls),
(740,901,o),
(752,900,o),
(802,900,cs),
(1227,900,ls),
(1277,900,o),
(1280,911,o),
(1280,962,cs),
(1280,1196,ls),
(1280,1228,o),
(1268,1230,o),
(1235,1230,cs),
(1137,1230,ls),
(1087,1230,o),
(1080,1233,o),
(1080,1282,cs),
(1080,1439,ls),
(1080,1493,o),
(1088,1500,o),
(1140,1500,cs),
(1910,1500,ls),
(1948,1500,o),
(1970,1493,o),
(1970,1451,cs),
(1970,1278,ls),
(1970,1239,o),
(1962,1230,o),
(1920,1230,cs),
(1791,1230,ls),
(1753,1230,o),
(1750,1218,o),
(1750,1179,cs),
(1750,320,ls),
(1750,282,o),
(1751,270,o),
(1789,270,cs),
(1919,270,ls),
(1964,270,o),
(1970,260,o),
(1970,213,cs),
(1970,81,ls),
(1970,8,o),
(1961,0,o),
(1890,0,cs),
(1160,0,ls),
(1101,0,o),
(1080,7,o),
(1080,70,cs),
(1080,225,ls),
(1080,263,o),
(1093,270,o),
(1129,270,cs),
(1218,270,ls),
(1265,270,o),
(1280,271,o),
(1280,318,cs),
(1280,599,ls),
(1280,642,o),
(1271,650,o),
(1231,650,cs),
(787,650,ls),
(746,650,o),
(740,640,o),
(740,597,cs),
(740,329,ls),
(740,285,o),
(741,270,o),
(785,270,cs),
(887,270,ls),
(927,270,o),
(940,267,o),
(940,228,cs),
(940,65,ls),
(940,6,o),
(914,0,o),
(860,0,cs),
(120,0,ls),
(62,0,o),
(50,6,o),
(50,67,cs),
(50,206,ls),
(50,251,o),
(52,270,o),
(97,270,cs),
(205,270,ls),
(254,270,o),
(270,271,o),
(270,320,cs),
(270,1184,ls),
(270,1225,o),
(259,1230,o),
(216,1230,cs),
(115,1230,ls),
(63,1230,o),
(50,1235,o),
(50,1290,cs),
(50,1444,ls),
(50,1493,o),
(75,1500,o),
(120,1500,cs),
(860,1500,ls),
(917,1500,o),
(940,1494,o),
(940,1432,cs),
(940,1278,ls),
(940,1235,o),
(934,1230,o),
(893,1230,cs),
(783,1230,ls),
(747,1230,o),
(740,1225,o),
(740,1188,cs)
);
}
);
vertWidth = 0;
width = 2020;
},
{
anchors = (
{
name = "Anchor-0";
pos = (604,1500);
},
{
name = "Anchor-1";
pos = (599,0);
},
{
name = "Anchor-2";
pos = (599,0);
}
);
layerId = "871B1205-2168-46B7-8FAD-FF3EA4ADCFD7";
shapes = (
{
closed = 1;
nodes = (
(348,888,ls),
(348,837,o),
(352,830,o),
(405,830,cs),
(795,830,ls),
(847,830,o),
(848,841,o),
(848,894,cs),
(848,1338,ls),
(848,1380,o),
(857,1390,o),
(815,1390,cs),
(742,1390,ls),
(714,1390,o),
(708,1403,o),
(708,1429,cs),
(708,1458,ls),
(708,1494,o),
(713,1500,o),
(748,1500,cs),
(1118,1500,ls),
(1150,1500,o),
(1158,1496,o),
(1158,1462,cs),
(1158,1424,ls),
(1158,1396,o),
(1149,1390,o),
(1119,1390,cs),
(1093,1390,ls),
(1049,1390,o),
(1038,1388,o),
(1038,1344,cs),
(1038,144,ls),
(1038,116,o),
(1045,110,o),
(1075,110,cs),
(1119,110,ls),
(1146,110,o),
(1158,107,o),
(1158,78,cs),
(1158,44,ls),
(1158,2,o),
(1147,0,o),
(1108,0,cs),
(748,0,ls),
(712,0,o),
(708,7,o),
(708,44,cs),
(708,74,ls),
(708,102,o),
(710,110,o),
(737,110,cs),
(826,110,ls),
(845,110,o),
(848,123,o),
(848,160,cs),
(848,672,ls),
(848,715,o),
(839,720,o),
(799,720,cs),
(395,720,ls),
(355,720,o),
(348,717,o),
(348,678,cs),
(348,150,ls),
(348,119,o),
(353,110,o),
(386,110,cs),
(455,110,ls),
(482,110,o),
(488,105,o),
(488,76,cs),
(488,50,ls),
(488,5,o),
(482,0,o),
(438,0,cs),
(78,0,ls),
(45,0,o),
(38,5,o),
(38,40,cs),
(38,68,ls),
(38,104,o),
(44,110,o),
(79,110,cs),
(117,110,ls),
(149,110,o),
(158,112,o),
(158,144,cs),
(158,1351,ls),
(158,1383,o),
(149,1390,o),
(119,1390,cs),
(73,1390,ls),
(39,1390,o),
(38,1401,o),
(38,1436,cs),
(38,1462,ls),
(38,1494,o),
(48,1500,o),
(78,1500,cs),
(448,1500,ls),
(475,1500,o),
(488,1497,o),
(488,1468,cs),
(488,1428,ls),
(488,1396,o),
(482,1390,o),
(451,1390,cs),
(387,1390,ls),
(353,1390,o),
(348,1383,o),
(348,1347,cs)
);
}
);
vertWidth = 0;
width = 1196;
},
{
anchors = (
{
name = "Anchor-0";
pos = (721,1500);
},
{
name = "Anchor-1";
pos = (716,0);
},
{
name = "Anchor-2";
pos = (716,0);
}
);
layerId = "E1447247-EC0C-4B84-932A-C76B64125023";
shapes = (
{
closed = 1;
nodes = (
(600,950,ls),
(600,901,o),
(612,900,o),
(662,900,cs),
(787,900,ls),
(837,900,o),
(840,911,o),
(840,962,cs),
(840,1196,ls),
(840,1228,o),
(838,1230,o),
(805,1230,cs),
(797,1230,ls),
(747,1230,o),
(740,1233,o),
(740,1282,cs),
(740,1439,ls),
(740,1493,o),
(748,1500,o),
(800,1500,cs),
(1370,1500,ls),
(1408,1500,o),
(1430,1493,o),
(1430,1451,cs),
(1430,1278,ls),
(1430,1239,o),
(1422,1230,o),
(1380,1230,cs),
(1351,1230,ls),
(1313,1230,o),
(1310,1218,o),
(1310,1179,cs),
(1310,320,ls),
(1310,282,o),
(1311,270,o),
(1349,270,cs),
(1379,270,ls),
(1424,270,o),
(1430,260,o),
(1430,213,cs),
(1430,81,ls),
(1430,8,o),
(1421,0,o),
(1350,0,cs),
(820,0,ls),
(761,0,o),
(740,7,o),
(740,70,cs),
(740,225,ls),
(740,263,o),
(753,270,o),
(789,270,cs),
(798,270,ls),
(825,270,o),
(840,271,o),
(840,318,cs),
(840,599,ls),
(840,642,o),
(831,650,o),
(791,650,cs),
(647,650,ls),
(606,650,o),
(600,640,o),
(600,597,cs),
(600,329,ls),
(600,285,o),
(601,270,o),
(645,270,cs),
(647,270,ls),
(687,270,o),
(700,267,o),
(700,228,cs),
(700,65,ls),
(700,6,o),
(674,0,o),
(620,0,cs),
(80,0,ls),
(22,0,o),
(10,6,o),
(10,67,cs),
(10,206,ls),
(10,251,o),
(12,270,o),
(57,270,cs),
(65,270,ls),
(114,270,o),
(130,271,o),
(130,320,cs),
(130,1184,ls),
(130,1225,o),
(119,1230,o),
(76,1230,cs),
(75,1230,ls),
(23,1230,o),
(10,1235,o),
(10,1290,cs),
(10,1444,ls),
(10,1493,o),
(35,1500,o),
(80,1500,cs),
(620,1500,ls),
(677,1500,o),
(700,1494,o),
(700,1432,cs),
(700,1278,ls),
(700,1235,o),
(694,1230,o),
(653,1230,cs),
(643,1230,ls),
(607,1230,o),
(600,1225,o),
(600,1188,cs)
);
}
);
vertWidth = 0;
width = 1440;
}
);
unicode = 72;
},
{
glyphname = Hbar;
layers = (
{
layerId = "EAF0EFDD-E653-4C10-B7B2-F7A391578EE2";
shapes = (
{
closed = 1;
nodes = (
(1633,1190,ls),
(1688,1190,o),
(1695,1186,o),
(1695,1162,cs),
(1695,1113,ls),
(1695,1089,o),
(1690,1080,o),
(1628,1080,cs),
(138,1080,ls),
(78,1080,o),
(76,1084,o),
(76,1110,cs),
(76,1162,ls),
(76,1185,o),
(93,1190,o),
(143,1190,cs)
);
},
{
ref = H;
}
);
vertWidth = 0;
width = 1770;
},
{
layerId = "8097EFC1-F009-4E0B-8F96-722A50586A5E";
shapes = (
{
closed = 1;
nodes = (
(1874,1170,ls),
(1961,1170,o),
(1970,1163,o),
(1970,1131,cs),
(1970,981,ls),
(1970,946,o),
(1967,940,o),
(1868,940,cs),
(169,940,ls),
(67,940,o),
(51,945,o),
(51,980,cs),
(51,1129,ls),
(51,1161,o),
(57,1170,o),
(147,1170,cs)
);
},
{
ref = H;
}
);
vertWidth = 0;
width = 2020;
},
{
layerId = "871B1205-2168-46B7-8FAD-FF3EA4ADCFD7";
shapes = (
{
closed = 1;
nodes = (
(1096,1190,ls),
(1151,1190,o),
(1158,1186,o),
(1158,1162,cs),
(1158,1113,ls),
(1158,1089,o),
(1153,1080,o),
(1091,1080,cs),
(101,1080,ls),
(41,1080,o),
(39,1084,o),
(39,1110,cs),
(39,1162,ls),
(39,1185,o),
(56,1190,o),
(106,1190,cs)
);
},
{
ref = H;
}
);
vertWidth = 0;
width = 1196;
},
{
layerId = "E1447247-EC0C-4B84-932A-C76B64125023";
shapes = (
{
closed = 1;
nodes = (
(1334,1170,ls),
(1421,1170,o),
(1430,1163,o),
(1430,1131,cs),
(1430,981,ls),
(1430,946,o),
(1427,940,o),
(1328,940,cs),
(129,940,ls),
(27,940,o),
(11,945,o),
(11,980,cs),
(11,1129,ls),
(11,1161,o),
(17,1170,o),
(107,1170,cs)
);
},
{
ref = H;
}
);
vertWidth = 0;
width = 1440;
}
);
unicode = 294;
},
{
glyphname = I;
kernLeft = kc0_1;
kernRight = kc0_1;
layers = (
{
anchors = (
{
name = "Anchor-0";
pos = (406,1500);
},
{
name = "Anchor-1";
pos = (402,0);
},
{
name = "Anchor-2";
pos = (402,0);
},
{
name = "Anchor-3";
pos = (402,0);
}
);
layerId = "EAF0EFDD-E653-4C10-B7B2-F7A391578EE2";
shapes = (
{
closed = 1;
nodes = (
(500,154,ls),
(500,121,o),
(509,110,o),
(538,110,cs),
(718,110,ls),
(737,110,o),
(740,97,o),
(740,78,cs),
(740,32,ls),
(740,8,o),
(728,0,o),
(700,0,cs),
(130,0,ls),
(102,0,o),
(90,7,o),
(90,32,cs),
(90,82,ls),
(90,103,o),
(98,110,o),
(136,110,cs),
(242,110,ls),
(277,110,o),
(310,114,o),
(310,160,cs),
(310,1356,ls),
(310,1382,o),
(310,1390,o),
(280,1390,cs),
(124,1390,ls),
(98,1390,o),
(90,1399,o),
(90,1420,cs),
(90,1474,ls),
(90,1500,o),
(97,1500,o),
(120,1500,cs),
(704,1500,ls),
(734,1500,o),
(740,1497,o),
(740,1466,cs),
(740,1432,ls),
(740,1397,o),
(723,1390,o),
(698,1390,cs),
(538,1390,ls),
(506,1390,o),
(500,1387,o),
(500,1354,cs)
);
}
);
vertWidth = 0;
width = 830;
},
{
anchors = (
{
name = "Anchor-0";
pos = (547,1500);
},
{
name = "Anchor-1";
pos = (543,0);
},
{
name = "Anchor-2";
pos = (543,0);
},
{
name = "Anchor-3";
pos = (543,0);
}
);
layerId = "8097EFC1-F009-4E0B-8F96-722A50586A5E";
shapes = (
{
closed = 1;
nodes = (
(785,314,ls),
(785,271,o),
(795,270,o),
(839,270,cs),
(997,270,ls),
(1030,270,o),
(1045,269,o),
(1045,236,cs),
(1045,50,ls),
(1045,5,o),
(1039,0,o),
(995,0,cs),
(125,0,ls),
(79,0,o),
(75,9,o),
(75,56,cs),
(75,221,ls),
(75,266,o),
(88,270,o),
(130,270,cs),
(268,270,ls),
(306,270,o),
(315,276,o),
(315,317,cs),
(315,1176,ls),
(315,1219,o),
(313,1230,o),
(270,1230,cs),
(128,1230,ls),
(87,1230,o),
(75,1234,o),
(75,1278,cs),
(75,1443,ls),
(75,1491,o),
(77,1500,o),
(125,1500,cs),
(991,1500,ls),
(1039,1500,o),
(1045,1489,o),
(1045,1444,cs),
(1045,1284,ls),
(1045,1236,o),
(1038,1230,o),
(992,1230,cs),
(835,1230,ls),
(791,1230,o),
(785,1220,o),
(785,1178,cs)
);
}
);
vertWidth = 0;
width = 1120;
},
{
anchors = (
{
name = "Anchor-0";
pos = (262,1500);
},
{
name = "Anchor-1";
pos = (268,0);
},
{
name = "Anchor-2";
pos = (268,0);
},
{
name = "Anchor-3";
pos = (268,0);
}
);
layerId = "871B1205-2168-46B7-8FAD-FF3EA4ADCFD7";
shapes = (
{
closed = 1;
nodes = (
(355,154,ls),
(355,121,o),
(364,110,o),
(393,110,cs),
(453,110,ls),
(472,110,o),
(475,97,o),
(475,78,cs),
(475,32,ls),
(475,8,o),
(463,0,o),
(435,0,cs),
(85,0,ls),
(57,0,o),
(45,7,o),
(45,32,cs),
(45,82,ls),
(45,103,o),
(53,110,o),
(91,110,cs),
(97,110,ls),
(132,110,o),
(165,114,o),
(165,160,cs),
(165,1356,ls),
(165,1382,o),
(165,1390,o),
(135,1390,cs),
(79,1390,ls),
(53,1390,o),
(45,1399,o),
(45,1420,cs),
(45,1474,ls),
(45,1500,o),
(52,1500,o),
(75,1500,cs),
(439,1500,ls),
(469,1500,o),
(475,1497,o),
(475,1466,cs),
(475,1432,ls),
(475,1397,o),
(458,1390,o),
(433,1390,cs),
(393,1390,ls),
(361,1390,o),
(355,1387,o),
(355,1354,cs)
);
}
);
vertWidth = 0;
width = 520;
},
{
anchors = (
{
name = "Anchor-0";
pos = (382,1500);
},
{
name = "Anchor-1";
pos = (378,0);
},
{
name = "Anchor-2";
pos = (378,0);
},
{
name = "Anchor-3";
pos = (378,0);
}
);
layerId = "E1447247-EC0C-4B84-932A-C76B64125023";
shapes = (
{
closed = 1;
nodes = (
(620,314,ls),
(620,271,o),
(630,270,o),
(674,270,cs),
(712,270,ls),
(745,270,o),
(760,269,o),
(760,236,cs),
(760,50,ls),
(760,5,o),
(754,0,o),
(710,0,cs),
(60,0,ls),
(14,0,o),
(10,9,o),
(10,56,cs),
(10,221,ls),
(10,266,o),
(23,270,o),
(65,270,cs),
(103,270,ls),
(141,270,o),
(150,276,o),
(150,317,cs),
(150,1176,ls),
(150,1219,o),
(148,1230,o),
(105,1230,cs),
(63,1230,ls),
(22,1230,o),
(10,1234,o),
(10,1278,cs),
(10,1443,ls),
(10,1491,o),
(12,1500,o),
(60,1500,cs),
(706,1500,ls),
(754,1500,o),
(760,1489,o),
(760,1444,cs),
(760,1284,ls),
(760,1236,o),
(753,1230,o),
(707,1230,cs),
(670,1230,ls),
(626,1230,o),
(620,1220,o),
(620,1178,cs)
);
}
);
vertWidth = 0;
width = 770;
}
);
unicode = 73;
},
{
glyphname = J;
kernLeft = kc0_26;
kernRight = kc0_4;
layers = (
{
anchors = (
{
name = "Anchor-0";
pos = (736,1500);
},
{
name = "Anchor-1";
pos = (448,0);
},
{
name = "Anchor-2";
pos = (448,0);
}
);
layerId = "EAF0EFDD-E653-4C10-B7B2-F7A391578EE2";
shapes = (
{
closed = 1;
nodes = (
(20,414,o),
(98,480,o),
(178,480,cs),
(248,480,o),
(306,434,o),
(306,362,cs),
(306,232,o),
(218,264,o),
(218,180,cs),
(218,146,o),
(248,90,o),
(412,90,cs),
(594,90,o),
(702,200,o),
(702,480,cs),
(702,1331,ls),
(702,1376,o),
(700,1390,o),
(655,1390,cs),
(467,1390,ls),
(425,1390,o),
(422,1397,o),
(422,1440,cs),
(422,1460,ls),
(422,1499,o),
(436,1500,o),
(472,1500,cs),
(1092,1500,ls),
(1115,1500,o),
(1132,1498,o),
(1132,1472,cs),
(1132,1424,ls),
(1132,1397,o),
(1129,1390,o),
(1103,1390,cs),
(937,1390,ls),
(894,1390,o),
(892,1382,o),
(892,1338,cs),
(892,540,ls),
(892,220,o),
(734,-20,o),
(412,-20,cs),
(138,-20,o),
(20,150,o),
(20,290,cs)
);
}
);
vertWidth = 0;
width = 1177;
},
{
anchors = (
{
name = "Anchor-0";
pos = (836,1500);
},
{
name = "Anchor-1";
pos = (548,0);
},
{
name = "Anchor-2";
pos = (548,0);
}
);
layerId = "8097EFC1-F009-4E0B-8F96-722A50586A5E";
shapes = (
{
closed = 1;
nodes = (
(0,594,o),
(118,740,o),
(298,740,cs),
(452,740,o),
(546,648,o),
(546,522,cs),
(546,342,o),
(400,344,o),
(400,288,cs),
(400,254,o),
(428,190,o),
(532,190,cs),
(634,190,o),
(722,260,o),
(722,480,cs),
(722,1172,ls),
(722,1228,o),
(709,1230,o),
(653,1230,cs),
(460,1230,ls),
(416,1230,o),
(402,1231,o),
(402,1278,cs),
(402,1442,ls),
(402,1491,o),
(403,1500,o),
(452,1500,cs),
(1362,1500,ls),
(1404,1500,o),
(1412,1493,o),
(1412,1449,cs),
(1412,1272,ls),
(1412,1231,o),
(1400,1230,o),
(1359,1230,cs),
(1210,1230,ls),
(1175,1230,o),
(1172,1217,o),
(1172,1181,cs),
(1172,540,ls),
(1172,160,o),
(894,-40,o),
(532,-40,cs),
(218,-40,o),
(0,170,o),
(0,390,cs)
);
}
);
vertWidth = 0;
width = 1432;
},
{
anchors = (
{
name = "Anchor-0";
pos = (586,1500);
},
{
name = "Anchor-1";
pos = (338,0);
},
{
name = "Anchor-2";
pos = (338,0);
}
);
layerId = "871B1205-2168-46B7-8FAD-FF3EA4ADCFD7";
shapes = (
{
closed = 1;
nodes = (
(10,404,o),
(75,470,o),
(155,470,cs),
(225,470,o),
(266,424,o),
(266,352,cs),
(266,222,o),
(198,244,o),
(198,160,cs),
(198,126,o),
(228,90,o),
(322,90,cs),
(454,90,o),
(492,200,o),
(492,480,cs),
(492,1331,ls),
(492,1376,o),
(490,1390,o),
(445,1390,cs),
(357,1390,ls),
(315,1390,o),
(312,1397,o),
(312,1440,cs),
(312,1460,ls),
(312,1499,o),
(326,1500,o),
(362,1500,cs),
(782,1500,ls),
(805,1500,o),
(822,1498,o),
(822,1472,cs),
(822,1424,ls),
(822,1397,o),
(819,1390,o),
(793,1390,cs),
(727,1390,ls),
(684,1390,o),
(682,1382,o),
(682,1338,cs),
(682,540,ls),
(682,220,o),
(624,-20,o),
(302,-20,cs),
(108,-20,o),
(10,120,o),
(10,280,cs)
);
}
);
vertWidth = 0;
width = 844;
},
{
anchors = (
{
name = "Anchor-0";
pos = (636,1500);
},
{
name = "Anchor-1";
pos = (448,0);
},
{
name = "Anchor-2";
pos = (448,0);
}
);
layerId = "E1447247-EC0C-4B84-932A-C76B64125023";
shapes = (
{
closed = 1;
nodes = (
(0,594,o),
(88,740,o),
(268,740,cs),
(422,740,o),
(496,648,o),
(496,522,cs),
(496,342,o),
(390,304,o),
(390,248,cs),
(390,214,o),
(418,190,o),
(452,190,cs),
(504,190,o),
(522,260,o),
(522,480,cs),
(522,1172,ls),
(522,1228,o),
(509,1230,o),
(453,1230,cs),
(360,1230,ls),
(316,1230,o),
(302,1231,o),
(302,1278,cs),
(302,1442,ls),
(302,1491,o),
(303,1500,o),
(352,1500,cs),
(1062,1500,ls),
(1104,1500,o),
(1112,1493,o),
(1112,1449,cs),
(1112,1272,ls),
(1112,1231,o),
(1100,1230,o),
(1059,1230,cs),
(1010,1230,ls),
(975,1230,o),
(972,1217,o),
(972,1181,cs),
(972,540,ls),
(972,160,o),
(794,-40,o),
(432,-40,cs),
(118,-40,o),
(0,170,o),
(0,390,cs)
);
}
);
vertWidth = 0;
width = 1112;
}
);
unicode = 74;
},
{
glyphname = K;
kernLeft = kc0_1;
kernRight = kc0_18;
layers = (
{
anchors = (
{
name = "Anchor-0";
pos = (866,1500);
},
{
name = "Anchor-1";
pos = (890,0);
},
{
name = "Anchor-2";
pos = (890,0);
}
);
layerId = "EAF0EFDD-E653-4C10-B7B2-F7A391578EE2";
shapes = (
{
closed = 1;
nodes = (
(75,78,ls),
(75,105,o),
(82,110,o),
(107,110,cs),
(253,110,ls),
(292,110,o),
(295,120,o),
(295,156,cs),
(295,1358,ls),
(295,1390,o),
(295,1390,o),
(263,1390,cs),
(107,1390,ls),
(78,1390,o),
(75,1388,o),
(75,1418,cs),
(75,1470,ls),
(75,1494,o),
(80,1500,o),
(103,1500,cs),
(695,1500,ls),
(718,1500,o),
(725,1495,o),
(725,1470,cs),
(725,1432,ls),
(725,1393,o),
(715,1390,o),
(679,1390,cs),
(533,1390,ls),
(487,1390,o),
(485,1380,o),
(485,1334,cs),
(485,682,ls),
(485,625,o),
(489,619,o),
(524,655,cs),
(1201,1356,ls),
(1224,1379,o),
(1218,1390,o),
(1173,1390,cs),
(1055,1390,ls),
(1019,1390,o),
(1015,1398,o),
(1015,1432,cs),
(1015,1464,ls),
(1015,1497,o),
(1026,1500,o),
(1057,1500,cs),
(1579,1500,ls),
(1611,1500,o),
(1615,1493,o),
(1615,1460,cs),
(1615,1434,ls),
(1615,1397,o),
(1611,1390,o),
(1575,1390,cs),
(1437,1390,ls),
(1388,1390,o),
(1374,1379,o),
(1351,1356,cs),
(933,926,ls),
(913,905,o),
(912,893,o),
(930,870,cs),
(1495,146,ls),
(1514,122,o),
(1525,110,o),
(1571,110,cs),
(1705,110,ls),
(1738,110,o),
(1745,105,o),
(1745,70,cs),
(1745,34,ls),
(1745,0,o),
(1745,0,o),
(1711,0,cs),
(1119,0,ls),
(1090,0,o),
(1085,7,o),
(1085,34,cs),
(1085,66,ls),
(1085,102,o),
(1088,110,o),
(1123,110,cs),
(1226,110,ls),
(1273,110,o),
(1274,126,o),
(1256,150,cs),
(815,732,ls),
(790,765,o),
(777,766,o),
(750,738,cs),
(509,490,ls),
(488,469,o),
(485,459,o),
(485,414,cs),
(485,150,ls),
(485,115,o),
(491,110,o),
(527,110,cs),
(689,110,ls),
(721,110,o),
(725,102,o),
(725,72,cs),
(725,40,ls),
(725,6,o),
(720,0,o),
(687,0,cs),
(109,0,ls),
(79,0,o),
(75,7,o),
(75,38,cs)
);
}
);
vertWidth = 0;
width = 1745;
},
{
anchors = (
{
name = "Anchor-0";
pos = (996,1500);
},
{
name = "Anchor-1";
pos = (1000,0);
},
{
name = "Anchor-2";
pos = (1000,0);
}
);
layerId = "8097EFC1-F009-4E0B-8F96-722A50586A5E";
shapes = (
{
closed = 1;
nodes = (
(50,224,ls),
(50,262,o),
(55,270,o),
(92,270,cs),
(218,270,ls),
(266,270,o),
(270,278,o),
(270,324,cs),
(270,1194,ls),
(270,1229,o),
(258,1230,o),
(223,1230,cs),
(90,1230,ls),
(51,1230,o),
(50,1242,o),
(50,1281,cs),
(50,1454,ls),
(50,1495,o),
(64,1500,o),
(102,1500,cs),
(930,1500,ls),
(966,1500,o),
(980,1495,o),
(980,1456,cs),
(980,1290,ls),
(980,1241,o),
(976,1230,o),
(928,1230,cs),
(788,1230,ls),
(748,1230,o),
(740,1222,o),
(740,1180,cs),
(740,892,ls),
(740,820,o),
(762,822,o),
(792,846,cs),
(1226,1198,ls),
(1253,1220,o),
(1262,1230,o),
(1210,1230,cs),
(1133,1230,ls),
(1081,1230,o),
(1070,1232,o),
(1070,1284,cs),
(1070,1458,ls),
(1070,1490,o),
(1075,1500,o),
(1106,1500,cs),
(1838,1500,ls),
(1869,1500,o),
(1870,1481,o),
(1870,1450,cs),
(1870,1287,ls),
(1870,1242,o),
(1869,1230,o),
(1824,1230,cs),
(1684,1230,ls),
(1627,1230,o),
(1618,1214,o),
(1588,1190,cs),
(1332,979,ls),
(1292,946,o),
(1275,945,o),
(1307,900,cs),
(1726,314,ls),
(1753,276,o),
(1759,270,o),
(1826,270,cs),
(1940,270,ls),
(1970,270,o),
(1980,263,o),
(1980,231,cs),
(1980,40,ls),
(1980,5,o),
(1964,0,o),
(1928,0,cs),
(1082,0,ls),
(1045,0,o),
(1040,8,o),
(1040,46,cs),
(1040,223,ls),
(1040,266,o),
(1059,270,o),
(1098,270,cs),
(1192,270,ls),
(1246,270,o),
(1228,294,o),
(1210,321,cs),
(994,650,ls),
(969,688,o),
(967,679,o),
(934,652,cs),
(776,522,ls),
(750,500,o),
(740,497,o),
(740,446,cs),
(740,310,ls),
(740,273,o),
(748,270,o),
(786,270,cs),
(920,270,ls),
(955,270,o),
(960,262,o),
(960,226,cs),
(960,56,ls),
(960,5,o),
(948,0,o),
(900,0,cs),
(96,0,ls),
(52,0,o),
(50,10,o),
(50,54,cs)
);
}
);
vertWidth = 0;
width = 1940;
},
{
anchors = (
{
name = "Anchor-0";
pos = (609,1500);
},
{
name = "Anchor-1";
pos = (613,0);
},
{
name = "Anchor-2";
pos = (613,0);
}
);
layerId = "871B1205-2168-46B7-8FAD-FF3EA4ADCFD7";
shapes = (
{
closed = 1;
nodes = (
(38,78,ls),
(38,105,o),
(45,110,o),
(70,110,cs),
(116,110,ls),
(155,110,o),
(158,120,o),
(158,156,cs),
(158,1358,ls),
(158,1390,o),
(158,1390,o),
(126,1390,cs),
(70,1390,ls),
(41,1390,o),
(38,1388,o),
(38,1418,cs),
(38,1470,ls),
(38,1494,o),
(43,1500,o),
(66,1500,cs),
(458,1500,ls),
(481,1500,o),
(488,1495,o),
(488,1470,cs),
(488,1432,ls),
(488,1393,o),
(478,1390,o),
(442,1390,cs),
(396,1390,ls),
(350,1390,o),
(348,1380,o),
(348,1334,cs),
(348,732,ls),
(348,675,o),
(364,663,o),
(387,705,cs),
(844,1356,ls),
(861,1382,o),
(841,1390,o),
(816,1390,cs),
(748,1390,ls),
(712,1390,o),
(718,1398,o),
(718,1432,cs),
(718,1464,ls),
(718,1497,o),
(729,1500,o),
(760,1500,cs),
(1112,1500,ls),
(1144,1500,o),
(1148,1493,o),
(1148,1460,cs),
(1148,1434,ls),
(1148,1397,o),
(1144,1390,o),
(1108,1390,cs),
(1050,1390,ls),
(1001,1390,o),
(1002,1382,o),
(984,1356,cs),
(716,966,ls),
(698,941,o),
(709,905,o),
(723,880,cs),
(1103,146,ls),
(1118,119,o),
(1133,110,o),
(1179,110,cs),
(1213,110,ls),
(1246,110,o),
(1253,105,o),
(1253,70,cs),
(1253,34,ls),
(1253,0,o),
(1253,0,o),
(1219,0,cs),
(812,0,ls),
(783,0,o),
(778,7,o),
(778,34,cs),
(778,66,ls),
(778,102,o),
(771,110,o),
(806,110,cs),
(819,110,ls),
(866,110,o),
(892,129,o),
(879,150,cs),
(596,720,ls),
(579,747,o),
(552,757,o),
(531,726,cs),
(372,490,ls),
(360,463,o),
(348,439,o),
(348,394,cs),
(348,150,ls),
(348,115,o),
(354,110,o),
(390,110,cs),
(452,110,ls),
(484,110,o),
(488,102,o),
(488,72,cs),
(488,40,ls),
(488,6,o),
(483,0,o),
(450,0,cs),
(72,0,ls),
(42,0,o),
(38,7,o),
(38,38,cs)
);
}
);
vertWidth = 0;
width = 1253;
},
{
anchors = (
{
name = "Anchor-0";
pos = (856,1500);
},
{
name = "Anchor-1";
pos = (730,0);
},
{
name = "Anchor-2";
pos = (730,0);
}
);
layerId = "E1447247-EC0C-4B84-932A-C76B64125023";
shapes = (
{
closed = 1;
nodes = (
(10,224,ls),
(10,262,o),
(15,270,o),
(52,270,cs),
(78,270,ls),
(126,270,o),
(130,278,o),
(130,324,cs),
(130,1194,ls),
(130,1229,o),
(118,1230,o),
(83,1230,cs),
(50,1230,ls),
(11,1230,o),
(10,1242,o),
(10,1281,cs),
(10,1454,ls),
(10,1495,o),
(24,1500,o),
(62,1500,cs),
(690,1500,ls),
(726,1500,o),
(740,1495,o),
(740,1456,cs),
(740,1290,ls),
(740,1241,o),
(736,1230,o),
(688,1230,cs),
(648,1230,ls),
(608,1230,o),
(600,1222,o),
(600,1180,cs),
(600,942,ls),
(600,870,o),
(634.438,865.518,o),
(652,896,cs),
(846,1198,ls),
(861.787,1225.4,o),
(862,1230,o),
(830,1230,cs),
(823,1230,ls),
(771,1230,o),
(770,1232,o),
(770,1284,cs),
(770,1458,ls),
(770,1490,o),
(775,1500,o),
(806,1500,cs),
(1408,1500,ls),
(1439,1500,o),
(1440,1481,o),
(1440,1450,cs),
(1440,1287,ls),
(1440,1242,o),
(1439,1230,o),
(1394,1230,cs),
(1334,1230,ls),
(1277,1230,o),
(1274.968,1221.108,o),
(1258,1190,cs),
(1122,989,ls),
(1098.955,946.752,o),
(1090.524,930.104,o),
(1107,880,cs),
(1346,314,ls),
(1373,276,o),
(1379,270,o),
(1446,270,cs),
(1460,270,ls),
(1490,270,o),
(1500,263,o),
(1500,231,cs),
(1500,40,ls),
(1500,5,o),
(1484,0,o),
(1448,0,cs),
(802,0,ls),
(765,0,o),
(760,8,o),
(760,46,cs),
(760,223,ls),
(760,266,o),
(769,270,o),
(808,270,cs),
(812,270,ls),
(866,270,o),
(860.381,293.754,o),
(860,321,cs),
(764,580,ls),
(751.44,613.885,o),
(728.117,613.92,o),
(704,582,cs),
(636,472,ls),
(619.225,444.395,o),
(600,427,o),
(600,376,cs),
(600,310,ls),
(600,273,o),
(608,270,o),
(646,270,cs),
(680,270,ls),
(715,270,o),
(720,262,o),
(720,226,cs),
(720,56,ls),
(720,5,o),
(708,0,o),
(660,0,cs),
(56,0,ls),
(12,0,o),
(10,10,o),
(10,54,cs)
);
}
);
vertWidth = 0;
width = 1510;
}
);
unicode = 75;
},
{
glyphname = L;
kernLeft = kc0_1;
kernRight = kc0_17;
layers = (
{
anchors = (
{
name = "Anchor-0";
pos = (384,1500);
},
{
name = "Anchor-1";
pos = (849,943);
},
{
name = "Anchor-2";
pos = (686,0);
},
{
name = "Anchor-3";
pos = (849,943);
}
);
layerId = "EAF0EFDD-E653-4C10-B7B2-F7A391578EE2";
shapes = (
{
closed = 1;
nodes = (
(106,1390,ls),
(80,1390,o),
(75,1396,o),
(75,1424,cs),
(75,1471,ls),
(75,1496,o),
(82,1500,o),
(108,1500,cs),
(664,1500,ls),
(696,1500,o),
(705,1498,o),
(705,1466,cs),
(705,1424,ls),
(705,1395,o),
(697,1390,o),
(670,1390,cs),
(526,1390,ls),
(496,1390,o),
(485,1384,o),
(485,1351,cs),
(485,142,ls),
(485,113,o),
(497,110,o),
(527,110,cs),
(935,110,ls),
(1203,110,o),
(1272,230,o),
(1275,482,cs),
(1275,501,o),
(1277,510,o),
(1296,510,cs),
(1338,510,ls),
(1365,510,o),
(1375,509,o),
(1375,482,cs),
(1375,46,ls),
(1375,9,o),
(1373,0,o),
(1336,0,cs),
(118,0,ls),
(87,0,o),
(75,3,o),
(75,36,cs),
(75,78,ls),
(75,102,o),
(77,110,o),
(100,110,cs),
(248,110,ls),
(286,110,o),
(295,112,o),
(295,150,cs),
(295,1352,ls),
(295,1385,o),
(288,1390,o),
(253,1390,cs)
);
}
);
vertWidth = 0;
width = 1455;
},
{
anchors = (
{
name = "Anchor-0";
pos = (444,1500);
},
{
name = "Anchor-1";
pos = (1019,943);
},
{
name = "Anchor-2";
pos = (786,0);
},
{
name = "Anchor-3";
pos = (1019,943);
}
);
layerId = "8097EFC1-F009-4E0B-8F96-722A50586A5E";
shapes = (
{
closed = 1;
nodes = (
(85,1230,ls),
(55,1230,o),
(50,1236,o),
(50,1268,cs),
(50,1446,ls),
(50,1491,o),
(52,1500,o),
(97,1500,cs),
(951,1500,ls),
(991,1500,o),
(1000,1495,o),
(1000,1452,cs),
(1000,1278,ls),
(1000,1234,o),
(988,1230,o),
(947,1230,cs),
(789,1230,ls),
(750,1230,o),
(740,1229,o),
(740,1190,cs),
(740,326,ls),
(740,279,o),
(742,270,o),
(789,270,cs),
(910,270,ls),
(1133,270,o),
(1258,348,o),
(1269,646,cs),
(1271,687,o),
(1268,690,o),
(1311,690,cs),
(1469,690,ls),
(1502,690,o),
(1510,686,o),
(1510,654,cs),
(1510,52,ls),
(1510,9,o),
(1507,0,o),
(1465,0,cs),
(95,0,ls),
(55,0,o),
(50,6,o),
(50,48,cs),
(50,234,ls),
(50,261,o),
(53,270,o),
(79,270,cs),
(217,270,ls),
(261,270,o),
(270,277,o),
(270,323,cs),
(270,1180,ls),
(270,1221,o),
(267,1230,o),
(227,1230,cs)
);
}
);
vertWidth = 0;
width = 1560;
},
{
anchors = (
{
name = "Anchor-0";
pos = (257,1500);
},
{
name = "Anchor-1";
pos = (742,943);
},
{
name = "Anchor-2";
pos = (639,0);
},
{
name = "Anchor-3";
pos = (742,943);
}
);
layerId = "871B1205-2168-46B7-8FAD-FF3EA4ADCFD7";
shapes = (
{
closed = 1;
nodes = (
(69,1390,ls),
(43,1390,o),
(38,1396,o),
(38,1424,cs),
(38,1471,ls),
(38,1496,o),
(45,1500,o),
(71,1500,cs),
(427,1500,ls),
(459,1500,o),
(468,1498,o),
(468,1466,cs),
(468,1424,ls),
(468,1395,o),
(460,1390,o),
(433,1390,cs),
(389,1390,ls),
(359,1390,o),
(348,1384,o),
(348,1351,cs),
(348,142,ls),
(348,113,o),
(360,110,o),
(390,110,cs),
(558,110,ls),
(726,110,o),
(835,230,o),
(838,482,cs),
(838,501,o),
(840,510,o),
(859,510,cs),
(901,510,ls),
(928,510,o),
(938,509,o),
(938,482,cs),
(938,46,ls),
(938,9,o),
(936,0,o),
(899,0,cs),
(81,0,ls),
(50,0,o),
(38,3,o),
(38,36,cs),
(38,78,ls),
(38,102,o),
(40,110,o),
(63,110,cs),
(111,110,ls),
(149,110,o),
(158,112,o),
(158,150,cs),
(158,1352,ls),
(158,1385,o),
(151,1390,o),
(116,1390,cs)
);
}
);
vertWidth = 0;
width = 976;
},
{
anchors = (
{
name = "Anchor-0";
pos = (304,1500);
},
{
name = "Anchor-1";
pos = (879,943);
},
{
name = "Anchor-2";
pos = (646,0);
},
{
name = "Anchor-3";
pos = (879,943);
}
);
layerId = "E1447247-EC0C-4B84-932A-C76B64125023";
shapes = (
{
closed = 1;
nodes = (
(45,1230,ls),
(15,1230,o),
(10,1236,o),
(10,1268,cs),
(10,1446,ls),
(10,1491,o),
(12,1500,o),
(57,1500,cs),
(711,1500,ls),
(751,1500,o),
(760,1495,o),
(760,1452,cs),
(760,1278,ls),
(760,1234,o),
(748,1230,o),
(707,1230,cs),
(649,1230,ls),
(610,1230,o),
(600,1229,o),
(600,1190,cs),
(600,326,ls),
(600,279,o),
(602,270,o),
(649,270,cs),
(670,270,ls),
(793,270,o),
(818,348,o),
(829,646,cs),
(831,687,o),
(828,690,o),
(871,690,cs),
(1029,690,ls),
(1062,690,o),
(1070,686,o),
(1070,654,cs),
(1070,52,ls),
(1070,9,o),
(1067,0,o),
(1025,0,cs),
(55,0,ls),
(15,0,o),
(10,6,o),
(10,48,cs),
(10,234,ls),
(10,261,o),
(13,270,o),
(39,270,cs),
(77,270,ls),
(121,270,o),
(130,277,o),
(130,323,cs),
(130,1180,ls),
(130,1221,o),
(127,1230,o),
(87,1230,cs)
);
}
);
vertWidth = 0;
width = 1100;
}
);
unicode = 76;
},
{
glyphname = Lslash;
kernLeft = kc0_1;
kernRight = kc0_17;
layers = (
{
layerId = "EAF0EFDD-E653-4C10-B7B2-F7A391578EE2";
shapes = (
{
closed = 1;
nodes = (
(778,1139,ls),
(798,1152,o),
(811,1173,o),
(811,1132,cs),
(811,1083,ls),
(811,1048,o),
(809,1044,o),
(788,1031,cs),
(150,625,ls),
(130,613,o),
(120,594,o),
(120,634,cs),
(120,695,ls),
(120,725,o),
(127,725,o),
(144,736,cs)
);
},
{
ref = L;
}
);
vertWidth = 0;
width = 1455;
},
{
layerId = "8097EFC1-F009-4E0B-8F96-722A50586A5E";
shapes = (
{
closed = 1;
nodes = (
(958,1139,ls),
(979,1149,o),
(991,1153,o),
(991,1112,cs),
(991,943,ls),
(991,908,o),
(990,901,o),
(968,891,cs),
(90,485,ls),
(70,476,o),
(60,474,o),
(60,514,cs),
(60,685,ls),
(60,715,o),
(65,727,o),
(84,736,cs)
);
},
{
ref = L;
}
);
vertWidth = 0;
width = 1560;
},
{
layerId = "871B1205-2168-46B7-8FAD-FF3EA4ADCFD7";
shapes = (
{
closed = 1;
nodes = (
(551,1089,ls),
(571,1102,o),
(584,1123,o),
(584,1082,cs),
(584,1033,ls),
(584,998,o),
(582,994,o),
(561,981,cs),
(73,625,ls),
(53,613,o),
(43,594,o),
(43,634,cs),
(43,695,ls),
(43,725,o),
(50,725,o),
(67,736,cs)
);
},
{
ref = L;
}
);
vertWidth = 0;
width = 976;
},
{
layerId = "E1447247-EC0C-4B84-932A-C76B64125023";
shapes = (
{
closed = 1;
nodes = (
(818,1139,ls),
(839,1149,o),
(851,1153,o),
(851,1112,cs),
(851,943,ls),
(851,908,o),
(850,901,o),
(828,891,cs),
(50,535,ls),
(30,526,o),
(20,524,o),
(20,564,cs),
(20,735,ls),
(20,765,o),
(25,777,o),
(44,786,cs)
);
},
{
ref = L;
}
);
vertWidth = 0;
width = 1100;
}
);
unicode = 321;
},
{
glyphname = M;
kernLeft = kc0_1;
kernRight = kc0_1;
layers = (
{
anchors = (
{
name = "Anchor-0";
pos = (1046,1500);
},
{
name = "Anchor-1";
pos = (1026,0);
},
{
name = "Anchor-2";
pos = (1026,0);
}
);
layerId = "EAF0EFDD-E653-4C10-B7B2-F7A391578EE2";
shapes = (
{
closed = 1;
nodes = (
(164,1390,ls),
(137,1390,o),
(130,1394,o),
(130,1420,cs),
(130,1466,ls),
(130,1498,o),
(143,1500,o),
(172,1500,cs),
(584,1500,ls),
(628,1500,o),
(623,1485,o),
(633,1454,cs),
(1009,318,ls),
(1022,279,o),
(1023,251,o),
(1034,251,cs),
(1043,251,o),
(1045,265,o),
(1056,298,cs),
(1441,1466,ls),
(1450,1493,o),
(1447,1500,o),
(1484,1500,cs),
(1904,1500,ls),
(1933,1500,o),
(1940,1495,o),
(1940,1464,cs),
(1940,1440,ls),
(1940,1397,o),
(1936,1390,o),
(1894,1390,cs),
(1767,1390,ls),
(1730,1390,o),
(1725,1370,o),
(1726,1336,cs),
(1774,152,ls),
(1775,119,o),
(1780,110,o),
(1816,110,cs),
(1962,110,ls),
(2000,110,o),
(2000,110,o),
(2000,72,cs),
(2000,42,ls),
(2000,8,o),
(1997,0,o),
(1964,0,cs),
(1398,0,ls),
(1367,0,o),
(1350,5,o),
(1350,38,cs),
(1350,62,ls),
(1350,101,o),
(1351,110,o),
(1390,110,cs),
(1546,110,ls),
(1581,110,o),
(1586,120,o),
(1585,152,cs),
(1550,1169,ls),
(1548,1221,o),
(1553,1336,o),
(1544,1336,cs),
(1522,1336,o),
(1499,1230,o),
(1480,1172,cs),
(1092,16,ls),
(1084,-8,o),
(1078,-20,o),
(1044,-20,cs),
(998,-20,ls),
(950,-20,o),
(945,0,o),
(934,34,cs),
(528,1228,ls),
(514,1269,o),
(509,1360,o),
(484,1360,cs),
(477,1360,o),
(474,1340,o),
(471,1278,cs),
(426,175,ls),
(424,120,o),
(435,110,o),
(492,110,cs),
(614,110,ls),
(652,110,o),
(660,106,o),
(660,66,cs),
(660,40,ls),
(660,5,o),
(644,0,o),
(608,0,cs),
(114,0,ls),
(77,0,o),
(70,4,o),
(70,40,cs),
(70,68,ls),
(70,105,o),
(76,110,o),
(112,110,cs),
(250,110,ls),
(283,110,o),
(296,125,o),
(297,154,cs),
(354,1350,ls),
(355,1377,o),
(348,1390,o),
(318,1390,cs)
);
}
);
vertWidth = 0;
width = 2070;
},
{
anchors = (
{
name = "Anchor-0";
pos = (1236,1500);
},
{
name = "Anchor-1";
pos = (1135,0);
},
{
name = "Anchor-2";
pos = (1135,0);
}
);
layerId = "8097EFC1-F009-4E0B-8F96-722A50586A5E";
shapes = (
{
closed = 1;
nodes = (
(168,1230,ls),
(121,1230,o),
(120,1229,o),
(120,1277,cs),
(120,1469,ls),
(120,1510,o),
(138,1500,o),
(176,1500,cs),
(906,1500,ls),
(985,1500,o),
(976,1473,o),
(995,1417,cs),
(1186,819,ls),
(1207,755,o),
(1218,683,o),
(1238,683,cs),
(1260,683,o),
(1270,719,o),
(1296,787,cs),
(1547,1459,ls),
(1561,1496,o),
(1562,1500,o),
(1614,1500,cs),
(2240,1500,ls),
(2291,1500,o),
(2310,1512,o),
(2310,1457,cs),
(2310,1281,ls),
(2310,1232,o),
(2312,1230,o),
(2262,1230,cs),
(2140,1230,ls),
(2097,1230,o),
(2099,1228,o),
(2100,1187,cs),
(2130,311,ls),
(2131,276,o),
(2126,270,o),
(2164,270,cs),
(2324,270,ls),
(2357,270,o),
(2360,263,o),
(2360,229,cs),
(2360,55,ls),
(2360,12,o),
(2358,0,o),
(2312,0,cs),
(1536,0,ls),
(1492,0,o),
(1490,8,o),
(1490,53,cs),
(1490,223,ls),
(1490,268,o),
(1502,270,o),
(1544,270,cs),
(1650,270,ls),
(1692,270,o),
(1703,280,o),
(1702,322,cs),
(1690,773,ls),
(1686,912,o),
(1717,1047,o),
(1680,1047,cs),
(1655,1047,o),
(1655,1013,o),
(1624,923,cs),
(1317,21,ls),
(1302,-22,o),
(1295,-30,o),
(1236,-30,cs),
(1056,-30,ls),
(997,-30,o),
(989,-22,o),
(974,21,cs),
(677,887,ls),
(651,962,o),
(632,1097,o),
(606,1097,cs),
(589,1097,o),
(590,1063,o),
(586,973,cs),
(556,341,ls),
(554,293,o),
(549,270,o),
(604,270,cs),
(736,270,ls),
(773,270,o),
(780,263,o),
(780,225,cs),
(780,51,ls),
(780,2,o),
(768,0,o),
(722,0,cs),
(102,0,ls),
(55,0,o),
(50,6,o),
(50,55,cs),
(50,235,ls),
(50,263,o),
(53,270,o),
(80,270,cs),
(238,270,ls),
(298,270,o),
(285,294,o),
(288,347,cs),
(334,1195,ls),
(336,1238,o),
(324,1230,o),
(282,1230,cs)
);
}
);
vertWidth = 0;
width = 2410;
},
{
anchors = (
{
name = "Anchor-0";
pos = (731,1500);
},
{
name = "Anchor-1";
pos = (680,0);
},
{
name = "Anchor-2";
pos = (680,0);
}
);
layerId = "871B1205-2168-46B7-8FAD-FF3EA4ADCFD7";
shapes = (
{
closed = 1;
nodes = (
(129,1390,ls),
(102,1390,o),
(95,1394,o),
(95,1420,cs),
(95,1466,ls),
(95,1498,o),
(108,1500,o),
(137,1500,cs),
(469,1500,ls),
(513,1500,o),
(508,1485,o),
(518,1454,cs),
(694,478,ls),
(704,439,o),
(702,411,o),
(713,411,cs),
(722,411,o),
(723,433,o),
(731,468,cs),
(956,1466,ls),
(965,1493,o),
(962,1500,o),
(999,1500,cs),
(1309,1500,ls),
(1338,1500,o),
(1345,1495,o),
(1345,1464,cs),
(1345,1440,ls),
(1345,1397,o),
(1341,1390,o),
(1299,1390,cs),
(1272,1390,ls),
(1235,1390,o),
(1230,1370,o),
(1231,1336,cs),
(1279,152,ls),
(1280,119,o),
(1285,110,o),
(1321,110,cs),
(1367,110,ls),
(1405,110,o),
(1405,110,o),
(1405,72,cs),
(1405,42,ls),
(1405,8,o),
(1402,0,o),
(1369,0,cs),
(998,0,ls),
(967,0,o),
(950,5,o),
(950,38,cs),
(950,62,ls),
(950,101,o),
(951,110,o),
(990,110,cs),
(1046,110,ls),
(1081,110,o),
(1086,120,o),
(1085,152,cs),
(1050,1079,ls),
(1048,1131,o),
(1053,1246,o),
(1044,1246,cs),
(1022,1246,o),
(1006,1143,o),
(1000,1082,cs),
(742,16,ls),
(734,-8,o),
(728,-20,o),
(694,-20,cs),
(653,-20,ls),
(605,-20,o),
(600,0,o),
(589,34,cs),
(363,1228,ls),
(359,1271,o),
(374,1360,o),
(349,1360,cs),
(342,1360,o),
(339,1340,o),
(336,1278,cs),
(291,175,ls),
(289,120,o),
(300,110,o),
(357,110,cs),
(379,110,ls),
(417,110,o),
(425,106,o),
(425,66,cs),
(425,40,ls),
(425,5,o),
(409,0,o),
(373,0,cs),
(79,0,ls),
(42,0,o),
(35,4,o),
(35,40,cs),
(35,68,ls),
(35,105,o),
(41,110,o),
(77,110,cs),
(115,110,ls),
(148,110,o),
(161,125,o),
(162,154,cs),
(219,1350,ls),
(220,1377,o),
(213,1390,o),
(183,1390,cs)
);
}
);
vertWidth = 0;
width = 1440;
},
{
anchors = (
{
name = "Anchor-0";
pos = (946,1500);
},
{
name = "Anchor-1";
pos = (845,0);
},
{
name = "Anchor-2";
pos = (845,0);
}
);
layerId = "E1447247-EC0C-4B84-932A-C76B64125023";
shapes = (
{
closed = 1;
nodes = (
(128,1230,ls),
(81,1230,o),
(80,1229,o),
(80,1277,cs),
(80,1469,ls),
(80,1510,o),
(98,1500,o),
(136,1500,cs),
(766,1500,ls),
(845,1500,o),
(836,1473,o),
(855,1417,cs),
(916,989,ls),
(920.466,923.866,o),
(928,853,o),
(948,853,cs),
(970,853,o),
(982.277,886.606,o),
(996,957,cs),
(1087,1459,ls),
(1101,1496,o),
(1102,1500,o),
(1154,1500,cs),
(1700,1500,ls),
(1751,1500,o),
(1770,1512,o),
(1770,1457,cs),
(1770,1281,ls),
(1770,1232,o),
(1772,1230,o),
(1722,1230,cs),
(1700,1230,ls),
(1657,1230,o),
(1659,1228,o),
(1660,1187,cs),
(1690,311,ls),
(1691,276,o),
(1686,270,o),
(1724,270,cs),
(1784,270,ls),
(1817,270,o),
(1820,263,o),
(1820,229,cs),
(1820,55,ls),
(1820,12,o),
(1818,0,o),
(1772,0,cs),
(1196,0,ls),
(1152,0,o),
(1150,8,o),
(1150,53,cs),
(1150,223,ls),
(1150,268,o),
(1162,270,o),
(1204,270,cs),
(1210,270,ls),
(1252,270,o),
(1263,280,o),
(1262,322,cs),
(1250,683,ls),
(1246,822,o),
(1277,957,o),
(1240,957,cs),
(1215,957,o),
(1222.155,925.521,o),
(1204,833,cs),
(1027,21,ls),
(1012,-22,o),
(1005,-30,o),
(946,-30,cs),
(706,-30,ls),
(647,-30,o),
(639,-22,o),
(624,21,cs),
(507,887,ls),
(491.283,963.897,o),
(492,1097,o),
(466,1097,cs),
(449,1097,o),
(450,1063,o),
(446,973,cs),
(416,341,ls),
(414,293,o),
(409,270,o),
(464,270,cs),
(496,270,ls),
(533,270,o),
(540,263,o),
(540,225,cs),
(540,51,ls),
(540,2,o),
(528,0,o),
(482,0,cs),
(62,0,ls),
(15,0,o),
(10,6,o),
(10,55,cs),
(10,235,ls),
(10,263,o),
(13,270,o),
(40,270,cs),
(98,270,ls),
(158,270,o),
(145,294,o),
(148,347,cs),
(194,1195,ls),
(196,1238,o),
(184,1230,o),
(142,1230,cs)
);
}
);
vertWidth = 0;
width = 1830;
}
);
unicode = 77;
},
{
glyphname = N;
kernLeft = kc0_1;
kernRight = kc0_1;
layers = (
{
anchors = (
{
name = "Anchor-0";
pos = (896,1500);
},
{
name = "Anchor-1";
pos = (826,0);
},
{
name = "Anchor-2";
pos = (826,0);
}
);
layerId = "EAF0EFDD-E653-4C10-B7B2-F7A391578EE2";
shapes = (
{
closed = 1;
nodes = (
(114,1390,ls),
(85,1390,o),
(80,1398,o),
(80,1425,cs),
(80,1455,ls),
(80,1490,o),
(81,1500,o),
(116,1500,cs),
(420,1500,ls),
(497,1500,o),
(501,1486,o),
(532,1445,cs),
(1322,408,ls),
(1349,373,o),
(1370,377,o),
(1370,457,cs),
(1370,1343,ls),
(1370,1387,o),
(1360,1390,o),
(1318,1390,cs),
(1220,1390,ls),
(1190,1390,o),
(1150,1387,o),
(1150,1421,cs),
(1150,1443,ls),
(1150,1483,o),
(1157,1500,o),
(1198,1500,cs),
(1660,1500,ls),
(1685,1500,o),
(1710,1500,o),
(1710,1471,cs),
(1710,1434,ls),
(1710,1400,o),
(1708,1390,o),
(1674,1390,cs),
(1548,1390,ls),
(1506,1390,o),
(1500,1383,o),
(1500,1339,cs),
(1500,25,ls),
(1500,1,o),
(1499,-20,o),
(1472,-20,cs),
(1466,-20,ls),
(1435,-20,o),
(1424,-12,o),
(1411,5,cs),
(472,1225,ls),
(443,1263,o),
(420,1266,o),
(420,1167,cs),
(420,153,ls),
(420,116,o),
(425,110,o),
(464,110,cs),
(616,110,ls),
(647,110,o),
(650,98,o),
(650,69,cs),
(650,39,ls),
(650,4,o),
(641,0,o),
(608,0,cs),
(122,0,ls),
(87,0,o),
(80,3,o),
(80,37,cs),
(80,73,ls),
(80,107,o),
(95,110,o),
(126,110,cs),
(235,110,ls),
(282,110,o),
(290,116,o),
(290,161,cs),
(290,1341,ls),
(290,1387,o),
(281,1390,o),
(234,1390,cs)
);
}
);
vertWidth = 0;
width = 1750;
},
{
anchors = (
{
name = "Anchor-0";
pos = (946,1500);
},
{
name = "Anchor-1";
pos = (906,0);
},
{
name = "Anchor-2";
pos = (906,0);
}
);
layerId = "8097EFC1-F009-4E0B-8F96-722A50586A5E";
shapes = (
{
closed = 1;
nodes = (
(95,1230,ls),
(60,1230,o),
(50,1233,o),
(50,1267,cs),
(50,1436,ls),
(50,1494,o),
(59,1500,o),
(115,1500,cs),
(587,1500,ls),
(660,1500,o),
(685,1495,o),
(718,1459,cs),
(1350,779,ls),
(1382,745,o),
(1400,738,o),
(1400,827,cs),
(1400,1191,ls),
(1400,1220,o),
(1397,1230,o),
(1369,1230,cs),
(1225,1230,ls),
(1181,1230,o),
(1180,1241,o),
(1180,1285,cs),
(1180,1449,ls),
(1180,1497,o),
(1194,1500,o),
(1239,1500,cs),
(1843,1500,ls),
(1870,1500,o),
(1880,1494,o),
(1880,1465,cs),
(1880,1293,ls),
(1880,1234,o),
(1871,1230,o),
(1811,1230,cs),
(1715,1230,ls),
(1678,1230,o),
(1670,1217,o),
(1670,1181,cs),
(1670,10,ls),
(1670,-27,o),
(1661,-30,o),
(1623,-30,cs),
(1480,-30,ls),
(1420,-30,o),
(1406,-13,o),
(1379,17,cs),
(579,923,ls),
(545,962,o),
(530,954,o),
(530,861,cs),
(530,325,ls),
(530,278,o),
(535,270,o),
(581,270,cs),
(725,270,ls),
(753,270,o),
(760,262,o),
(760,232,cs),
(760,50,ls),
(760,1,o),
(733,0,o),
(689,0,cs),
(117,0,ls),
(59,0,o),
(50,5,o),
(50,65,cs),
(50,219,ls),
(50,269,o),
(61,270,o),
(111,270,cs),
(209,270,ls),
(255,270,o),
(260,279,o),
(260,326,cs),
(260,1179,ls),
(260,1230,o),
(260,1230,o),
(209,1230,cs)
);
}
);
vertWidth = 0;
width = 1910;
},
{
anchors = (
{
name = "Anchor-0";
pos = (566,1500);
},
{
name = "Anchor-1";
pos = (556,0);
},
{
name = "Anchor-2";
pos = (556,0);
}
);
layerId = "871B1205-2168-46B7-8FAD-FF3EA4ADCFD7";
shapes = (
{
closed = 1;
nodes = (
(74,1390,ls),
(45,1390,o),
(40,1398,o),
(40,1425,cs),
(40,1455,ls),
(40,1490,o),
(41,1500,o),
(76,1500,cs),
(260,1500,ls),
(337,1500,o),
(331,1486,o),
(362,1445,cs),
(792,368,ls),
(808,329,o),
(830,317,o),
(830,397,cs),
(830,1343,ls),
(830,1387,o),
(820,1390,o),
(778,1390,cs),
(780,1390,ls),
(750,1390,o),
(710,1387,o),
(710,1421,cs),
(710,1443,ls),
(710,1483,o),
(717,1500,o),
(758,1500,cs),
(1020,1500,ls),
(1045,1500,o),
(1070,1500,o),
(1070,1471,cs),
(1070,1434,ls),
(1070,1400,o),
(1068,1390,o),
(1054,1390,cs),
(1008,1390,ls),
(966,1390,o),
(960,1383,o),
(960,1339,cs),
(960,25,ls),
(960,1,o),
(959,-20,o),
(932,-20,cs),
(806,-20,ls),
(775,-20,o),
(764,-12,o),
(751,5,cs),
(332,1075,ls),
(315,1120,o),
(280,1116,o),
(280,1017,cs),
(280,153,ls),
(280,116,o),
(285,110,o),
(324,110,cs),
(376,110,ls),
(407,110,o),
(410,98,o),
(410,69,cs),
(410,39,ls),
(410,4,o),
(401,0,o),
(368,0,cs),
(82,0,ls),
(47,0,o),
(40,3,o),
(40,37,cs),
(40,73,ls),
(40,107,o),
(55,110,o),
(86,110,cs),
(95,110,ls),
(142,110,o),
(150,116,o),
(150,161,cs),
(150,1341,ls),
(150,1387,o),
(141,1390,o),
(94,1390,cs)
);
}
);
vertWidth = 0;
width = 1090;
},
{
anchors = (
{
name = "Anchor-0";
pos = (806,1500);
},
{
name = "Anchor-1";
pos = (606,0);
},
{
name = "Anchor-2";
pos = (606,0);
}
);
layerId = "E1447247-EC0C-4B84-932A-C76B64125023";
shapes = (
{
closed = 1;
nodes = (
(55,1230,ls),
(20,1230,o),
(10,1233,o),
(10,1267,cs),
(10,1436,ls),
(10,1494,o),
(19,1500,o),
(75,1500,cs),
(457,1500,ls),
(530,1500,o),
(545,1495,o),
(578,1459,cs),
(820,899,ls),
(834.781,858.687,o),
(860,838,o),
(860,927,cs),
(860,1191,ls),
(860,1220,o),
(857,1230,o),
(829,1230,cs),
(785,1230,ls),
(741,1230,o),
(740,1241,o),
(740,1285,cs),
(740,1449,ls),
(740,1497,o),
(754,1500,o),
(799,1500,cs),
(1203,1500,ls),
(1230,1500,o),
(1240,1494,o),
(1240,1465,cs),
(1240,1293,ls),
(1240,1234,o),
(1231,1230,o),
(1191,1230,cs),
(1175,1230,ls),
(1138,1230,o),
(1130,1217,o),
(1130,1181,cs),
(1130,10,ls),
(1130,-27,o),
(1121,-30,o),
(1083,-30,cs),
(790,-30,ls),
(730,-30,o),
(716,-13,o),
(689,17,cs),
(439,693,ls),
(405,732,o),
(390,724,o),
(390,631,cs),
(390,325,ls),
(390,278,o),
(395,270,o),
(441,270,cs),
(485,270,ls),
(513,270,o),
(520,262,o),
(520,232,cs),
(520,50,ls),
(520,1,o),
(493,0,o),
(449,0,cs),
(77,0,ls),
(19,0,o),
(10,5,o),
(10,65,cs),
(10,219,ls),
(10,269,o),
(21,270,o),
(71,270,cs),
(69,270,ls),
(115,270,o),
(120,279,o),
(120,326,cs),
(120,1179,ls),
(120,1230,o),
(120,1230,o),
(69,1230,cs)
);
}
);
vertWidth = 0;
width = 1250;
}
);
unicode = 78;
},
{
glyphname = Eng;
layers = (
{
layerId = "EAF0EFDD-E653-4C10-B7B2-F7A391578EE2";
shapes = (
{
closed = 1;
nodes = (
(97,1390,ls),
(80,1390,o),
(76,1397,o),
(76,1415,cs),
(76,1477,ls),
(76,1493,o),
(80,1500,o),
(95,1500,cs),
(455,1500,ls),
(477,1500,o),
(486,1483,o),
(486,1465,cs),
(486,1228,ls),
(486,1176,o),
(493,1189,o),
(506,1211,cs),
(570,1318,o),
(749,1520,o),
(1012,1520,cs),
(1316,1520,o),
(1476,1372,o),
(1476,1098,cs),
(1476,22,ls),
(1476,-278,o),
(1434,-520,o),
(1152,-520,cs),
(974,-520,o),
(870,-404,o),
(870,-280,cs),
(870,-204,o),
(918,-138,o),
(988,-138,cs),
(1056,-138,o),
(1104,-184,o),
(1104,-250,cs),
(1104,-320,o),
(1066,-318,o),
(1066,-358,cs),
(1066,-384,o),
(1078,-432,o),
(1152,-432,cs),
(1374,-432,o),
(1286,-20,o),
(1286,208,cs),
(1286,1076,ls),
(1286,1284,o),
(1148,1406,o),
(966,1406,cs),
(720,1406,o),
(486,1142,o),
(486,936,cs),
(486,151,ls),
(486,120,o),
(497,110,o),
(528,110,cs),
(691,110,ls),
(718,110,o),
(726,105,o),
(726,76,cs),
(726,30,ls),
(726,6,o),
(721,0,o),
(698,0,cs),
(104,0,ls),
(80,0,o),
(76,7,o),
(76,32,cs),
(76,78,ls),
(76,106,o),
(86,110,o),
(112,110,cs),
(262,110,ls),
(288,110,o),
(296,113,o),
(296,138,cs),
(296,1373,ls),
(296,1388,o),
(288,1390,o),
(272,1390,cs)
);
}
);
vertWidth = 2310;
width = 1636;
},
{
layerId = "8097EFC1-F009-4E0B-8F96-722A50586A5E";
shapes = (
{
closed = 1;
nodes = (
(105,1230,ls),
(60,1230,o),
(55,1237,o),
(55,1281,cs),
(55,1447,ls),
(55,1493,o),
(80,1500,o),
(121,1500,cs),
(643,1500,ls),
(674,1500,o),
(699,1492,o),
(699,1450,cs),
(699,1414,ls),
(699,1365,o),
(715,1357,o),
(750,1382,cs),
(892,1484,o),
(996,1540,o),
(1245,1540,cs),
(1539,1540,o),
(1749,1372,o),
(1749,1128,cs),
(1749,-64,ls),
(1749,-386,o),
(1464,-520,o),
(1164,-520,cs),
(922,-520,o),
(728,-422,o),
(728,-228,cs),
(728,-108,o),
(828,-16,o),
(952,-16,cs),
(1096,-16,o),
(1192,-102,o),
(1192,-192,cs),
(1192,-306,o),
(1112,-302,o),
(1112,-324,cs),
(1112,-340,o),
(1124,-350,o),
(1160,-350,cs),
(1360,-350,o),
(1279,-134,o),
(1279,140,cs),
(1279,1126,ls),
(1279,1234,o),
(1211,1306,o),
(1099,1306,cs),
(923,1306,o),
(739,1232,o),
(739,1026,cs),
(739,309,ls),
(739,279,o),
(743,270,o),
(775,270,cs),
(899,270,ls),
(930,270,o),
(939,266,o),
(939,233,cs),
(939,37,ls),
(939,2,o),
(921,0,o),
(889,0,cs),
(87,0,ls),
(56,0,o),
(55,9,o),
(55,41,cs),
(55,228,ls),
(55,264,o),
(60,270,o),
(95,270,cs),
(219,270,ls),
(260,270,o),
(269,271,o),
(269,312,cs),
(269,1184,ls),
(269,1225,o),
(263,1230,o),
(223,1230,cs)
);
}
);
vertWidth = 2310;
width = 1889;
},
{
layerId = "871B1205-2168-46B7-8FAD-FF3EA4ADCFD7";
shapes = (
{
closed = 1;
nodes = (
(59,1390,ls),
(42,1390,o),
(38,1397,o),
(38,1415,cs),
(38,1477,ls),
(38,1493,o),
(42,1500,o),
(57,1500,cs),
(317,1500,ls),
(339,1500,o),
(348,1483,o),
(348,1465,cs),
(348,1328,ls),
(348,1276,o),
(357,1288,o),
(368,1311,cs),
(420,1418,o),
(501,1520,o),
(674,1520,cs),
(928,1520,o),
(1038,1372,o),
(1038,1098,cs),
(1038,22,ls),
(1038,-278,o),
(1046,-520,o),
(764,-520,cs),
(586,-520,o),
(482,-404,o),
(482,-280,cs),
(482,-204,o),
(530,-138,o),
(600,-138,cs),
(668,-138,o),
(716,-184,o),
(716,-250,cs),
(716,-320,o),
(678,-318,o),
(678,-358,cs),
(678,-384,o),
(690,-432,o),
(764,-432,cs),
(986,-432,o),
(848,-20,o),
(848,208,cs),
(848,1056,ls),
(848,1264,o),
(810,1386,o),
(628,1386,cs),
(432,1386,o),
(348,1122,o),
(348,916,cs),
(348,151,ls),
(348,120,o),
(359,110,o),
(390,110,cs),
(453,110,ls),
(480,110,o),
(488,105,o),
(488,76,cs),
(488,30,ls),
(488,6,o),
(483,0,o),
(460,0,cs),
(66,0,ls),
(42,0,o),
(38,7,o),
(38,32,cs),
(38,78,ls),
(38,106,o),
(48,110,o),
(74,110,cs),
(124,110,ls),
(150,110,o),
(158,113,o),
(158,138,cs),
(158,1373,ls),
(158,1388,o),
(150,1390,o),
(134,1390,cs)
);
}
);
vertWidth = 2310;
width = 1135;
},
{
layerId = "E1447247-EC0C-4B84-932A-C76B64125023";
shapes = (
{
closed = 1;
nodes = (
(60,1230,ls),
(15,1230,o),
(10,1237,o),
(10,1281,cs),
(10,1447,ls),
(10,1493,o),
(35,1500,o),
(76,1500,cs),
(498,1500,ls),
(529,1500,o),
(554,1492,o),
(554,1450,cs),
(554,1414,ls),
(554,1365,o),
(582.659,1345.246,o),
(605,1382,cs),
(667,1484,o),
(761,1540,o),
(900,1540,cs),
(1194,1540,o),
(1304,1372,o),
(1304,1128,cs),
(1304,-64,ls),
(1304,-386,o),
(1019,-520,o),
(719,-520,cs),
(477,-520,o),
(283,-422,o),
(283,-228,cs),
(283,-108,o),
(383,-16,o),
(507,-16,cs),
(651,-16,o),
(747,-102,o),
(747,-192,cs),
(747,-306,o),
(667,-302,o),
(667,-324,cs),
(667,-340,o),
(679,-350,o),
(715,-350,cs),
(915,-350,o),
(834,-134,o),
(834,140,cs),
(834,1126,ls),
(834,1234,o),
(796,1306,o),
(734,1306,cs),
(628,1306,o),
(594,1232,o),
(594,1026,cs),
(594,309,ls),
(594,279,o),
(598,270,o),
(630,270,cs),
(654,270,ls),
(685,270,o),
(694,266,o),
(694,233,cs),
(694,37,ls),
(694,2,o),
(676,0,o),
(644,0,cs),
(42,0,ls),
(11,0,o),
(10,9,o),
(10,41,cs),
(10,228,ls),
(10,264,o),
(15,270,o),
(50,270,cs),
(74,270,ls),
(115,270,o),
(124,271,o),
(124,312,cs),
(124,1184,ls),
(124,1225,o),
(118,1230,o),
(78,1230,cs)
);
}
);
vertWidth = 2310;
width = 1344;
}
);
unicode = 330;
},
{
glyphname = O;
kernLeft = kc0_3;
kernRight = kc0_3;
layers = (
{
anchors = (
{
name = "Anchor-0";
pos = (826,1500);
},
{
name = "Anchor-1";
pos = (826,0);
},
{
name = "Anchor-2";
pos = (826,0);
}
);
layerId = "EAF0EFDD-E653-4C10-B7B2-F7A391578EE2";
shapes = (
{
closed = 1;
nodes = (
(110,1176,o),
(384,1520,o),
(830,1520,cs),
(1276,1520,o),
(1550,1176,o),
(1550,750,cs),
(1550,324,o),
(1256,-20,o),
(830,-20,cs),
(384,-20,o),
(110,324,o),
(110,750,cs)
);
},
{
closed = 1;
nodes = (
(340,386,o),
(482,80,o),
(830,80,cs),
(1198,80,o),
(1320,386,o),
(1320,750,cs),
(1320,1114,o),
(1178,1420,o),
(830,1420,cs),
(482,1420,o),
(340,1114,o),
(340,750,cs)
);
}
);
vertWidth = 0;
width = 1660;
},
{
anchors = (
{
name = "Anchor-0";
pos = (906,1500);
},
{
name = "Anchor-1";
pos = (906,0);
},
{
name = "Anchor-2";
pos = (906,0);
}
);
layerId = "8097EFC1-F009-4E0B-8F96-722A50586A5E";
shapes = (
{
closed = 1;
nodes = (
(70,1216,o),
(384,1540,o),
(910,1540,cs),
(1436,1540,o),
(1750,1216,o),
(1750,750,cs),
(1750,284,o),
(1416,-40,o),
(910,-40,cs),
(384,-40,o),
(70,284,o),
(70,750,cs)
);
},
{
closed = 1;
nodes = (
(590,426,o),
(682,220,o),
(910,220,cs),
(1158,220,o),
(1230,426,o),
(1230,750,cs),
(1230,1074,o),
(1138,1280,o),
(910,1280,cs),
(682,1280,o),
(590,1074,o),
(590,750,cs)
);
}
);
vertWidth = 0;
width = 1820;
},
{
anchors = (
{
name = "Anchor-0";
pos = (526,1500);
},
{
name = "Anchor-1";
pos = (526,0);
},
{
name = "Anchor-2";
pos = (526,0);
}
);
layerId = "871B1205-2168-46B7-8FAD-FF3EA4ADCFD7";
shapes = (
{
closed = 1;
nodes = (
(55,1276,o),
(199,1520,o),
(525,1520,cs),
(851,1520,o),
(995,1276,o),
(995,750,cs),
(995,224,o),
(831,-20,o),
(525,-20,cs),
(199,-20,o),
(55,224,o),
(55,750,cs)
);
},
{
closed = 1;
nodes = (
(260,286,o),
(327,80,o),
(525,80,cs),
(743,80,o),
(790,286,o),
(790,750,cs),
(790,1214,o),
(723,1420,o),
(525,1420,cs),
(327,1420,o),
(260,1214,o),
(260,750,cs)
);
}
);
vertWidth = 0;
width = 1050;
},
{
anchors = (
{
name = "Anchor-0";
pos = (616,1500);
},
{
name = "Anchor-1";
pos = (616,0);
},
{
name = "Anchor-2";
pos = (616,0);
}
);
layerId = "E1447247-EC0C-4B84-932A-C76B64125023";
shapes = (
{
closed = 1;
nodes = (
(30,1316,o),
(164,1540,o),
(620,1540,cs),
(1076,1540,o),
(1210,1316,o),
(1210,750,cs),
(1210,184,o),
(1056,-40,o),
(620,-40,cs),
(164,-40,o),
(30,184,o),
(30,750,cs)
);
},
{
closed = 1;
nodes = (
(515,326,o),
(542,220,o),
(620,220,cs),
(718,220,o),
(725,326,o),
(725,750,cs),
(725,1174,o),
(698,1280,o),
(620,1280,cs),
(542,1280,o),
(515,1174,o),
(515,750,cs)
);
}
);
vertWidth = 0;
width = 1240;
}
);
unicode = 79;
},
{
glyphname = Oslash;
kernLeft = kc0_3;
kernRight = kc0_3;
layers = (
{
layerId = "EAF0EFDD-E653-4C10-B7B2-F7A391578EE2";
shapes = (
{
closed = 1;
nodes = (
(1231,1660,ls),
(1269,1660,o),
(1270,1655,o),
(1260,1630,cs),
(543,-168,ls),
(532,-196,o),
(522,-200,o),
(481,-200,cs),
(449,-200,ls),
(400,-200,o),
(397,-189,o),
(409,-158,cs),
(1130,1626,ls),
(1141,1653,o),
(1146,1660,o),
(1186,1660,cs)
);
},
{
ref = O;
}
);
vertWidth = 0;
width = 1660;
},
{
layerId = "8097EFC1-F009-4E0B-8F96-722A50586A5E";
shapes = (
{
closed = 1;
nodes = (
(1273,1660,ls),
(1340,1660,o),
(1351,1657,o),
(1334,1605,cs),
(745,-154,ls),
(732,-194,o),
(724,-200,o),
(669,-200,cs),
(559,-200,ls),
(488,-200,o),
(472,-199,o),
(490,-146,cs),
(1092,1624,ls),
(1103,1655,o),
(1111,1660,o),
(1155,1660,cs)
);
},
{
ref = O;
}
);
vertWidth = 0;
width = 1820;
},
{
layerId = "871B1205-2168-46B7-8FAD-FF3EA4ADCFD7";
shapes = (
{
closed = 1;
nodes = (
(916,1660,ls),
(916,1660,o),
(955,1655,o),
(945,1630,cs),
(228,-168,ls),
(217,-196,o),
(207,-200,o),
(166,-200,cs),
(134,-200,ls),
(85,-200,o),
(82,-189,o),
(94,-158,cs),
(815,1626,ls),
(826,1653,o),
(831,1660,o),
(871,1660,cs)
);
},
{
ref = O;
}
);
vertWidth = 0;
width = 1050;
},
{
layerId = "E1447247-EC0C-4B84-932A-C76B64125023";
shapes = (
{
closed = 1;
nodes = (
(983,1660,ls),
(1050,1660,o),
(1061,1657,o),
(1044,1605,cs),
(455,-154,ls),
(442,-194,o),
(434,-200,o),
(379,-200,cs),
(269,-200,ls),
(198,-200,o),
(182,-199,o),
(200,-146,cs),
(802,1624,ls),
(813,1655,o),
(821,1660,o),
(865,1660,cs)
);
},
{
ref = O;
}
);
vertWidth = 0;
width = 1240;
}
);
unicode = 216;
},
{
glyphname = OE;
kernLeft = kc0_3;
layers = (
{
layerId = "EAF0EFDD-E653-4C10-B7B2-F7A391578EE2";
shapes = (
{
closed = 1;
nodes = (
(1050,1390,l),
(830,1390,ls),
(462,1390,o),
(340,1114,o),
(340,750,cs),
(340,386,o),
(482,110,o),
(830,110,cs),
(1050,110,l),
(1050,0,l),
(830,0,ls),
(384,0,o),
(110,324,o),
(110,750,cs),
(110,1176,o),
(404,1500,o),
(830,1500,cs),
(1050,1500,l)
);
},
{
pos = (909,0);
ref = E;
}
);
vertWidth = 0;
width = 2424;
},
{
layerId = "8097EFC1-F009-4E0B-8F96-722A50586A5E";
shapes = (
{
closed = 1;
nodes = (
(1090,1230,l),
(940,1230,ls),
(732,1230,o),
(580,1114,o),
(580,750,cs),
(580,386,o),
(752,270,o),
(940,270,cs),
(1090,270,l),
(1090,0,l),
(870,0,ls),
(274,0,o),
(50,324,o),
(50,750,cs),
(50,1176,o),
(294,1500,o),
(870,1500,cs),
(1090,1500,l)
);
},
{
pos = (949,0);
ref = E;
}
);
vertWidth = 0;
width = 2627;
},
{
layerId = "871B1205-2168-46B7-8FAD-FF3EA4ADCFD7";
shapes = (
{
closed = 1;
nodes = (
(778,1390,l),
(608,1390,ls),
(350,1390,o),
(268,1214,o),
(268,750,cs),
(268,286,o),
(360,110,o),
(608,110,cs),
(778,110,l),
(778,0,l),
(608,0,ls),
(262,0,o),
(38,224,o),
(38,750,cs),
(38,1276,o),
(292,1500,o),
(608,1500,cs),
(778,1500,l)
);
},
{
pos = (567,0);
ref = E;
}
);
vertWidth = 0;
width = 1580;
},
{
layerId = "E1447247-EC0C-4B84-932A-C76B64125023";
shapes = (
{
closed = 1;
nodes = (
(850,1230,l),
(700,1230,ls),
(622,1230,o),
(540,1114,o),
(540,750,cs),
(540,386,o),
(642,270,o),
(700,270,cs),
(850,270,l),
(850,0,l),
(630,0,ls),
(134,0,o),
(10,324,o),
(10,750,cs),
(10,1176,o),
(154,1500,o),
(630,1500,cs),
(850,1500,l)
);
},
{
pos = (608.999,0);
ref = E;
}
);
vertWidth = 0;
width = 1779;
}
);
unicode = 338;
},
{
glyphname = P;
kernLeft = kc0_1;
kernRight = kc0_26;
layers = (
{
anchors = (
{
name = "Anchor-0";
pos = (676,1500);
},
{
name = "Anchor-1";
pos = (392,0);
},
{
name = "Anchor-2";
pos = (392,0);
}
);
layerId = "EAF0EFDD-E653-4C10-B7B2-F7A391578EE2";
shapes = (
{
closed = 1;
nodes = (
(100,1390,ls),
(76,1390,o),
(75,1399,o),
(75,1423,cs),
(75,1464,ls),
(75,1495,o),
(83,1500,o),
(112,1500,cs),
(785,1500,ls),
(1147,1500,o),
(1305,1340,o),
(1305,1080,cs),
(1305,820,o),
(1147,660,o),
(785,660,cs),
(549,660,ls),
(494,660,o),
(485,659,o),
(485,604,cs),
(485,173,ls),
(485,118,o),
(489,110,o),
(543,110,cs),
(673,110,ls),
(704,110,o),
(705,101,o),
(705,70,cs),
(705,48,ls),
(705,8,o),
(703,0,o),
(663,0,cs),
(129,0,ls),
(88,0,o),
(75,2,o),
(75,46,cs),
(75,82,ls),
(75,106,o),
(82,110,o),
(107,110,cs),
(249,110,ls),
(290,110,o),
(295,120,o),
(295,158,cs),
(295,1364,ls),
(295,1387,o),
(287,1390,o),
(263,1390,cs)
);
},
{
closed = 1;
nodes = (
(785,770,ls),
(977,770,o),
(1085,902,o),
(1085,1080,cs),
(1085,1258,o),
(977,1390,o),
(785,1390,cs),
(514,1390,ls),
(488,1390,o),
(485,1378,o),
(485,1351,cs),
(485,814,ls),
(485,772,o),
(493,770,o),
(535,770,cs)
);
}
);
vertWidth = 0;
width = 1380;
},
{
anchors = (
{
name = "Anchor-0";
pos = (746,1500);
},
{
name = "Anchor-1";
pos = (462,0);
},
{
name = "Anchor-2";
pos = (462,0);
}
);
layerId = "8097EFC1-F009-4E0B-8F96-722A50586A5E";
shapes = (
{
closed = 1;
nodes = (
(104,1230,ls),
(58,1230,o),
(50,1232,o),
(50,1278,cs),
(50,1448,ls),
(50,1496,o),
(61,1500,o),
(106,1500,cs),
(880,1500,ls),
(1242,1500,o),
(1560,1380,o),
(1560,1040,cs),
(1560,700,o),
(1242,560,o),
(880,560,cs),
(784,560,ls),
(741,560,o),
(740,551,o),
(740,508,cs),
(740,318,ls),
(740,274,o),
(747,270,o),
(792,270,cs),
(956,270,ls),
(998,270,o),
(1000,262,o),
(1000,220,cs),
(1000,56,ls),
(1000,10,o),
(1000,0,o),
(954,0,cs),
(98,0,ls),
(58,0,o),
(50,4,o),
(50,46,cs),
(50,220,ls),
(50,263,o),
(54,270,o),
(96,270,cs),
(212,270,ls),
(268,270,o),
(270,280,o),
(270,334,cs),
(270,1182,ls),
(270,1229,o),
(261,1230,o),
(214,1230,cs)
);
},
{
closed = 1;
nodes = (
(840,830,ls),
(972,830,o),
(1060,902,o),
(1060,1040,cs),
(1060,1178,o),
(972,1230,o),
(840,1230,cs),
(776,1230,ls),
(741,1230,o),
(740,1221,o),
(740,1186,cs),
(740,874,ls),
(740,836,o),
(745,830,o),
(782,830,cs)
);
}
);
vertWidth = 0;
width = 1600;
},
{
anchors = (
{
name = "Anchor-0";
pos = (509,1500);
},
{
name = "Anchor-1";
pos = (265,0);
},
{
name = "Anchor-2";
pos = (265,0);
}
);
layerId = "871B1205-2168-46B7-8FAD-FF3EA4ADCFD7";
shapes = (
{
closed = 1;
nodes = (
(63,1390,ls),
(39,1390,o),
(38,1399,o),
(38,1423,cs),
(38,1464,ls),
(38,1495,o),
(46,1500,o),
(75,1500,cs),
(548,1500,ls),
(860,1500,o),
(968,1340,o),
(968,1080,cs),
(968,820,o),
(860,660,o),
(548,660,cs),
(412,660,ls),
(357,660,o),
(348,659,o),
(348,604,cs),
(348,173,ls),
(348,118,o),
(352,110,o),
(406,110,cs),
(456,110,ls),
(487,110,o),
(488,101,o),
(488,70,cs),
(488,48,ls),
(488,8,o),
(486,0,o),
(446,0,cs),
(92,0,ls),
(51,0,o),
(38,2,o),
(38,46,cs),
(38,82,ls),
(38,106,o),
(45,110,o),
(70,110,cs),
(112,110,ls),
(153,110,o),
(158,120,o),
(158,158,cs),
(158,1364,ls),
(158,1387,o),
(150,1390,o),
(126,1390,cs)
);
},
{
closed = 1;
nodes = (
(518,770,ls),
(680,770,o),
(748,872,o),
(748,1080,cs),
(748,1288,o),
(680,1390,o),
(518,1390,cs),
(367,1390,ls),
(341,1390,o),
(348,1378,o),
(348,1351,cs),
(348,814,ls),
(348,772,o),
(346,770,o),
(388,770,cs)
);
}
);
vertWidth = 0;
width = 1006;
},
{
anchors = (
{
name = "Anchor-0";
pos = (606,1500);
},
{
name = "Anchor-1";
pos = (322,0);
},
{
name = "Anchor-2";
pos = (322,0);
}
);
layerId = "E1447247-EC0C-4B84-932A-C76B64125023";
shapes = (
{
closed = 1;
nodes = (
(64,1230,ls),
(18,1230,o),
(10,1232,o),
(10,1278,cs),
(10,1448,ls),
(10,1496,o),
(21,1500,o),
(66,1500,cs),
(680,1500,ls),
(1042,1500,o),
(1220,1380,o),
(1220,1040,cs),
(1220,700,o),
(1042,560,o),
(680,560,cs),
(644,560,ls),
(601,560,o),
(600,551,o),
(600,508,cs),
(600,318,ls),
(600,274,o),
(607,270,o),
(652,270,cs),
(716,270,ls),
(758,270,o),
(760,262,o),
(760,220,cs),
(760,56,ls),
(760,10,o),
(760,0,o),
(714,0,cs),
(58,0,ls),
(18,0,o),
(10,4,o),
(10,46,cs),
(10,220,ls),
(10,263,o),
(14,270,o),
(56,270,cs),
(72,270,ls),
(128,270,o),
(130,280,o),
(130,334,cs),
(130,1182,ls),
(130,1229,o),
(121,1230,o),
(74,1230,cs)
);
},
{
closed = 1;
nodes = (
(650,830,ls),
(702,830,o),
(720,902,o),
(720,1040,cs),
(720,1178,o),
(702,1230,o),
(650,1230,cs),
(626,1230,ls),
(591,1230,o),
(600,1221,o),
(600,1186,cs),
(600,874,ls),
(600,836,o),
(595,830,o),
(632,830,cs)
);
}
);
vertWidth = 0;
width = 1230;
}
);
unicode = 80;
},
{
glyphname = Thorn;
kernLeft = kc0_1;
layers = (
{
layerId = "EAF0EFDD-E653-4C10-B7B2-F7A391578EE2";
shapes = (
{
closed = 1;
nodes = (
(785,454,ls),
(977,454,o),
(1085,586,o),
(1085,764,cs),
(1085,942,o),
(977,1074,o),
(785,1074,cs),
(514,1074,ls),
(488,1074,o),
(485,1062,o),
(485,1035,cs),
(485,498,ls),
(485,456,o),
(493,454,o),
(535,454,cs)
);
},
{
closed = 1;
nodes = (
(485,173,ls),
(485,118,o),
(489,110,o),
(543,110,cs),
(673,110,ls),
(704,110,o),
(705,101,o),
(705,70,cs),
(705,48,ls),
(705,8,o),
(703,0,o),
(663,0,cs),
(129,0,ls),
(88,0,o),
(75,2,o),
(75,46,cs),
(75,82,ls),
(75,106,o),
(82,110,o),
(107,110,cs),
(249,110,ls),
(290,110,o),
(295,120,o),
(295,158,cs),
(295,1364,ls),
(295,1387,o),
(287,1390,o),
(263,1390,cs),
(100,1390,ls),
(76,1390,o),
(75,1399,o),
(75,1423,cs),
(75,1464,ls),
(75,1495,o),
(83,1500,o),
(112,1500,cs),
(651,1500,ls),
(692,1500,o),
(705,1498,o),
(705,1454,cs),
(705,1418,ls),
(705,1394,o),
(698,1390,o),
(673,1390,cs),
(531,1390,ls),
(490,1390,o),
(485,1380,o),
(485,1342,cs),
(485,1222,ls),
(485,1190,o),
(491,1184,o),
(522,1184,cs),
(785,1184,ls),
(1147,1184,o),
(1305,1024,o),
(1305,764,cs),
(1305,504,o),
(1147,344,o),
(785,344,cs),
(549,344,ls),
(494,344,o),
(485,343,o),
(485,288,cs)
);
}
);
vertWidth = 0;
width = 1380;
},
{
layerId = "8097EFC1-F009-4E0B-8F96-722A50586A5E";
shapes = (
{
closed = 1;
nodes = (
(865,554,ls),
(997,554,o),
(1085,616,o),
(1085,764,cs),
(1085,912,o),
(997,974,o),
(865,974,cs),
(714,974,ls),
(688,974,o),
(685,962,o),
(685,935,cs),
(685,598,ls),
(685,556,o),
(693,554,o),
(735,554,cs)
);
},
{
closed = 1;
nodes = (
(685,273,ls),
(685,218,o),
(689,210,o),
(743,210,cs),
(873,210,ls),
(904,210,o),
(905,201,o),
(905,170,cs),
(905,48,ls),
(905,8,o),
(903,0,o),
(863,0,cs),
(129,0,ls),
(88,0,o),
(75,2,o),
(75,46,cs),
(75,182,ls),
(75,206,o),
(82,210,o),
(107,210,cs),
(249,210,ls),
(290,210,o),
(295,220,o),
(295,258,cs),
(295,1264,ls),
(295,1287,o),
(287,1290,o),
(263,1290,cs),
(100,1290,ls),
(76,1290,o),
(75,1299,o),
(75,1323,cs),
(75,1464,ls),
(75,1495,o),
(83,1500,o),
(112,1500,cs),
(851,1500,ls),
(892,1500,o),
(905,1498,o),
(905,1454,cs),
(905,1318,ls),
(905,1294,o),
(898,1290,o),
(873,1290,cs),
(731,1290,ls),
(690,1290,o),
(685,1280,o),
(685,1242,cs),
(685,1222,ls),
(685,1190,o),
(691,1184,o),
(722,1184,cs),
(885,1184,ls),
(1307,1184,o),
(1505,1054,o),
(1505,764,cs),
(1505,474,o),
(1307,344,o),
(885,344,cs),
(749,344,ls),
(694,344,o),
(685,343,o),
(685,288,cs)
);
}
);
vertWidth = 0;
width = 1580;
},
{
layerId = "871B1205-2168-46B7-8FAD-FF3EA4ADCFD7";
shapes = (
{
closed = 1;
nodes = (
(508,454,ls),
(660,454,o),
(748,526,o),
(748,764,cs),
(748,1002,o),
(660,1074,o),
(508,1074,cs),
(377,1074,ls),
(351,1074,o),
(348,1062,o),
(348,1035,cs),
(348,498,ls),
(348,456,o),
(356,454,o),
(398,454,cs)
);
},
{
closed = 1;
nodes = (
(348,173,ls),
(348,118,o),
(352,110,o),
(406,110,cs),
(436,110,ls),
(467,110,o),
(468,101,o),
(468,70,cs),
(468,48,ls),
(468,8,o),
(466,0,o),
(426,0,cs),
(92,0,ls),
(51,0,o),
(38,2,o),
(38,46,cs),
(38,82,ls),
(38,106,o),
(45,110,o),
(70,110,cs),
(112,110,ls),
(153,110,o),
(158,120,o),
(158,158,cs),
(158,1364,ls),
(158,1387,o),
(150,1390,o),
(126,1390,cs),
(63,1390,ls),
(39,1390,o),
(38,1399,o),
(38,1423,cs),
(38,1464,ls),
(38,1495,o),
(46,1500,o),
(75,1500,cs),
(414,1500,ls),
(455,1500,o),
(468,1498,o),
(468,1454,cs),
(468,1418,ls),
(468,1394,o),
(461,1390,o),
(436,1390,cs),
(394,1390,ls),
(353,1390,o),
(348,1380,o),
(348,1342,cs),
(348,1222,ls),
(348,1190,o),
(354,1184,o),
(385,1184,cs),
(528,1184,ls),
(870,1184,o),
(968,1024,o),
(968,764,cs),
(968,504,o),
(870,344,o),
(528,344,cs),
(412,344,ls),
(357,344,o),
(348,343,o),
(348,288,cs)
);
}
);
vertWidth = 0;
width = 1006;
},
{
layerId = "E1447247-EC0C-4B84-932A-C76B64125023";
shapes = (
{
closed = 1;
nodes = (
(560,554,ls),
(612,554,o),
(640,616,o),
(640,764,cs),
(640,912,o),
(607,974,o),
(555,974,cs),
(549,974,ls),
(523,974,o),
(520,962,o),
(520,935,cs),
(520,598,ls),
(520,556,o),
(528,554,o),
(550,554,cs)
);
},
{
closed = 1;
nodes = (
(520,273,ls),
(520,218,o),
(524,210,o),
(578,210,cs),
(608,210,ls),
(639,210,o),
(640,201,o),
(640,170,cs),
(640,48,ls),
(640,8,o),
(638,0,o),
(598,0,cs),
(64,0,ls),
(23,0,o),
(10,2,o),
(10,46,cs),
(10,182,ls),
(10,206,o),
(17,210,o),
(42,210,cs),
(84,210,ls),
(125,210,o),
(130,220,o),
(130,258,cs),
(130,1264,ls),
(130,1287,o),
(122,1290,o),
(98,1290,cs),
(35,1290,ls),
(11,1290,o),
(10,1299,o),
(10,1323,cs),
(10,1464,ls),
(10,1495,o),
(18,1500,o),
(47,1500,cs),
(586,1500,ls),
(627,1500,o),
(640,1498,o),
(640,1454,cs),
(640,1318,ls),
(640,1294,o),
(633,1290,o),
(608,1290,cs),
(566,1290,ls),
(525,1290,o),
(520,1280,o),
(520,1242,cs),
(520,1222,ls),
(520,1190,o),
(526,1184,o),
(557,1184,cs),
(620,1184,ls),
(942,1184,o),
(1090,1054,o),
(1090,764,cs),
(1090,474,o),
(942,344,o),
(620,344,cs),
(584,344,ls),
(529,344,o),
(520,343,o),
(520,288,cs)
);
}
);
vertWidth = 0;
width = 1100;
}
);
unicode = 222;
},
{
glyphname = Q;
kernLeft = kc0_3;
kernRight = kc0_3;
layers = (
{
anchors = (
{
name = "Anchor-0";
pos = (826,1500);
}
);
layerId = "EAF0EFDD-E653-4C10-B7B2-F7A391578EE2";
shapes = (
{
closed = 1;
nodes = (
(110,1176,o),
(384,1520,o),
(830,1520,cs),
(1276,1520,o),
(1550,1176,o),
(1550,750,cs),
(1550,477,o),
(1429,236,o),
(1229,100,cs),
(1195,77,o),
(1189,77,o),
(1211,40,cs),
(1251,-28,o),
(1291,-74,o),
(1336,-74,cs),
(1451,-74,o),
(1502,34,o),
(1509,139,cs),
(1510,157,o),
(1515,164,o),
(1536,164,cs),
(1572,164,ls),
(1603,164,o),
(1609,160,o),
(1609,131,cs),
(1609,-82,o),
(1499,-250,o),
(1320,-250,cs),
(1187,-250,o),
(1125,-144,o),
(1067,-20,cs),
(1053,11,o),
(1043,9,o),
(1000,-1,cs),
(946,-14,o),
(889,-20,o),
(830,-20,cs),
(384,-20,o),
(110,324,o),
(110,750,cs)
);
},
{
closed = 1;
nodes = (
(687,94,o),
(754,80,o),
(830,80,cs),
(879,80,o),
(924,86,o),
(965,96,cs),
(1011,108,o),
(1016,117,o),
(1001,151,cs),
(939,291,o),
(878,420,o),
(728,420,cs),
(582,420,o),
(520,259,o),
(585,158,cs),
(597,140,o),
(610,131,o),
(630,121,cs)
);
},
{
closed = 1;
nodes = (
(1281,356,o),
(1320,544,o),
(1320,750,cs),
(1320,1114,o),
(1178,1420,o),
(830,1420,cs),
(482,1420,o),
(340,1114,o),
(340,750,cs),
(340,589,o),
(368,441,o),
(429,324,cs),
(452,281,o),
(457,281,o),
(460,322,cs),
(468,442,o),
(538,606,o),
(724,606,cs),
(911,606,o),
(1022,413,o),
(1113,233,cs),
(1140,180,o),
(1144,189,o),
(1180,232,cs)
);
}
);
vertWidth = 0;
width = 1660;
},
{
anchors = (
{
name = "Anchor-0";
pos = (906,1500);
}
);
layerId = "8097EFC1-F009-4E0B-8F96-722A50586A5E";
shapes = (
{
closed = 1;
nodes = (
(70,1216,o),
(384,1540,o),
(910,1540,cs),
(1436,1540,o),
(1750,1216,o),
(1750,750,cs),
(1750,465,o),
(1625,233,o),
(1413,96,cs),
(1367,66,o),
(1362,57,o),
(1412,25,cs),
(1431,13,o),
(1453,6,o),
(1476,6,cs),
(1550,6,o),
(1598,42,o),
(1622,128,cs),
(1628,151,o),
(1622,164,o),
(1654,164,cs),
(1784,164,ls),
(1837,164,o),
(1850,156,o),
(1844,110,cs),
(1817,-107,o),
(1704,-350,o),
(1480,-350,cs),
(1278,-350,o),
(1203,-209,o),
(1138,-60,cs),
(1125,-30,o),
(1114,-21,o),
(1078,-27,cs),
(1025,-36,o),
(968,-40,o),
(910,-40,cs),
(384,-40,o),
(70,284,o),
(70,750,cs)
);
},
{
closed = 1;
nodes = (
(775,244,o),
(834,220,o),
(910,220,cs),
(934,220,o),
(957,221,o),
(978,226,cs),
(1016,236,o),
(1021,250,o),
(998,278,cs),
(958,328,o),
(905,360,o),
(828,360,cs),
(795,360,o),
(765,357,o),
(740,345,cs),
(705,329,o),
(696,311,o),
(726,285,cs)
);
},
{
closed = 1;
nodes = (
(1221,560,o),
(1230,649,o),
(1230,750,cs),
(1230,1074,o),
(1138,1280,o),
(910,1280,cs),
(682,1280,o),
(590,1074,o),
(590,750,cs),
(590,692,o),
(591,638,o),
(599,588,cs),
(606,547,o),
(612,540,o),
(644,582,cs),
(698,654,o),
(777,706,o),
(884,706,cs),
(1006,706,o),
(1087,620,o),
(1150,509,cs),
(1176,464,o),
(1196,437,o),
(1206,484,cs)
);
}
);
vertWidth = 0;
width = 1820;
},
{
anchors = (
{
name = "Anchor-0";
pos = (526,1500);
}
);
layerId = "871B1205-2168-46B7-8FAD-FF3EA4ADCFD7";
shapes = (
{
closed = 1;
nodes = (
(55,1276,o),
(189,1520,o),
(525,1520,cs),
(861,1520,o),
(995,1276,o),
(995,750,cs),
(995,477,o),
(963,208,o),
(805,72,cs),
(774,45,o),
(784,43,o),
(796,20,cs),
(834,-51,o),
(856,-74,o),
(911,-74,cs),
(996,-74,o),
(1007,34,o),
(1004,139,cs),
(1003,157,o),
(1010,164,o),
(1031,164,cs),
(1067,164,ls),
(1098,164,o),
(1099,160,o),
(1104,131,cs),
(1127,-82,o),
(1084,-250,o),
(905,-250,cs),
(772,-250,o),
(750,-144,o),
(712,-20,cs),
(702,12,o),
(701,4,o),
(658,-5,cs),
(621,-13,o),
(584,-20,o),
(525,-20,cs),
(189,-20,o),
(55,224,o),
(55,750,cs)
);
},
{
closed = 1;
nodes = (
(417,100,o),
(469,80,o),
(525,80,cs),
(574,80,o),
(610,86,o),
(641,106,cs),
(671,125,o),
(675,129,o),
(669,161,cs),
(647,275,o),
(603,430,o),
(493,430,cs),
(387,430,o),
(353,304,o),
(352,196,cs),
(352,157,o),
(365,152,o),
(380,137,cs)
);
},
{
closed = 1;
nodes = (
(780,416,o),
(790,544,o),
(790,750,cs),
(790,1114,o),
(753,1420,o),
(525,1420,cs),
(297,1420,o),
(260,1114,o),
(260,750,cs),
(260,589,o),
(268,431,o),
(292,324,cs),
(302,278,o),
(306,291,o),
(306,345,cs),
(306,465,o),
(363,606,o),
(489,606,cs),
(616,606,o),
(680,402,o),
(713,273,cs),
(728,214,o),
(747,251,o),
(757,302,cs)
);
}
);
vertWidth = 0;
width = 1050;
},
{
anchors = (
{
name = "Anchor-0";
pos = (666,1500);
}
);
layerId = "E1447247-EC0C-4B84-932A-C76B64125023";
shapes = (
{
closed = 1;
nodes = (
(30,1316,o),
(164,1540,o),
(620,1540,cs),
(1076,1540,o),
(1210,1316,o),
(1210,750,cs),
(1210,465,o),
(1163,233,o),
(1013,96,cs),
(972.449,58.964,o),
(980.809,54.699,o),
(1002,35,cs),
(1018.459,19.7,o),
(1033,6,o),
(1066,6,cs),
(1110,6,o),
(1118,42,o),
(1132,128,cs),
(1135.819,151.461,o),
(1132,164,o),
(1164,164,cs),
(1294,164,ls),
(1347,164,o),
(1354.854,156.382,o),
(1354,110,cs),
(1350,-107,o),
(1304,-350,o),
(1080,-350,cs),
(878,-350,o),
(843,-209,o),
(798,-60,cs),
(788.547,-28.701,o),
(786,-21,o),
(750,-27,cs),
(696.973,-35.838,o),
(678,-40,o),
(620,-40,cs),
(164,-40,o),
(30,184,o),
(30,750,cs)
);
},
{
closed = 1;
nodes = (
(550,244,o),
(574,220,o),
(620,220,cs),
(644,220,o),
(687.961,230.698,o),
(699,246,cs),
(715.825,269.321,o),
(709.717,275.852,o),
(693,308,cs),
(680,333,o),
(645,370,o),
(608,370,cs),
(575,370,o),
(547.747,362.299,o),
(522,343,cs),
(513.382,336.54,o),
(514.309,321.02,o),
(531,285,cs)
);
},
{
closed = 1;
nodes = (
(754,630,o),
(755,649,o),
(755,750,cs),
(755,1074,o),
(728,1280,o),
(620,1280,cs),
(512,1280,o),
(485,1074,o),
(485,750,cs),
(485,692,o),
(485,638,o),
(487,588,cs),
(488.662,546.44,o),
(494.922,530.169,o),
(505,582,cs),
(519,654,o),
(567,706,o),
(614,706,cs),
(676,706,o),
(709.733,639.473,o),
(725,579,cs),
(737.832,528.171,o),
(749.104,505.985,o),
(751,554,cs)
);
}
);
vertWidth = 0;
width = 1240;
}
);
unicode = 81;
},
{
glyphname = R;
kernLeft = kc0_1;
kernRight = kc0_24;
layers = (
{
anchors = (
{
name = "Anchor-0";
pos = (786,1500);
},
{
name = "Anchor-1";
pos = (816,0);
},
{
name = "Anchor-2";
pos = (816,0);
}
);
layerId = "EAF0EFDD-E653-4C10-B7B2-F7A391578EE2";
shapes = (
{
closed = 1;
nodes = (
(1554,69,o),
(1469,-20,o),
(1305,-20,cs),
(839,-20,o),
(1298,690,o),
(785,690,cs),
(531,690,ls),
(487,690,o),
(485,682,o),
(485,638,cs),
(485,144,ls),
(485,113,o),
(493,110,o),
(525,110,cs),
(674,110,ls),
(702,110,o),
(705,103,o),
(705,74,cs),
(705,29,ls),
(705,4,o),
(698,0,o),
(672,0,cs),
(106,0,ls),
(81,0,o),
(75,6,o),
(75,32,cs),
(75,75,ls),
(75,105,o),
(83,110,o),
(111,110,cs),
(247,110,ls),
(288,110,o),
(295,113,o),
(295,153,cs),
(295,1342,ls),
(295,1385,o),
(288,1390,o),
(246,1390,cs),
(111,1390,ls),
(76,1390,o),
(75,1399,o),
(75,1435,cs),
(75,1466,ls),
(75,1492,o),
(78,1500,o),
(103,1500,cs),
(865,1500,ls),
(1227,1500,o),
(1365,1320,o),
(1365,1100,cs),
(1365,936,o),
(1298,814,o),
(1108,756,cs),
(1070,744,o),
(1068,733,o),
(1112,710,cs),
(1406,553,o),
(1157,110,o),
(1377,110,cs),
(1414,110,o),
(1454,143,o),
(1484,212,cs),
(1491,228,o),
(1495,241,o),
(1515,234,cs),
(1565,218,ls),
(1585,211,o),
(1595,207,o),
(1590,190,cs)
);
},
{
closed = 1;
nodes = (
(865,810,ls),
(1017,810,o),
(1165,902,o),
(1165,1100,cs),
(1165,1298,o),
(1017,1390,o),
(865,1390,cs),
(532,1390,ls),
(485,1390,o),
(485,1390,o),
(485,1343,cs),
(485,858,ls),
(485,817,o),
(489,810,o),
(532,810,cs)
);
}
);
vertWidth = 0;
width = 1545;
},
{
anchors = (
{
name = "Anchor-0";
pos = (826,1500);
},
{
name = "Anchor-1";
pos = (916,0);
},
{
name = "Anchor-2";
pos = (916,0);
}
);
layerId = "8097EFC1-F009-4E0B-8F96-722A50586A5E";
shapes = (
{
closed = 1;
nodes = (
(1787,65,o),
(1660,-40,o),
(1450,-40,cs),
(924,-40,o),
(1213,620,o),
(860,620,cs),
(778,620,ls),
(740,620,o),
(740,610,o),
(740,572,cs),
(740,310,ls),
(740,279,o),
(741,270,o),
(772,270,cs),
(914,270,ls),
(950,270,o),
(960,263,o),
(960,224,cs),
(960,72,ls),
(960,13,o),
(959,0,o),
(900,0,cs),
(93,0,ls),
(59,0,o),
(50,5,o),
(50,38,cs),
(50,226,ls),
(50,263,o),
(56,270,o),
(92,270,cs),
(213,270,ls),
(260,270,o),
(270,276,o),
(270,322,cs),
(270,1179,ls),
(270,1225,o),
(259,1230,o),
(216,1230,cs),
(96,1230,ls),
(54,1230,o),
(50,1242,o),
(50,1282,cs),
(50,1462,ls),
(50,1496,o),
(60,1500,o),
(95,1500,cs),
(960,1500,ls),
(1422,1500,o),
(1620,1350,o),
(1620,1110,cs),
(1620,949,o),
(1558,845,o),
(1393,782,cs),
(1343,763,o),
(1324,747,o),
(1376,718,cs),
(1618,585,o),
(1503,308,o),
(1618,308,cs),
(1649,308,o),
(1682,334,o),
(1706,368,cs),
(1729,401,o),
(1737,401,o),
(1771,374,cs),
(1874,294,ls),
(1910,266,o),
(1910,249,o),
(1886,213,cs)
);
},
{
closed = 1;
nodes = (
(960,880,ls),
(1072,880,o),
(1140,952,o),
(1140,1050,cs),
(1140,1148,o),
(1072,1230,o),
(960,1230,cs),
(782,1230,ls),
(744,1230,o),
(740,1221,o),
(740,1182,cs),
(740,926,ls),
(740,877,o),
(744,880,o),
(792,880,cs)
);
}
);
vertWidth = 0;
width = 1901;
},
{
anchors = (
{
name = "Anchor-0";
pos = (479,1500);
},
{
name = "Anchor-1";
pos = (549,0);
},
{
name = "Anchor-2";
pos = (549,0);
}
);
layerId = "871B1205-2168-46B7-8FAD-FF3EA4ADCFD7";
shapes = (
{
closed = 1;
nodes = (
(1089,79,o),
(1052,-20,o),
(888,-20,cs),
(492,-20,o),
(921,690,o),
(528,690,cs),
(394,690,ls),
(350,690,o),
(348,682,o),
(348,638,cs),
(348,144,ls),
(348,113,o),
(356,110,o),
(388,110,cs),
(457,110,ls),
(485,110,o),
(488,103,o),
(488,74,cs),
(488,29,ls),
(488,4,o),
(481,0,o),
(455,0,cs),
(69,0,ls),
(44,0,o),
(38,6,o),
(38,32,cs),
(38,75,ls),
(38,105,o),
(46,110,o),
(74,110,cs),
(110,110,ls),
(151,110,o),
(158,113,o),
(158,153,cs),
(158,1342,ls),
(158,1385,o),
(151,1390,o),
(109,1390,cs),
(74,1390,ls),
(39,1390,o),
(38,1399,o),
(38,1435,cs),
(38,1466,ls),
(38,1492,o),
(41,1500,o),
(66,1500,cs),
(578,1500,ls),
(870,1500,o),
(948,1260,o),
(948,1090,cs),
(948,926,o),
(881,834,o),
(771,766,cs),
(737,745,o),
(744,718,o),
(785,690,cs),
(1009,533,o),
(820,110,o),
(970,110,cs),
(1002,110,o),
(1028,142,o),
(1034,242,cs),
(1035,255,o),
(1040,258,o),
(1047,258,cs),
(1081,258,ls),
(1088,258,o),
(1099,255,o),
(1098,230,cs)
);
},
{
closed = 1;
nodes = (
(557,810,ls),
(659,810,o),
(748,902,o),
(748,1100,cs),
(748,1298,o),
(659,1390,o),
(557,1390,cs),
(384,1390,ls),
(337,1390,o),
(348,1390,o),
(348,1343,cs),
(348,858,ls),
(348,817,o),
(341,810,o),
(384,810,cs)
);
}
);
vertWidth = 0;
width = 1073;
},
{
anchors = (
{
name = "Anchor-0";
pos = (686,1500);
},
{
name = "Anchor-1";
pos = (676,0);
},
{
name = "Anchor-2";
pos = (676,0);
}
);
layerId = "E1447247-EC0C-4B84-932A-C76B64125023";
shapes = (
{
closed = 1;
nodes = (
(1344,95,o),
(1260,-40,o),
(1050,-40,cs),
(554,-40,o),
(883,620,o),
(650,620,cs),
(638,620,ls),
(600,620,o),
(600,610,o),
(600,572,cs),
(600,310,ls),
(600,279,o),
(601,270,o),
(632,270,cs),
(674,270,ls),
(710,270,o),
(720,263,o),
(720,224,cs),
(720,72,ls),
(720,13,o),
(719,0,o),
(660,0,cs),
(53,0,ls),
(19,0,o),
(10,5,o),
(10,38,cs),
(10,226,ls),
(10,263,o),
(16,270,o),
(52,270,cs),
(73,270,ls),
(120,270,o),
(130,276,o),
(130,322,cs),
(130,1179,ls),
(130,1225,o),
(119,1230,o),
(76,1230,cs),
(56,1230,ls),
(14,1230,o),
(10,1242,o),
(10,1282,cs),
(10,1462,ls),
(10,1496,o),
(20,1500,o),
(55,1500,cs),
(720,1500,ls),
(1062,1500,o),
(1190,1300,o),
(1190,1110,cs),
(1190,949,o),
(1168,835,o),
(1083,742,cs),
(1046.914,702.518,o),
(1014,707,o),
(1066,678,cs),
(1308,545,o),
(1103,308,o),
(1218,308,cs),
(1244,308,o),
(1246.289,323.092,o),
(1256,358,cs),
(1263.349,384.417,o),
(1282.649,388.472,o),
(1321,374,cs),
(1374,354,ls),
(1405.678,342.046,o),
(1395.936,315.11,o),
(1386,273,cs)
);
},
{
closed = 1;
nodes = (
(649,880,ls),
(711,880,o),
(720,952,o),
(720,1050,cs),
(720,1148,o),
(711,1230,o),
(649,1230,cs),
(631,1230,ls),
(593,1230,o),
(600,1221,o),
(600,1182,cs),
(600,926,ls),
(600,877,o),
(593,880,o),
(641,880,cs)
);
}
);
vertWidth = 0;
width = 1356;
}
);
unicode = 82;
},
{
glyphname = S;
kernLeft = kc0_25;
kernRight = kc0_25;
layers = (
{
anchors = (
{
name = "Anchor-0";
pos = (676,1500);
},
{
name = "Anchor-1";
pos = (705,0);
},
{
name = "Anchor-2";
pos = (705,0);
}
);
layerId = "EAF0EFDD-E653-4C10-B7B2-F7A391578EE2";
shapes = (
{
closed = 1;
nodes = (
(1063,1265,o),
(906,1418,o),
(690,1418,cs),
(458,1418,o),
(370,1308,o),
(370,1170,cs),
(370,750,o),
(1250,1020,o),
(1250,420,cs),
(1250,140,o),
(1052,-30,o),
(710,-30,cs),
(559,-30,o),
(424,29,o),
(334,109,cs),
(304,136,o),
(298,135,o),
(282,95,cs),
(251,18,ls),
(240,-9,o),
(238,-10,o),
(199,-10,cs),
(168,-10,ls),
(137,-10,o),
(130,-6,o),
(130,24,cs),
(130,482,ls),
(130,510,o),
(140,510,o),
(168,510,cs),
(210,510,ls),
(237,510,o),
(240,499,o),
(242,476,cs),
(259,286,o),
(418,72,o),
(690,72,cs),
(962,72,o),
(1070,232,o),
(1070,370,cs),
(1070,830,o),
(190,550,o),
(190,1110,cs),
(190,1390,o),
(408,1520,o),
(670,1520,cs),
(796,1520,o),
(912,1476,o),
(992,1407,cs),
(1015,1387,o),
(1029,1381,o),
(1044,1417,cs),
(1075,1488,ls),
(1080,1499,o),
(1082,1500,o),
(1098,1500,cs),
(1162,1500,ls),
(1187,1500,o),
(1190,1493,o),
(1190,1467,cs),
(1190,1036,ls),
(1190,1011,o),
(1181,1010,o),
(1156,1010,cs),
(1112,1010,ls),
(1076,1010,o),
(1081,1014,o),
(1079,1047,cs)
);
}
);
vertWidth = 0;
width = 1345;
},
{
anchors = (
{
name = "Anchor-0";
pos = (796,1500);
},
{
name = "Anchor-1";
pos = (785,0);
},
{
name = "Anchor-2";
pos = (785,0);
}
);
layerId = "8097EFC1-F009-4E0B-8F96-722A50586A5E";
shapes = (
{
closed = 1;
nodes = (
(1106,1203,o),
(911,1268,o),
(760,1268,cs),
(628,1268,o),
(552,1224,o),
(552,1156,cs),
(552,916,o),
(1430,1040,o),
(1430,460,cs),
(1430,80,o),
(1162,-40,o),
(800,-40,cs),
(620,-40,o),
(500,14,o),
(422,87,cs),
(379,127,o),
(374,103,o),
(344,51,cs),
(326,17,ls),
(313,-6,o),
(296,-10,o),
(259,-10,cs),
(134,-10,ls),
(95,-10,o),
(80,-3,o),
(80,35,cs),
(80,537,ls),
(80,579,o),
(83,590,o),
(124,590,cs),
(270,590,ls),
(317,590,o),
(307,582,o),
(313,541,cs),
(337,365,o),
(493,222,o),
(720,222,cs),
(892,222,o),
(980,272,o),
(980,370,cs),
(980,650,o),
(110,478,o),
(110,1058,cs),
(110,1398,o),
(398,1530,o),
(660,1530,cs),
(812,1530,o),
(936,1483,o),
(1026,1415,cs),
(1065,1386,o),
(1079,1383,o),
(1108,1430,cs),
(1133,1473,ls),
(1145,1492,o),
(1145,1500,o),
(1178,1500,cs),
(1332,1500,ls),
(1367,1500,o),
(1380,1491,o),
(1380,1454,cs),
(1380,1005,ls),
(1380,957,o),
(1373,950,o),
(1323,950,cs),
(1214,950,ls),
(1148,950,o),
(1155,965,o),
(1144,1017,cs)
);
}
);
vertWidth = 0;
width = 1480;
},
{
anchors = (
{
name = "Anchor-0";
pos = (471,1500);
},
{
name = "Anchor-1";
pos = (480,0);
},
{
name = "Anchor-2";
pos = (480,0);
}
);
layerId = "871B1205-2168-46B7-8FAD-FF3EA4ADCFD7";
shapes = (
{
closed = 1;
nodes = (
(668,1235,o),
(561,1408,o),
(435,1408,cs),
(323,1408,o),
(285,1338,o),
(285,1220,cs),
(285,849,o),
(865,920,o),
(865,340,cs),
(865,140,o),
(757,-30,o),
(545,-30,cs),
(374,-30,o),
(309,49,o),
(259,109,cs),
(238,144,o),
(233,135,o),
(217,95,cs),
(186,18,ls),
(175,-9,o),
(173,-10,o),
(134,-10,cs),
(103,-10,ls),
(72,-10,o),
(65,-6,o),
(65,24,cs),
(65,482,ls),
(65,510,o),
(75,510,o),
(103,510,cs),
(145,510,ls),
(172,510,o),
(174,499,o),
(177,476,cs),
(194,316,o),
(323,72,o),
(485,72,cs),
(647,72,o),
(695,202,o),
(695,320,cs),
(695,760,o),
(125,700,o),
(125,1180,cs),
(125,1390,o),
(223,1520,o),
(425,1520,cs),
(521,1520,o),
(580,1466,o),
(627,1407,cs),
(645,1381,o),
(644,1381,o),
(659,1417,cs),
(690,1488,ls),
(695,1499,o),
(697,1500,o),
(713,1500,cs),
(777,1500,ls),
(802,1500,o),
(805,1493,o),
(805,1467,cs),
(805,1036,ls),
(805,1011,o),
(796,1010,o),
(771,1010,cs),
(727,1010,ls),
(691,1010,o),
(701,1015,o),
(694,1047,cs)
);
}
);
vertWidth = 0;
width = 912;
},
{
anchors = (
{
name = "Anchor-0";
pos = (626,1500);
},
{
name = "Anchor-1";
pos = (615,0);
},
{
name = "Anchor-2";
pos = (615,0);
}
);
layerId = "E1447247-EC0C-4B84-932A-C76B64125023";
shapes = (
{
closed = 1;
nodes = (
(726,1173,o),
(661,1228,o),
(590,1228,cs),
(528,1228,o),
(502,1204,o),
(502,1156,cs),
(502,916,o),
(1060,940,o),
(1060,380,cs),
(1060,80,o),
(872,-40,o),
(670,-40,cs),
(450,-40,o),
(400,34,o),
(362,87,cs),
(327.78,134.728,o),
(324,103,o),
(294,51,cs),
(276,17,ls),
(263,-6,o),
(246,-10,o),
(209,-10,cs),
(84,-10,ls),
(45,-10,o),
(30,-3,o),
(30,35,cs),
(30,537,ls),
(30,579,o),
(33,590,o),
(74,590,cs),
(220,590,ls),
(267,590,o),
(256.278,581.888,o),
(263,541,cs),
(287,395,o),
(363,252,o),
(480,252,cs),
(572,252,o),
(610,292,o),
(610,370,cs),
(610,680,o),
(60,628,o),
(60,1128,cs),
(60,1398,o),
(228,1530,o),
(430,1530,cs),
(552,1530,o),
(619,1473,o),
(676,1415,cs),
(710.066,1380.337,o),
(709,1383,o),
(738,1430,cs),
(763,1473,ls),
(775,1492,o),
(775,1500,o),
(808,1500,cs),
(962,1500,ls),
(997,1500,o),
(1010,1491,o),
(1010,1454,cs),
(1010,1005,ls),
(1010,957,o),
(1003,950,o),
(953,950,cs),
(844,950,ls),
(778,950,o),
(789.631,966.2,o),
(774,1017,cs)
);
}
);
vertWidth = 0;
width = 1070;
}
);
unicode = 83;
},
{
glyphname = uni1E9E;
layers = (
{
layerId = "EAF0EFDD-E653-4C10-B7B2-F7A391578EE2";
shapes = (
{
closed = 1;
nodes = (
(915,151,o),
(1127,97,o),
(1273,97,cs),
(1471,97,o),
(1602,192,o),
(1602,380,cs),
(1602,528,o),
(1575,735,o),
(1137,735,c),
(1137,848,l),
(1719,848,o),
(1812,601,o),
(1812,380,cs),
(1812,120,o),
(1594,-20,o),
(1312,-20,cs),
(1028,-20,o),
(780,126,o),
(780,271,cs),
(780,353,o),
(831,412,o),
(911,412,cs),
(982,412,o),
(1029,362,o),
(1029,290,cs),
(1029,226,o),
(975,180,o),
(916,180,cs),
(855,180,o),
(782,221,o),
(782,271,c),
(915,271,l)
);
},
{
closed = 1;
nodes = (
(611,110,l),
(611,0,l),
(50,0,l),
(50,110,l)
);
},
{
closed = 1;
nodes = (
(1296,831,o),
(1204,838,o),
(1137,848,c),
(1520,1298,l),
(1440,1363,o),
(1245,1407,o),
(1097,1407,cs),
(619,1407,o),
(431,1205,o),
(431,861,cs),
(431,0,l),
(231,0,l),
(231,882,ls),
(231,1288,o),
(561,1520,o),
(1097,1520,cs),
(1404,1520,o),
(1692,1388,o),
(1753,1322,c),
(1337,820,l)
);
}
);
vertWidth = 2309;
width = 1892;
},
{
layerId = "8097EFC1-F009-4E0B-8F96-722A50586A5E";
shapes = (
{
closed = 1;
nodes = (
(1185,301,o),
(1317,187,o),
(1463,187,cs),
(1611,187,o),
(1692,292,o),
(1692,410,cs),
(1692,558,o),
(1595,665,o),
(1227,735,c),
(1227,848,l),
(1809,848,o),
(2102,601,o),
(2102,380,cs),
(2102,120,o),
(1784,-30,o),
(1502,-30,cs),
(1218,-30,o),
(990,66,o),
(990,261,cs),
(990,393,o),
(1091,492,o),
(1211,492,cs),
(1322,492,o),
(1419,402,o),
(1419,280,cs),
(1419,166,o),
(1315,70,o),
(1206,70,cs),
(1145,70,o),
(992,211,o),
(992,261,c),
(1185,421,l)
);
},
{
closed = 1;
nodes = (
(801,210,l),
(801,0,l),
(40,0,l),
(40,210,l)
);
},
{
closed = 1;
nodes = (
(1586,791,o),
(1294,838,o),
(1227,848,c),
(1540,1198,l),
(1470,1263,o),
(1375,1307,o),
(1257,1307,cs),
(929,1307,o),
(621,1185,o),
(621,861,cs),
(621,0,l),
(221,0,l),
(221,882,ls),
(221,1288,o),
(751,1520,o),
(1287,1520,cs),
(1704,1520,o),
(1982,1348,o),
(2043,1282,c),
(1627,780,l)
);
}
);
vertWidth = 2309;
width = 2172;
},
{
layerId = "871B1205-2168-46B7-8FAD-FF3EA4ADCFD7";
shapes = (
{
closed = 1;
nodes = (
(705,151,o),
(817,97,o),
(933,97,cs),
(1071,97,o),
(1172,222,o),
(1172,410,cs),
(1172,558,o),
(1135,735,o),
(837,735,c),
(837,848,l),
(1279,848,o),
(1382,631,o),
(1382,410,cs),
(1382,150,o),
(1194,-20,o),
(972,-20,cs),
(718,-20,o),
(570,126,o),
(570,271,cs),
(570,353,o),
(621,412,o),
(701,412,cs),
(772,412,o),
(819,362,o),
(819,290,cs),
(819,226,o),
(765,180,o),
(706,180,cs),
(645,180,o),
(572,221,o),
(572,271,c),
(705,271,l)
);
},
{
closed = 1;
nodes = (
(411,110,l),
(411,0,l),
(50,0,l),
(50,110,l)
);
},
{
closed = 1;
nodes = (
(996,831,o),
(904,838,o),
(837,848,c),
(1130,1298,l),
(1050,1363,o),
(905,1407,o),
(797,1407,cs),
(419,1407,o),
(331,1205,o),
(331,861,cs),
(331,0,l),
(131,0,l),
(131,882,ls),
(131,1288,o),
(361,1520,o),
(797,1520,cs),
(1054,1520,o),
(1302,1388,o),
(1363,1322,c),
(1037,820,l)
);
}
);
vertWidth = 2309;
width = 1432;
},
{
layerId = "E1447247-EC0C-4B84-932A-C76B64125023";
shapes = (
{
closed = 1;
nodes = (
(796,331,o),
(878,187,o),
(1024,187,cs),
(1082,187,o),
(1113,212,o),
(1113,350,cs),
(1113,498,o),
(1016,665,o),
(758,735,c),
(758,848,l),
(1340,848,o),
(1523,621,o),
(1523,380,cs),
(1523,120,o),
(1305,-30,o),
(1063,-30,cs),
(779,-30,o),
(601,96,o),
(601,291,cs),
(601,423,o),
(702,522,o),
(822,522,cs),
(933,522,o),
(1030,432,o),
(1030,310,cs),
(1030,196,o),
(926,100,o),
(817,100,cs),
(756,100,o),
(603,241,o),
(603,291,c),
(796,451,l)
);
},
{
closed = 1;
nodes = (
(562,210,l),
(562,0,l),
(11,0,l),
(11,210,l)
);
},
{
closed = 1;
nodes = (
(1057,791,o),
(825,838,o),
(758,848,c),
(1061,1248,l),
(1001,1299,o),
(936,1327,o),
(818,1327,cs),
(590,1327,o),
(492,1185,o),
(492,861,cs),
(492,0,l),
(92,0,l),
(92,882,ls),
(92,1288,o),
(312,1530,o),
(848,1530,cs),
(1265,1530,o),
(1403,1348,o),
(1464,1282,c),
(1098,780,l)
);
}
);
vertWidth = 2309;
width = 1523;
}
);
unicode = 7838;
},
{
glyphname = T;
kernLeft = kc0_19;
kernRight = kc0_16;
layers = (
{
anchors = (
{
name = "Anchor-0";
pos = (765,1500);
},
{
name = "Anchor-1";
pos = (766,0);
},
{
name = "Anchor-2";
pos = (766,0);
}
);
layerId = "EAF0EFDD-E653-4C10-B7B2-F7A391578EE2";
shapes = (
{
closed = 1;
nodes = (
(420,75,ls),
(420,107,o),
(432,110,o),
(462,110,cs),
(626,110,ls),
(674,110,o),
(680,115,o),
(680,165,cs),
(680,1355,ls),
(680,1393,o),
(673,1400,o),
(636,1400,cs),
(540,1400,ls),
(278,1400,o),
(206,1312,o),
(200,1031,cs),
(199,1000,o),
(196,990,o),
(162,990,cs),
(134,990,ls),
(100,990,o),
(100,1011,o),
(100,1041,cs),
(100,1447,ls),
(100,1493,o),
(103,1500,o),
(148,1500,cs),
(1408,1500,ls),
(1447,1500,o),
(1450,1493,o),
(1450,1453,cs),
(1450,1021,ls),
(1450,992,o),
(1442,990,o),
(1412,990,cs),
(1388,990,ls),
(1351,990,o),
(1350,1005,o),
(1349,1037,cs),
(1342,1314,o),
(1270,1400,o),
(1010,1400,cs),
(908,1400,ls),
(873,1400,o),
(870,1393,o),
(870,1357,cs),
(870,167,ls),
(870,116,o),
(875,110,o),
(924,110,cs),
(1088,110,ls),
(1128,110,o),
(1130,102,o),
(1130,61,cs),
(1130,42,ls),
(1130,2,o),
(1108,0,o),
(1072,0,cs),
(466,0,ls),
(427,0,o),
(420,3,o),
(420,41,cs)
);
}
);
vertWidth = 0;
width = 1550;
},
{
anchors = (
{
name = "Anchor-0";
pos = (805,1500);
},
{
name = "Anchor-1";
pos = (806,0);
},
{
name = "Anchor-2";
pos = (806,0);
}
);
layerId = "8097EFC1-F009-4E0B-8F96-722A50586A5E";
shapes = (
{
closed = 1;
nodes = (
(355,220,ls),
(355,260,o),
(362,270,o),
(401,270,cs),
(533,270,ls),
(586,270,o),
(595,282,o),
(595,335,cs),
(595,1202,ls),
(595,1226,o),
(586,1240,o),
(561,1240,cs),
(545,1240,ls),
(346,1240,o),
(292,1174,o),
(286,927,cs),
(285,879,o),
(271,870,o),
(219,870,cs),
(98,870,ls),
(59,870,o),
(45,872,o),
(45,911,cs),
(45,1442,ls),
(45,1485,o),
(46,1500,o),
(89,1500,cs),
(1535,1500,ls),
(1567,1500,o),
(1575,1487,o),
(1575,1452,cs),
(1575,927,ls),
(1575,876,o),
(1566,870,o),
(1513,870,cs),
(1395,870,ls),
(1343,870,o),
(1335,876,o),
(1334,925,cs),
(1328,1174,o),
(1275,1240,o),
(1075,1240,cs),
(1063,1240,ls),
(1033,1240,o),
(1025,1226,o),
(1025,1197,cs),
(1025,350,ls),
(1025,287,o),
(1028,270,o),
(1091,270,cs),
(1208,270,ls),
(1254,270,o),
(1265,258,o),
(1265,215,cs),
(1265,55,ls),
(1265,7,o),
(1255,0,o),
(1209,0,cs),
(409,0,ls),
(367,0,o),
(355,6,o),
(355,51,cs)
);
}
);
vertWidth = 0;
width = 1620;
},
{
anchors = (
{
name = "Anchor-0";
pos = (564,1500);
},
{
name = "Anchor-1";
pos = (573,0);
},
{
name = "Anchor-2";
pos = (573,0);
}
);
layerId = "871B1205-2168-46B7-8FAD-FF3EA4ADCFD7";
shapes = (
{
closed = 1;
nodes = (
(309,75,ls),
(309,107,o),
(321,110,o),
(351,110,cs),
(415,110,ls),
(463,110,o),
(469,115,o),
(469,165,cs),
(469,1355,ls),
(469,1393,o),
(472,1400,o),
(435,1400,cs),
(379,1400,ls),
(267,1400,o),
(165,1312,o),
(159,1031,cs),
(158,1000,o),
(155,990,o),
(121,990,cs),
(93,990,ls),
(59,990,o),
(59,1011,o),
(59,1041,cs),
(59,1447,ls),
(59,1493,o),
(62,1500,o),
(107,1500,cs),
(1027,1500,ls),
(1066,1500,o),
(1069,1493,o),
(1069,1453,cs),
(1069,1021,ls),
(1069,992,o),
(1061,990,o),
(1031,990,cs),
(1007,990,ls),
(970,990,o),
(969,1005,o),
(968,1037,cs),
(961,1314,o),
(879,1400,o),
(759,1400,cs),
(687,1400,ls),
(652,1400,o),
(659,1393,o),
(659,1357,cs),
(659,167,ls),
(659,116,o),
(664,110,o),
(713,110,cs),
(777,110,ls),
(817,110,o),
(819,102,o),
(819,61,cs),
(819,42,ls),
(819,2,o),
(797,0,o),
(761,0,cs),
(355,0,ls),
(316,0,o),
(309,3,o),
(309,41,cs)
);
}
);
vertWidth = 0;
width = 1128;
},
{
anchors = (
{
name = "Anchor-0";
pos = (620,1500);
},
{
name = "Anchor-1";
pos = (621,0);
},
{
name = "Anchor-2";
pos = (621,0);
}
);
layerId = "E1447247-EC0C-4B84-932A-C76B64125023";
shapes = (
{
closed = 1;
nodes = (
(270,220,ls),
(270,260,o),
(277,270,o),
(316,270,cs),
(348,270,ls),
(401,270,o),
(410,282,o),
(410,335,cs),
(410,1202,ls),
(410,1226,o),
(411,1240,o),
(386,1240,cs),
(380,1240,ls),
(331,1240,o),
(277,1174,o),
(271,927,cs),
(270,879,o),
(256,870,o),
(204,870,cs),
(83,870,ls),
(44,870,o),
(30,872,o),
(30,911,cs),
(30,1442,ls),
(30,1485,o),
(31,1500,o),
(74,1500,cs),
(1180,1500,ls),
(1212,1500,o),
(1220,1487,o),
(1220,1452,cs),
(1220,927,ls),
(1220,876,o),
(1211,870,o),
(1158,870,cs),
(1040,870,ls),
(988,870,o),
(980,876,o),
(979,925,cs),
(973,1174,o),
(940,1240,o),
(880,1240,cs),
(868,1240,ls),
(838,1240,o),
(840,1226,o),
(840,1197,cs),
(840,350,ls),
(840,287,o),
(843,270,o),
(906,270,cs),
(923,270,ls),
(969,270,o),
(980,258,o),
(980,215,cs),
(980,55,ls),
(980,7,o),
(970,0,o),
(924,0,cs),
(324,0,ls),
(282,0,o),
(270,6,o),
(270,51,cs)
);
}
);
vertWidth = 0;
width = 1250;
}
);
unicode = 84;
},
{
glyphname = Tbar;
layers = (
{
layerId = "EAF0EFDD-E653-4C10-B7B2-F7A391578EE2";
shapes = (
{
closed = 1;
nodes = (
(1156,820,ls),
(1184,820,o),
(1187,816,o),
(1187,792,cs),
(1187,743,ls),
(1187,719,o),
(1185,710,o),
(1153,710,cs),
(392,710,ls),
(362,710,o),
(360,714,o),
(360,740,cs),
(360,792,ls),
(360,815,o),
(368,820,o),
(394,820,cs)
);
},
{
ref = T;
}
);
vertWidth = 0;
width = 1550;
},
{
layerId = "8097EFC1-F009-4E0B-8F96-722A50586A5E";
shapes = (
{
closed = 1;
nodes = (
(1221,840,ls),
(1262,840,o),
(1267,833,o),
(1267,801,cs),
(1267,651,ls),
(1267,616,o),
(1266,610,o),
(1219,610,cs),
(413,610,ls),
(365,610,o),
(357,615,o),
(357,650,cs),
(357,799,ls),
(357,831,o),
(360,840,o),
(403,840,cs)
);
},
{
ref = T;
}
);
vertWidth = 0;
width = 1620;
},
{
layerId = "871B1205-2168-46B7-8FAD-FF3EA4ADCFD7";
shapes = (
{
closed = 1;
nodes = (
(950,820,ls),
(978,820,o),
(981,816,o),
(981,792,cs),
(981,743,ls),
(981,719,o),
(979,710,o),
(947,710,cs),
(186,710,ls),
(156,710,o),
(154,714,o),
(154,740,cs),
(154,792,ls),
(154,815,o),
(162,820,o),
(188,820,cs)
);
},
{
ref = T;
}
);
vertWidth = 0;
width = 1128;
},
{
layerId = "E1447247-EC0C-4B84-932A-C76B64125023";
shapes = (
{
closed = 1;
nodes = (
(1026,730,ls),
(1067,730,o),
(1072,723,o),
(1072,691,cs),
(1072,541,ls),
(1072,506,o),
(1071,500,o),
(1024,500,cs),
(218,500,ls),
(170,500,o),
(162,505,o),
(162,540,cs),
(162,689,ls),
(162,721,o),
(165,730,o),
(208,730,cs)
);
},
{
ref = T;
}
);
vertWidth = 0;
width = 1250;
}
);
unicode = 358;
},
{
glyphname = U;
kernLeft = kc0_11;
kernRight = kc0_4;
layers = (
{
anchors = (
{
name = "Anchor-0";
pos = (876,1500);
},
{
name = "Anchor-1";
pos = (856,0);
},
{
name = "Anchor-2";
pos = (856,0);
},
{
name = "Anchor-3";
pos = (981,0);
}
);
layerId = "EAF0EFDD-E653-4C10-B7B2-F7A391578EE2";
shapes = (
{
closed = 1;
nodes = (
(1070,1390,ls),
(1045,1390,o),
(1040,1396,o),
(1040,1423,cs),
(1040,1461,ls),
(1040,1495,o),
(1048,1500,o),
(1080,1500,cs),
(1586,1500,ls),
(1620,1500,o),
(1630,1497,o),
(1630,1461,cs),
(1630,1427,ls),
(1630,1393,o),
(1620,1390,o),
(1588,1390,cs),
(1454,1390,ls),
(1417,1390,o),
(1410,1387,o),
(1410,1351,cs),
(1410,600,ls),
(1410,170,o),
(1246,-30,o),
(850,-30,cs),
(424,-30,o),
(270,234,o),
(270,600,cs),
(270,1349,ls),
(270,1387,o),
(255,1390,o),
(220,1390,cs),
(84,1390,ls),
(51,1390,o),
(50,1399,o),
(50,1433,cs),
(50,1465,ls),
(50,1497,o),
(62,1500,o),
(92,1500,cs),
(654,1500,ls),
(686,1500,o),
(700,1498,o),
(700,1463,cs),
(700,1435,ls),
(700,1394,o),
(691,1390,o),
(652,1390,cs),
(510,1390,ls),
(467,1390,o),
(460,1387,o),
(460,1345,cs),
(460,620,ls),
(460,316,o),
(552,90,o),
(880,90,cs),
(1188,90,o),
(1290,236,o),
(1290,600,cs),
(1290,1345,ls),
(1290,1384,o),
(1286,1390,o),
(1248,1390,cs)
);
}
);
vertWidth = 0;
width = 1680;
},
{
anchors = (
{
name = "Anchor-0";
pos = (996,1500);
},
{
name = "Anchor-1";
pos = (1006,0);
},
{
name = "Anchor-2";
pos = (1006,0);
},
{
name = "Anchor-3";
pos = (1371,190);
}
);
layerId = "8097EFC1-F009-4E0B-8F96-722A50586A5E";
shapes = (
{
closed = 1;
nodes = (
(1155,1230,ls),
(1107,1230,o),
(1095,1242,o),
(1095,1287,cs),
(1095,1427,ls),
(1095,1481,o),
(1097,1500,o),
(1151,1500,cs),
(1797,1500,ls),
(1840,1500,o),
(1845,1491,o),
(1845,1446,cs),
(1845,1285,ls),
(1845,1237,o),
(1838,1230,o),
(1788,1230,cs),
(1687,1230,ls),
(1635,1230,o),
(1625,1223,o),
(1625,1169,cs),
(1625,600,ls),
(1625,170,o),
(1361,-40,o),
(925,-40,cs),
(339,-40,o),
(245,254,o),
(245,620,cs),
(245,1179,ls),
(245,1225,o),
(235,1230,o),
(191,1230,cs),
(85,1230,ls),
(36,1230,o),
(25,1232,o),
(25,1281,cs),
(25,1437,ls),
(25,1486,o),
(32,1500,o),
(79,1500,cs),
(913,1500,ls),
(950,1500,o),
(955,1491,o),
(955,1452,cs),
(955,1279,ls),
(955,1239,o),
(949,1230,o),
(906,1230,cs),
(771,1230,ls),
(717,1230,o),
(715,1219,o),
(715,1164,cs),
(715,660,ls),
(715,376,o),
(787,254,o),
(1015,254,cs),
(1183,254,o),
(1345,336,o),
(1345,600,cs),
(1345,1179,ls),
(1345,1224,o),
(1333,1230,o),
(1291,1230,cs)
);
}
);
vertWidth = 0;
width = 1870;
},
{
anchors = (
{
name = "Anchor-0";
pos = (591,1500);
},
{
name = "Anchor-1";
pos = (581,0);
},
{
name = "Anchor-2";
pos = (581,0);
},
{
name = "Anchor-3";
pos = (866,190);
}
);
layerId = "871B1205-2168-46B7-8FAD-FF3EA4ADCFD7";
shapes = (
{
closed = 1;
nodes = (
(755,1390,ls),
(730,1390,o),
(725,1396,o),
(725,1423,cs),
(725,1461,ls),
(725,1495,o),
(733,1500,o),
(765,1500,cs),
(1061,1500,ls),
(1095,1500,o),
(1105,1497,o),
(1105,1461,cs),
(1105,1427,ls),
(1105,1393,o),
(1095,1390,o),
(1073,1390,cs),
(1029,1390,ls),
(992,1390,o),
(985,1387,o),
(985,1351,cs),
(985,600,ls),
(985,170,o),
(891,-30,o),
(555,-30,cs),
(209,-30,o),
(145,234,o),
(145,600,cs),
(145,1349,ls),
(145,1387,o),
(130,1390,o),
(95,1390,cs),
(59,1390,ls),
(26,1390,o),
(25,1399,o),
(25,1433,cs),
(25,1465,ls),
(25,1497,o),
(37,1500,o),
(67,1500,cs),
(419,1500,ls),
(451,1500,o),
(465,1498,o),
(465,1463,cs),
(465,1435,ls),
(465,1394,o),
(456,1390,o),
(417,1390,cs),
(385,1390,ls),
(342,1390,o),
(335,1387,o),
(335,1345,cs),
(335,620,ls),
(335,316,o),
(347,90,o),
(585,90,cs),
(823,90,o),
(865,236,o),
(865,600,cs),
(865,1345,ls),
(865,1384,o),
(861,1390,o),
(823,1390,cs)
);
}
);
vertWidth = 0;
width = 1130;
},
{
anchors = (
{
name = "Anchor-0";
pos = (791,1500);
},
{
name = "Anchor-1";
pos = (761,0);
},
{
name = "Anchor-2";
pos = (761,0);
},
{
name = "Anchor-3";
pos = (1156,190);
}
);
layerId = "E1447247-EC0C-4B84-932A-C76B64125023";
shapes = (
{
closed = 1;
nodes = (
(850,1230,ls),
(802,1230,o),
(790,1242,o),
(790,1287,cs),
(790,1427,ls),
(790,1481,o),
(792,1500,o),
(846,1500,cs),
(1282,1500,ls),
(1325,1500,o),
(1330,1491,o),
(1330,1446,cs),
(1330,1285,ls),
(1330,1237,o),
(1323,1230,o),
(1283,1230,cs),
(1272,1230,ls),
(1220,1230,o),
(1210,1223,o),
(1210,1169,cs),
(1210,600,ls),
(1210,170,o),
(1066,-40,o),
(690,-40,cs),
(164,-40,o),
(130,254,o),
(130,620,cs),
(130,1179,ls),
(130,1225,o),
(120,1230,o),
(76,1230,cs),
(70,1230,ls),
(21,1230,o),
(10,1232,o),
(10,1281,cs),
(10,1437,ls),
(10,1486,o),
(17,1500,o),
(64,1500,cs),
(688,1500,ls),
(725,1500,o),
(730,1491,o),
(730,1452,cs),
(730,1279,ls),
(730,1239,o),
(724,1230,o),
(681,1230,cs),
(656,1230,ls),
(602,1230,o),
(600,1219,o),
(600,1164,cs),
(600,660,ls),
(600,376,o),
(612,254,o),
(770,254,cs),
(888,254,o),
(930,336,o),
(930,600,cs),
(930,1179,ls),
(930,1224,o),
(918,1230,o),
(876,1230,cs)
);
}
);
vertWidth = 0;
width = 1340;
}
);
unicode = 85;
},
{
glyphname = V;
kernLeft = kc0_18;
kernRight = kc0_12;
layers = (
{
anchors = (
{
name = "Anchor-0";
pos = (906,1500);
},
{
name = "Anchor-1";
pos = (882,0);
},
{
name = "Anchor-2";
pos = (882,0);
}
);
layerId = "EAF0EFDD-E653-4C10-B7B2-F7A391578EE2";
shapes = (
{
closed = 1;
nodes = (
(1387,1347,ls),
(1402,1384,o),
(1393,1390,o),
(1337,1390,cs),
(1195,1390,ls),
(1167,1390,o),
(1160,1393,o),
(1160,1420,cs),
(1160,1469,ls),
(1160,1494,o),
(1165,1500,o),
(1189,1500,cs),
(1691,1500,ls),
(1719,1500,o),
(1720,1491,o),
(1720,1463,cs),
(1720,1426,ls),
(1720,1400,o),
(1719,1390,o),
(1693,1390,cs),
(1560,1390,ls),
(1516,1390,o),
(1509,1376,o),
(1497,1347,cs),
(946,10,ls),
(937,-13,o),
(930,-30,o),
(895,-30,cs),
(865,-30,ls),
(825,-30,o),
(815,-19,o),
(804,8,cs),
(239,1359,ls),
(228,1386,o),
(228,1390,o),
(188,1390,cs),
(32,1390,ls),
(2,1390,o),
(0,1398,o),
(0,1429,cs),
(0,1461,ls),
(0,1494,o),
(6,1500,o),
(38,1500,cs),
(622,1500,ls),
(659,1500,o),
(660,1491,o),
(660,1453,cs),
(660,1439,ls),
(660,1396,o),
(655,1390,o),
(614,1390,cs),
(508,1390,ls),
(450,1390,o),
(450,1376,o),
(465,1339,cs),
(863,351,ls),
(916,220,o),
(928,233,o),
(971,336,cs)
);
}
);
vertWidth = 0;
width = 1720;
},
{
anchors = (
{
name = "Anchor-0";
pos = (1096,1500);
},
{
name = "Anchor-1";
pos = (972,0);
},
{
name = "Anchor-2";
pos = (972,0);
}
);
layerId = "8097EFC1-F009-4E0B-8F96-722A50586A5E";
shapes = (
{
closed = 1;
nodes = (
(1373,1181,ls),
(1389,1222,o),
(1391,1230,o),
(1336,1230,cs),
(1260,1230,ls),
(1216,1230,o),
(1210,1235,o),
(1210,1277,cs),
(1210,1437,ls),
(1210,1488,o),
(1211,1500,o),
(1262,1500,cs),
(1844,1500,ls),
(1890,1500,o),
(1910,1495,o),
(1910,1444,cs),
(1910,1271,ls),
(1910,1239,o),
(1896,1230,o),
(1862,1230,cs),
(1772,1230,ls),
(1717,1230,o),
(1710,1215,o),
(1694,1179,cs),
(1189,39,ls),
(1166,-13,o),
(1169,-30,o),
(1090,-30,cs),
(838,-30,ls),
(767,-30,o),
(757,-23,o),
(737,25,cs),
(241,1187,ls),
(224,1227,o),
(221,1230,o),
(162,1230,cs),
(41,1230,ls),
(-6,1230,o),
(-10,1245,o),
(-10,1289,cs),
(-10,1451,ls),
(-10,1499,o),
(-1,1500,o),
(48,1500,cs),
(926,1500,ls),
(961,1500,o),
(970,1487,o),
(970,1450,cs),
(970,1277,ls),
(970,1236,o),
(963,1230,o),
(920,1230,cs),
(788,1230,ls),
(745,1230,o),
(738,1218,o),
(750,1186,cs),
(978,601,ls),
(1017,500,o),
(1033,341,o),
(1093,489,cs)
);
}
);
vertWidth = 0;
width = 1900;
},
{
anchors = (
{
name = "Anchor-0";
pos = (655,1500);
},
{
name = "Anchor-1";
pos = (601,0);
},
{
name = "Anchor-2";
pos = (601,0);
}
);
layerId = "871B1205-2168-46B7-8FAD-FF3EA4ADCFD7";
shapes = (
{
closed = 1;
nodes = (
(966,1353,ls),
(974,1382,o),
(965,1390,o),
(928,1390,cs),
(868,1390,ls),
(852,1390,o),
(850,1397,o),
(850,1414,cs),
(850,1485,ls),
(850,1492,o),
(854,1500,o),
(868,1500,cs),
(1171,1500,ls),
(1209,1500,o),
(1210,1495,o),
(1210,1462,cs),
(1210,1434,ls),
(1210,1406,o),
(1205,1390,o),
(1175,1390,cs),
(1133,1390,ls),
(1111,1390,o),
(1103,1376,o),
(1098,1361,cs),
(733,4,ls),
(732,1,o),
(730,-10,o),
(718,-10,cs),
(527,-10,ls),
(511,-10,o),
(505,5,o),
(501,16,cs),
(143,1341,ls),
(134,1366,o),
(139,1390,o),
(101,1390,cs),
(34,1390,ls),
(16,1390,o),
(0,1383,o),
(0,1409,cs),
(0,1465,ls),
(0,1490,o),
(3,1500,o),
(25,1500,cs),
(435,1500,ls),
(477,1500,o),
(470,1495,o),
(470,1454,cs),
(470,1435,ls),
(470,1395,o),
(466,1390,o),
(431,1390,cs),
(383,1390,ls),
(330,1390,o),
(328,1380,o),
(339,1334,cs),
(630,194,ls),
(644,134,o),
(657,153,o),
(671,208,cs)
);
}
);
vertWidth = 0;
width = 1210;
},
{
anchors = (
{
name = "Anchor-0";
pos = (845,1500);
},
{
name = "Anchor-1";
pos = (721,0);
},
{
name = "Anchor-2";
pos = (721,0);
}
);
layerId = "E1447247-EC0C-4B84-932A-C76B64125023";
shapes = (
{
closed = 1;
nodes = (
(952,1187,ls),
(965,1219,o),
(963,1230,o),
(927,1230,cs),
(923,1230,ls),
(891,1230,o),
(890,1239,o),
(890,1271,cs),
(890,1463,ls),
(890,1496,o),
(900,1500,o),
(931,1500,cs),
(1324,1500,ls),
(1380,1500,o),
(1390,1499,o),
(1390,1443,cs),
(1390,1279,ls),
(1390,1245,o),
(1382,1230,o),
(1344,1230,cs),
(1279,1230,ls),
(1246,1230,o),
(1248,1215,o),
(1239,1193,cs),
(962,23,ls),
(949,-9,o),
(945,-10,o),
(899,-10,cs),
(499,-10,ls),
(452,-10,o),
(446,1,o),
(433,33,cs),
(152,1169,ls),
(137,1207,o),
(142,1230,o),
(85,1230,cs),
(53,1230,ls),
(18,1230,o),
(0,1230,o),
(0,1269,cs),
(0,1455,ls),
(0,1495,o),
(6,1500,o),
(45,1500,cs),
(739,1500,ls),
(779,1500,o),
(780,1491,o),
(780,1451,cs),
(780,1273,ls),
(780,1235,o),
(774,1230,o),
(737,1230,cs),
(723,1230,ls),
(665,1230,o),
(660,1220,o),
(674,1181,cs),
(776,497,ls),
(792,451,o),
(808,470,o),
(821,501,cs)
);
}
);
vertWidth = 0;
width = 1390;
}
);
unicode = 86;
},
{
glyphname = W;
kernLeft = kc0_18;
kernRight = kc0_12;
layers = (
{
anchors = (
{
name = "Anchor-0";
pos = (1226,1500);
},
{
name = "Anchor-1";
pos = (1186,0);
},
{
name = "Anchor-2";
pos = (1186,0);
}
);
layerId = "EAF0EFDD-E653-4C10-B7B2-F7A391578EE2";
shapes = (
{
closed = 1;
nodes = (
(1141,1156,ls),
(1156,1198,o),
(1167,1219,o),
(1153,1264,cs),
(1124,1352,ls),
(1114,1383,o),
(1105,1390,o),
(1065,1390,cs),
(977,1390,ls),
(942,1390,o),
(940,1398,o),
(940,1434,cs),
(940,1452,ls),
(940,1495,o),
(946,1500,o),
(987,1500,cs),
(1463,1500,ls),
(1494,1500,o),
(1500,1494,o),
(1500,1462,cs),
(1500,1436,ls),
(1500,1391,o),
(1480,1390,o),
(1439,1390,cs),
(1381,1390,ls),
(1328,1390,o),
(1312,1384,o),
(1325,1341,cs),
(1605,406,ls),
(1619,357,o),
(1626,284,o),
(1639,284,cs),
(1648,284,o),
(1657,291,o),
(1671,334,cs),
(2012,1358,ls),
(2022,1388,o),
(2027,1390,o),
(1985,1390,cs),
(1837,1390,ls),
(1802,1390,o),
(1800,1398,o),
(1800,1434,cs),
(1800,1450,ls),
(1800,1491,o),
(1802,1500,o),
(1843,1500,cs),
(2311,1500,ls),
(2351,1500,o),
(2360,1498,o),
(2360,1458,cs),
(2360,1434,ls),
(2360,1395,o),
(2353,1390,o),
(2315,1390,cs),
(2177,1390,ls),
(2134,1390,o),
(2136,1383,o),
(2126,1352,cs),
(1679,8,ls),
(1670,-18,o),
(1670,-20,o),
(1635,-20,cs),
(1593,-20,ls),
(1557,-20,o),
(1552,-12,o),
(1543,16,cs),
(1277,866,ls),
(1257,930,o),
(1248,1024,o),
(1226,1025,cs),
(1217,1025,o),
(1205,1009,o),
(1189,966,cs),
(845,20,ls),
(834,-11,o),
(836,-20,o),
(791,-20,cs),
(749,-20,ls),
(711,-20,o),
(705,-6,o),
(696,20,cs),
(229,1350,ls),
(217,1383,o),
(207,1390,o),
(163,1390,cs),
(41,1390,ls),
(6,1390,o),
(0,1394,o),
(0,1428,cs),
(0,1454,ls),
(0,1494,o),
(4,1500,o),
(43,1500,cs),
(605,1500,ls),
(642,1500,o),
(660,1490,o),
(660,1450,cs),
(660,1425,ls),
(660,1393,o),
(645,1390,o),
(615,1390,cs),
(481,1390,ls),
(424,1390,o),
(422,1376,o),
(435,1338,cs),
(743,428,ls),
(764,365,o),
(776,266,o),
(800,266,cs),
(810,266,o),
(821,282,o),
(836,322,cs)
);
}
);
vertWidth = 0;
width = 2360;
},
{
anchors = (
{
name = "Anchor-0";
pos = (1396,1500);
},
{
name = "Anchor-1";
pos = (1306,0);
},
{
name = "Anchor-2";
pos = (1306,0);
}
);
layerId = "8097EFC1-F009-4E0B-8F96-722A50586A5E";
shapes = (
{
closed = 1;
nodes = (
(1193,1092,ls),
(1211,1129,o),
(1223,1145,o),
(1208,1186,cs),
(1199,1210,ls),
(1193,1227,o),
(1188,1230,o),
(1165,1230,cs),
(1049,1230,ls),
(1011,1230,o),
(1010,1239,o),
(1010,1278,cs),
(1010,1435,ls),
(1010,1489,o),
(1011,1500,o),
(1065,1500,cs),
(1733,1500,ls),
(1767,1500,o),
(1810,1498,o),
(1810,1460,cs),
(1810,1294,ls),
(1810,1251,o),
(1809,1230,o),
(1762,1230,cs),
(1710,1230,ls),
(1663,1230,o),
(1663,1220,o),
(1674,1188,cs),
(1809,780,ls),
(1830,717,o),
(1843,613,o),
(1869,613,cs),
(1878,613,o),
(1888,631,o),
(1900,666,cs),
(2073,1164,ls),
(2090,1213,o),
(2103,1230,o),
(2029,1230,cs),
(1967,1230,ls),
(1922,1230,o),
(1910,1236,o),
(1910,1284,cs),
(1910,1442,ls),
(1910,1494,o),
(1917,1500,o),
(1967,1500,cs),
(2529,1500,ls),
(2570,1500,o),
(2590,1498,o),
(2590,1453,cs),
(2590,1272,ls),
(2590,1233,o),
(2581,1230,o),
(2541,1230,cs),
(2423,1230,ls),
(2363,1230,o),
(2358,1215,o),
(2343,1172,cs),
(1944,18,ls),
(1931,-19,o),
(1920,-20,o),
(1871,-20,cs),
(1709,-20,ls),
(1653,-20,o),
(1657,-7,o),
(1642,32,cs),
(1418,628,ls),
(1396,688,o),
(1375,813,o),
(1343,813,cs),
(1333,813,o),
(1322,804,o),
(1310,778,cs),
(953,28,ls),
(935,-9,o),
(937,-20,o),
(879,-20,cs),
(727,-20,ls),
(664,-20,o),
(659,-19,o),
(643,26,cs),
(228,1176,ls),
(211,1224,o),
(211,1230,o),
(143,1230,cs),
(37,1230,ls),
(-3,1230,o),
(-10,1235,o),
(-10,1276,cs),
(-10,1448,ls),
(-10,1498,o),
(6,1500,o),
(53,1500,cs),
(821,1500,ls),
(874,1500,o),
(890,1499,o),
(890,1442,cs),
(890,1290,ls),
(890,1239,o),
(888,1230,o),
(837,1230,cs),
(793,1230,ls),
(755,1230,o),
(734,1230,o),
(745,1196,cs),
(891,764,ls),
(910,705,o),
(922,622,o),
(946,622,cs),
(967,622,o),
(978,643,o),
(994,676,cs)
);
}
);
vertWidth = 0;
width = 2580;
},
{
anchors = (
{
name = "Anchor-0";
pos = (846,1500);
},
{
name = "Anchor-1";
pos = (876,0);
},
{
name = "Anchor-2";
pos = (876,0);
}
);
layerId = "871B1205-2168-46B7-8FAD-FF3EA4ADCFD7";
shapes = (
{
closed = 1;
nodes = (
(791,1146,ls),
(800,1190,o),
(795,1212,o),
(792,1240,cs),
(764,1352,ls),
(757,1384,o),
(745,1390,o),
(705,1390,cs),
(717,1390,ls),
(682,1390,o),
(680,1398,o),
(680,1434,cs),
(680,1452,ls),
(680,1495,o),
(686,1500,o),
(727,1500,cs),
(1023,1500,ls),
(1054,1500,o),
(1060,1494,o),
(1060,1462,cs),
(1060,1436,ls),
(1060,1391,o),
(1040,1390,o),
(1029,1390,cs),
(1001,1390,ls),
(978,1390,o),
(956,1385,o),
(965,1341,cs),
(1140,486,ls),
(1150,436,o),
(1151,364,o),
(1164,364,cs),
(1173,364,o),
(1185,370,o),
(1196,414,cs),
(1382,1358,ls),
(1391,1388,o),
(1377,1390,o),
(1365,1390,cs),
(1287,1390,ls),
(1272,1390,o),
(1270,1398,o),
(1270,1434,cs),
(1270,1450,ls),
(1270,1491,o),
(1272,1500,o),
(1313,1500,cs),
(1601,1500,ls),
(1641,1500,o),
(1650,1498,o),
(1650,1458,cs),
(1650,1434,ls),
(1650,1395,o),
(1643,1390,o),
(1605,1390,cs),
(1567,1390,ls),
(1524,1390,o),
(1521,1384,o),
(1516,1352,cs),
(1234,8,ls),
(1229,-19,o),
(1225,-20,o),
(1190,-20,cs),
(1118,-20,ls),
(1082,-20,o),
(1069,-16,o),
(1068,16,cs),
(908,826,ls),
(902,882,o),
(889,885,o),
(877,885,cs),
(858,886,o),
(848,851,o),
(840,796,cs),
(650,20,ls),
(648,-13,o),
(641,-20,o),
(596,-20,cs),
(534,-20,ls),
(496,-20,o),
(487,-7,o),
(481,20,cs),
(159,1350,ls),
(147,1383,o),
(137,1390,o),
(93,1390,cs),
(71,1390,ls),
(36,1390,o),
(30,1394,o),
(30,1428,cs),
(30,1454,ls),
(30,1494,o),
(34,1500,o),
(73,1500,cs),
(423,1500,ls),
(460,1500,o),
(478,1490,o),
(478,1450,cs),
(478,1425,ls),
(478,1404,o),
(462,1390,o),
(447,1390,cs),
(359,1390,ls),
(332,1390,o),
(340,1376,o),
(353,1338,cs),
(545,527,ls),
(565,464,o),
(570,375,o),
(593,375,cs),
(612,375,o),
(618,409,o),
(628,451,cs)
);
}
);
vertWidth = 0;
width = 1680;
},
{
anchors = (
{
name = "Anchor-0";
pos = (1056,1500);
},
{
name = "Anchor-1";
pos = (966,0);
},
{
name = "Anchor-2";
pos = (966,0);
}
);
layerId = "E1447247-EC0C-4B84-932A-C76B64125023";
shapes = (
{
closed = 1;
nodes = (
(853,1092,ls),
(865.194,1130.823,o),
(871.021,1137.868,o),
(867,1162,cs),
(859,1210,ls),
(856.081,1227.514,o),
(848,1230,o),
(825,1230,cs),
(809,1230,ls),
(771,1230,o),
(770,1239,o),
(770,1278,cs),
(770,1435,ls),
(770,1489,o),
(771,1500,o),
(825,1500,cs),
(1293,1500,ls),
(1327,1500,o),
(1370,1498,o),
(1370,1460,cs),
(1370,1294,ls),
(1370,1251,o),
(1369,1230,o),
(1352,1230,cs),
(1330,1230,ls),
(1313,1230,o),
(1307.039,1220.855,o),
(1314,1188,cs),
(1339,1070,ls),
(1352.676,1005.448,o),
(1373,903,o),
(1399,903,cs),
(1408,903,o),
(1420.894,920.263,o),
(1430,956,cs),
(1483,1164,ls),
(1495.761,1214.08,o),
(1503,1230,o),
(1469,1230,cs),
(1457,1230,ls),
(1432,1230,o),
(1420,1236,o),
(1420,1284,cs),
(1420,1442,ls),
(1420,1494,o),
(1427,1500,o),
(1477,1500,cs),
(1859,1500,ls),
(1900,1500,o),
(1920,1498,o),
(1920,1453,cs),
(1920,1272,ls),
(1920,1233,o),
(1911,1230,o),
(1871,1230,cs),
(1853,1230,ls),
(1793,1230,o),
(1783.094,1216.122,o),
(1773,1172,cs),
(1509,18,ls),
(1500.31,-19.986,o),
(1485,-20,o),
(1436,-20,cs),
(1204,-20,ls),
(1147.735,-20,o),
(1143.671,-11.173,o),
(1137,32,cs),
(1048,608,ls),
(1039.979,659.908,o),
(1045,693,o),
(1003,693,cs),
(973,693,o),
(968.108,664.856,o),
(960,628,cs),
(828,28,ls),
(819.405,-11.069,o),
(812,-20,o),
(754,-20,cs),
(542,-20,ls),
(479,-20,o),
(470.771,-19.898,o),
(458,26,cs),
(138,1176,ls),
(121,1224,o),
(121,1230,o),
(53,1230,cs),
(47,1230,ls),
(7,1230,o),
(0,1235,o),
(0,1276,cs),
(0,1448,ls),
(0,1498,o),
(16,1500,o),
(63,1500,cs),
(631,1500,ls),
(684,1500,o),
(700,1499,o),
(700,1442,cs),
(700,1290,ls),
(700,1239,o),
(688,1230,o),
(667,1230,cs),
(663,1230,ls),
(655,1230,o),
(644,1230,o),
(655,1196,cs),
(701,1024,ls),
(720,965,o),
(732,882,o),
(756,882,cs),
(777,882,o),
(793.129,901.389,o),
(804,936,cs)
);
}
);
vertWidth = 0;
width = 1920;
}
);
unicode = 87;
},
{
glyphname = X;
kernLeft = kc0_24;
kernRight = kc0_18;
layers = (
{
anchors = (
{
name = "Anchor-0";
pos = (896,1500);
},
{
name = "Anchor-1";
pos = (846,0);
},
{
name = "Anchor-2";
pos = (846,0);
}
);
layerId = "EAF0EFDD-E653-4C10-B7B2-F7A391578EE2";
shapes = (
{
closed = 1;
nodes = (
(20,87,ls),
(20,105,o),
(29,110,o),
(45,110,cs),
(213,110,ls),
(260,110,o),
(264,116,o),
(284,141,cs),
(733,707,ls),
(779,764,o),
(766,770,o),
(722,827,cs),
(317,1360,ls),
(300,1382,o),
(298,1390,o),
(256,1390,cs),
(136,1390,ls),
(105,1390,o),
(90,1392,o),
(90,1426,cs),
(90,1468,ls),
(90,1494,o),
(95,1500,o),
(120,1500,cs),
(717,1500,ls),
(740,1500,o),
(750,1499,o),
(750,1476,cs),
(750,1421,ls),
(750,1396,o),
(745,1390,o),
(721,1390,cs),
(587,1390,ls),
(539,1390,o),
(528,1387,o),
(548,1361,cs),
(864,950,ls),
(906,895,o),
(904,895,o),
(947,950,cs),
(1264,1358,ls),
(1285,1385,o),
(1288,1390,o),
(1235,1390,cs),
(1090,1390,ls),
(1060,1390,o),
(1050,1390,o),
(1050,1420,cs),
(1050,1469,ls),
(1050,1495,o),
(1057,1500,o),
(1081,1500,cs),
(1605,1500,ls),
(1640,1500,o),
(1650,1497,o),
(1650,1459,cs),
(1650,1421,ls),
(1650,1395,o),
(1642,1390,o),
(1617,1390,cs),
(1451,1390,ls),
(1415,1390,o),
(1413,1381,o),
(1398,1362,cs),
(1026,879,ls),
(977,816,o),
(970,812,o),
(1020,747,cs),
(1479,148,ls),
(1501,119,o),
(1505,110,o),
(1559,110,cs),
(1681,110,ls),
(1710,110,o),
(1720,106,o),
(1720,75,cs),
(1720,38,ls),
(1720,8,o),
(1717,0,o),
(1688,0,cs),
(1091,0,ls),
(1067,0,o),
(1060,4,o),
(1060,27,cs),
(1060,79,ls),
(1060,106,o),
(1071,110,o),
(1096,110,cs),
(1234,110,ls),
(1272,110,o),
(1256,125,o),
(1244,141,cs),
(887,611,ls),
(838,675,o),
(839,675,o),
(789,611,cs),
(430,154,ls),
(404,121,o),
(408,110,o),
(478,110,cs),
(586,110,ls),
(613,110,o),
(620,106,o),
(620,79,cs),
(620,32,ls),
(620,7,o),
(616,0,o),
(592,0,cs),
(50,0,ls),
(24,0,o),
(20,7,o),
(20,34,cs)
);
}
);
vertWidth = 0;
width = 1740;
},
{
anchors = (
{
name = "Anchor-0";
pos = (996,1500);
},
{
name = "Anchor-1";
pos = (846,0);
},
{
name = "Anchor-2";
pos = (846,0);
}
);
layerId = "8097EFC1-F009-4E0B-8F96-722A50586A5E";
shapes = (
{
closed = 1;
nodes = (
(0,211,ls),
(0,258,o),
(1,270,o),
(48,270,cs),
(160,270,ls),
(215,270,o),
(222,279,o),
(248,305,cs),
(606,658,ls),
(672,723,o),
(663,724,o),
(602,791,cs),
(243,1181,ls),
(214,1212,o),
(210,1230,o),
(146,1230,cs),
(66,1230,ls),
(16,1230,o),
(10,1236,o),
(10,1288,cs),
(10,1431,ls),
(10,1489,o),
(12,1500,o),
(70,1500,cs),
(892,1500,ls),
(937,1500,o),
(950,1496,o),
(950,1448,cs),
(950,1280,ls),
(950,1240,o),
(948,1230,o),
(908,1230,cs),
(806,1230,ls),
(743,1230,o),
(778,1208,o),
(803,1181,cs),
(955,1019,ls),
(996,975,o),
(1006,995,o),
(1046,1037,cs),
(1190,1187,ls),
(1228,1227,o),
(1221,1230,o),
(1138,1230,cs),
(1100,1230,ls),
(1057,1230,o),
(1050,1233,o),
(1050,1275,cs),
(1050,1446,ls),
(1050,1492,o),
(1053,1500,o),
(1098,1500,cs),
(1766,1500,ls),
(1795,1500,o),
(1800,1492,o),
(1800,1461,cs),
(1800,1275,ls),
(1800,1232,o),
(1792,1230,o),
(1748,1230,cs),
(1640,1230,ls),
(1592,1230,o),
(1581,1226,o),
(1558,1204,cs),
(1194,846,ls),
(1140,793,o),
(1175,782,o),
(1222,731,cs),
(1615,307,ls),
(1639,281,o),
(1643,270,o),
(1696,270,cs),
(1786,270,ls),
(1825,270,o),
(1840,263,o),
(1840,225,cs),
(1840,43,ls),
(1840,2,o),
(1832,0,o),
(1790,0,cs),
(956,0,ls),
(912,0,o),
(900,1,o),
(900,45,cs),
(900,222,ls),
(900,260,o),
(902,270,o),
(940,270,cs),
(994,270,ls),
(1080,270,o),
(1056,296,o),
(1026,329,cs),
(869,504,ls),
(839,536,o),
(829,543,o),
(799,511,cs),
(615,317,ls),
(587,287,o),
(568,270,o),
(644,270,cs),
(702,270,ls),
(744,270,o),
(760,260,o),
(760,215,cs),
(760,79,ls),
(760,18,o),
(743,0,o),
(686,0,cs),
(48,0,ls),
(1,0,o),
(0,11,o),
(0,59,cs)
);
}
);
vertWidth = 0;
width = 1840;
},
{
anchors = (
{
name = "Anchor-0";
pos = (646,1500);
},
{
name = "Anchor-1";
pos = (616,0);
},
{
name = "Anchor-2";
pos = (616,0);
}
);
layerId = "871B1205-2168-46B7-8FAD-FF3EA4ADCFD7";
shapes = (
{
closed = 1;
nodes = (
(10,87,ls),
(10,105,o),
(19,110,o),
(35,110,cs),
(103,110,ls),
(150,110,o),
(161,112,o),
(174,141,cs),
(513,697,ls),
(536,740,o),
(523,776,o),
(502,817,cs),
(207,1360,ls),
(194,1385,o),
(188,1390,o),
(176,1390,cs),
(126,1390,ls),
(95,1390,o),
(80,1392,o),
(80,1426,cs),
(80,1468,ls),
(80,1494,o),
(85,1500,o),
(110,1500,cs),
(507,1500,ls),
(530,1500,o),
(540,1499,o),
(540,1476,cs),
(540,1421,ls),
(540,1396,o),
(535,1390,o),
(511,1390,cs),
(447,1390,ls),
(419,1390,o),
(406,1385,o),
(418,1361,cs),
(629,930,ls),
(661,875,o),
(648,873,o),
(682,930,cs),
(895,1358,ls),
(906,1381,o),
(905,1390,o),
(875,1390,cs),
(790,1390,ls),
(780,1390,o),
(770,1390,o),
(770,1420,cs),
(770,1469,ls),
(770,1495,o),
(777,1500,o),
(801,1500,cs),
(1125,1500,ls),
(1160,1500,o),
(1170,1497,o),
(1170,1459,cs),
(1170,1421,ls),
(1170,1395,o),
(1162,1390,o),
(1137,1390,cs),
(1071,1390,ls),
(1035,1390,o),
(1029,1384,o),
(1018,1362,cs),
(761,859,ls),
(742,808,o),
(718,800,o),
(755,727,cs),
(1099,148,ls),
(1114,115,o),
(1135,110,o),
(1169,110,cs),
(1211,110,ls),
(1230,110,o),
(1240,106,o),
(1240,75,cs),
(1240,38,ls),
(1240,8,o),
(1237,0,o),
(1208,0,cs),
(811,0,ls),
(787,0,o),
(780,4,o),
(780,27,cs),
(780,79,ls),
(780,106,o),
(791,110,o),
(796,110,cs),
(894,110,ls),
(907,110,o),
(893,124,o),
(884,141,cs),
(634,601,ls),
(604,655,o),
(605,648,o),
(576,601,cs),
(310,154,ls),
(289,119,o),
(318,110,o),
(338,110,cs),
(406,110,ls),
(413,110,o),
(420,106,o),
(420,79,cs),
(420,32,ls),
(420,7,o),
(416,0,o),
(392,0,cs),
(40,0,ls),
(14,0,o),
(10,7,o),
(10,34,cs)
);
}
);
vertWidth = 0;
width = 1250;
},
{
anchors = (
{
name = "Anchor-0";
pos = (776,1500);
},
{
name = "Anchor-1";
pos = (626,0);
},
{
name = "Anchor-2";
pos = (626,0);
}
);
layerId = "E1447247-EC0C-4B84-932A-C76B64125023";
shapes = (
{
closed = 1;
nodes = (
(0,211,ls),
(0,258,o),
(1,270,o),
(48,270,cs),
(60,270,ls),
(115,270,o),
(129.198,274.555,o),
(148,305,cs),
(366,658,ls),
(399.869,712.843,o),
(392.42,736.828,o),
(362,791,cs),
(143,1181,ls),
(122.813,1216.949,o),
(110,1230,o),
(76,1230,cs),
(66,1230,ls),
(16,1230,o),
(10,1236,o),
(10,1288,cs),
(10,1431,ls),
(10,1489,o),
(12,1500,o),
(70,1500,cs),
(692,1500,ls),
(737,1500,o),
(750,1496,o),
(750,1448,cs),
(750,1280,ls),
(750,1240,o),
(748,1230,o),
(708,1230,cs),
(706,1230,ls),
(663,1230,o),
(671.575,1208.225,o),
(683,1181,cs),
(730,1069,ls),
(750.493,1020.166,o),
(771.186,1037.463,o),
(791,1087,cs),
(831,1187,ls),
(846.387,1225.467,o),
(831,1230,o),
(818,1230,cs),
(810,1230,ls),
(787,1230,o),
(780,1233,o),
(780,1275,cs),
(780,1446,ls),
(780,1492,o),
(783,1500,o),
(828,1500,cs),
(1296,1500,ls),
(1325,1500,o),
(1330,1492,o),
(1330,1461,cs),
(1330,1275,ls),
(1330,1232,o),
(1322,1230,o),
(1278,1230,cs),
(1270,1230,ls),
(1222,1230,o),
(1203.744,1230.338,o),
(1188,1204,cs),
(974,846,ls),
(949.655,805.273,o),
(968.377,789.667,o),
(1002,731,cs),
(1245,307,ls),
(1262.15,277.074,o),
(1283,270,o),
(1316,270,cs),
(1326,270,ls),
(1355,270,o),
(1370,263,o),
(1370,225,cs),
(1370,43,ls),
(1370,2,o),
(1362,0,o),
(1320,0,cs),
(686,0,ls),
(642,0,o),
(630,1,o),
(630,45,cs),
(630,222,ls),
(630,260,o),
(632,270,o),
(650,270,cs),
(664,270,ls),
(700,270,o),
(693.978,292.756,o),
(676,329,cs),
(614,454,ls),
(603.3,475.573,o),
(593.187,475.864,o),
(584,461,cs),
(495,317,ls),
(474.532,283.884,o),
(478,270,o),
(504,270,cs),
(522,270,ls),
(544,270,o),
(560,260,o),
(560,215,cs),
(560,79,ls),
(560,18,o),
(543,0,o),
(486,0,cs),
(48,0,ls),
(1,0,o),
(0,11,o),
(0,59,cs)
);
}
);
vertWidth = 0;
width = 1370;
}
);
unicode = 88;
},
{
glyphname = Y;
kernLeft = kc0_23;
kernRight = kc0_15;
layers = (
{
anchors = (
{
name = "Anchor-0";
pos = (816,1500);
},
{
name = "Anchor-1";
pos = (796,0);
},
{
name = "Anchor-2";
pos = (796,0);
}
);
layerId = "EAF0EFDD-E653-4C10-B7B2-F7A391578EE2";
shapes = (
{
closed = 1;
nodes = (
(490,70,ls),
(490,107,o),
(500,110,o),
(534,110,cs),
(670,110,ls),
(704,110,o),
(710,115,o),
(710,148,cs),
(710,540,ls),
(710,600,o),
(705,625,o),
(683,658,cs),
(218,1354,ls),
(198,1385,o),
(194,1390,o),
(140,1390,cs),
(34,1390,ls),
(9,1390,o),
(0,1391,o),
(0,1416,cs),
(0,1462,ls),
(0,1493,o),
(4,1500,o),
(34,1500,cs),
(626,1500,ls),
(655,1500,o),
(660,1494,o),
(660,1464,cs),
(660,1432,ls),
(660,1397,o),
(656,1390,o),
(622,1390,cs),
(484,1390,ls),
(430,1390,o),
(421,1379,o),
(439,1352,cs),
(796,820,ls),
(831,767,o),
(829,768,o),
(864,822,cs),
(1206,1348,ls),
(1233,1389,o),
(1228,1390,o),
(1160,1390,cs),
(1004,1390,ls),
(975,1390,o),
(970,1397,o),
(970,1424,cs),
(970,1458,ls),
(970,1492,o),
(973,1500,o),
(1006,1500,cs),
(1538,1500,ls),
(1569,1500,o),
(1570,1491,o),
(1570,1460,cs),
(1570,1432,ls),
(1570,1394,o),
(1563,1390,o),
(1524,1390,cs),
(1428,1390,ls),
(1360,1390,o),
(1360,1371,o),
(1335,1332,cs),
(932,714,ls),
(910,680,o),
(900,663,o),
(900,602,cs),
(900,150,ls),
(900,110,o),
(900,110,o),
(940,110,cs),
(1110,110,ls),
(1132,110,o),
(1140,107,o),
(1140,86,cs),
(1140,40,ls),
(1140,1,o),
(1126,0,o),
(1090,0,cs),
(536,0,ls),
(506,0,o),
(490,1,o),
(490,34,cs)
);
}
);
vertWidth = 0;
width = 1570;
},
{
anchors = (
{
name = "Anchor-0";
pos = (986,1500);
},
{
name = "Anchor-1";
pos = (901,0);
},
{
name = "Anchor-2";
pos = (901,0);
}
);
layerId = "8097EFC1-F009-4E0B-8F96-722A50586A5E";
shapes = (
{
closed = 1;
nodes = (
(450,224,ls),
(450,262,o),
(453,270,o),
(490,270,cs),
(626,270,ls),
(666,270,o),
(670,278,o),
(670,319,cs),
(670,463,ls),
(670,517,o),
(661,531,o),
(641,561,cs),
(214,1184,ls),
(191,1218,o),
(189,1230,o),
(129,1230,cs),
(23,1230,ls),
(-19,1230,o),
(-20,1239,o),
(-20,1281,cs),
(-20,1430,ls),
(-20,1492,o),
(-1,1500,o),
(57,1500,cs),
(851,1500,ls),
(902,1500,o),
(920,1497,o),
(920,1442,cs),
(920,1277,ls),
(920,1237,o),
(913,1230,o),
(874,1230,cs),
(789,1230,ls),
(739,1230,o),
(731,1219,o),
(760,1176,cs),
(932,926,ls),
(987,847,o),
(986,857,o),
(1043,930,cs),
(1236,1180,ls),
(1269,1222,o),
(1249,1230,o),
(1207,1230,cs),
(1130,1230,ls),
(1079,1230,o),
(1070,1232,o),
(1070,1283,cs),
(1070,1450,ls),
(1070,1495,o),
(1076,1500,o),
(1120,1500,cs),
(1741,1500,ls),
(1775,1500,o),
(1790,1499,o),
(1790,1461,cs),
(1790,1257,ls),
(1790,1232,o),
(1779,1230,o),
(1753,1230,cs),
(1687,1230,ls),
(1628,1230,o),
(1624,1219,o),
(1599,1188,cs),
(1180,669,ls),
(1154,636,o),
(1140,626,o),
(1140,563,cs),
(1140,317,ls),
(1140,279,o),
(1143,270,o),
(1180,270,cs),
(1339,270,ls),
(1378,270,o),
(1380,261,o),
(1380,221,cs),
(1380,39,ls),
(1380,8,o),
(1376,0,o),
(1346,0,cs),
(482,0,ls),
(455,0,o),
(450,7,o),
(450,36,cs)
);
}
);
vertWidth = 0;
width = 1770;
},
{
anchors = (
{
name = "Anchor-0";
pos = (576,1500);
},
{
name = "Anchor-1";
pos = (591,0);
},
{
name = "Anchor-2";
pos = (591,0);
}
);
layerId = "871B1205-2168-46B7-8FAD-FF3EA4ADCFD7";
shapes = (
{
closed = 1;
nodes = (
(370,70,ls),
(370,107,o),
(380,110,o),
(414,110,cs),
(450,110,ls),
(484,110,o),
(490,115,o),
(490,148,cs),
(490,540,ls),
(490,600,o),
(481,623,o),
(463,658,cs),
(118,1354,ls),
(103,1387,o),
(94,1390,o),
(40,1390,cs),
(34,1390,ls),
(9,1390,o),
(0,1391,o),
(0,1416,cs),
(0,1462,ls),
(0,1493,o),
(4,1500,o),
(34,1500,cs),
(421,1500,ls),
(450,1500,o),
(455,1494,o),
(455,1464,cs),
(455,1432,ls),
(455,1397,o),
(447,1390,o),
(427,1390,cs),
(369,1390,ls),
(325,1390,o),
(321,1380,o),
(334,1352,cs),
(576,820,ls),
(606,769,o),
(607,769,o),
(634,822,cs),
(846,1348,ls),
(863,1391,o),
(858,1390,o),
(810,1390,cs),
(724,1390,ls),
(714,1390,o),
(710,1395,o),
(710,1424,cs),
(710,1458,ls),
(710,1492,o),
(713,1500,o),
(746,1500,cs),
(1108,1500,ls),
(1139,1500,o),
(1140,1491,o),
(1140,1460,cs),
(1140,1432,ls),
(1140,1394,o),
(1133,1390,o),
(1094,1390,cs),
(1028,1390,ls),
(1000,1390,o),
(993,1375,o),
(975,1332,cs),
(712,704,ls),
(697,666,o),
(680,653,o),
(680,592,cs),
(680,150,ls),
(680,110,o),
(680,110,o),
(720,110,cs),
(790,110,ls),
(812,110,o),
(820,107,o),
(820,86,cs),
(820,40,ls),
(820,1,o),
(806,0,o),
(770,0,cs),
(416,0,ls),
(386,0,o),
(370,1,o),
(370,34,cs)
);
}
);
vertWidth = 0;
width = 1140;
},
{
anchors = (
{
name = "Anchor-0";
pos = (786,1500);
},
{
name = "Anchor-1";
pos = (701,0);
},
{
name = "Anchor-2";
pos = (701,0);
}
);
layerId = "E1447247-EC0C-4B84-932A-C76B64125023";
shapes = (
{
closed = 1;
nodes = (
(350,224,ls),
(350,262,o),
(353,270,o),
(390,270,cs),
(426,270,ls),
(466,270,o),
(470,278,o),
(470,319,cs),
(470,463,ls),
(470,517,o),
(456.803,528.932,o),
(441,561,cs),
(134,1184,ls),
(116.025,1220.477,o),
(109,1230,o),
(49,1230,cs),
(43,1230,ls),
(1,1230,o),
(0,1239,o),
(0,1281,cs),
(0,1430,ls),
(0,1492,o),
(19,1500,o),
(77,1500,cs),
(671,1500,ls),
(722,1500,o),
(740,1497,o),
(740,1442,cs),
(740,1277,ls),
(740,1237,o),
(729,1230,o),
(704,1230,cs),
(699,1230,ls),
(659,1230,o),
(659.955,1220.544,o),
(680,1176,cs),
(752,1016,ls),
(789.021,933.733,o),
(787.65,942.522,o),
(823,1020,cs),
(896,1180,ls),
(916.361,1224.628,o),
(899,1230,o),
(877,1230,cs),
(870,1230,ls),
(849,1230,o),
(830,1232,o),
(830,1283,cs),
(830,1450,ls),
(830,1495,o),
(836,1500,o),
(880,1500,cs),
(1331,1500,ls),
(1365,1500,o),
(1380,1499,o),
(1380,1461,cs),
(1380,1257,ls),
(1380,1232,o),
(1369,1230,o),
(1343,1230,cs),
(1307,1230,ls),
(1288,1230,o),
(1277.26,1222.621,o),
(1259,1188,cs),
(980,659,ls),
(960.698,622.402,o),
(940,616,o),
(940,553,cs),
(940,317,ls),
(940,279,o),
(943,270,o),
(980,270,cs),
(1039,270,ls),
(1078,270,o),
(1080,261,o),
(1080,221,cs),
(1080,39,ls),
(1080,8,o),
(1076,0,o),
(1046,0,cs),
(382,0,ls),
(355,0,o),
(350,7,o),
(350,36,cs)
);
}
);
vertWidth = 0;
width = 1380;
}
);
unicode = 89;
},
{
glyphname = Z;
kernLeft = kc0_22;
kernRight = kc0_14;
layers = (
{
anchors = (
{
name = "Anchor-0";
pos = (736,1500);
},
{
name = "Anchor-1";
pos = (776,0);
},
{
name = "Anchor-2";
pos = (776,0);
}
);
layerId = "EAF0EFDD-E653-4C10-B7B2-F7A391578EE2";
shapes = (
{
closed = 1;
nodes = (
(1302,1500,ls),
(1327,1500,o),
(1330,1492,o),
(1330,1466,cs),
(1330,1434,ls),
(1330,1386,o),
(1310,1364,o),
(1289,1338,cs),
(418,234,ls),
(384,190,o),
(336,160,o),
(336,132,cs),
(336,119,o),
(342,110,o),
(372,110,cs),
(970,110,ls),
(1231,110,o),
(1304,188,o),
(1310,468,cs),
(1311,494,o),
(1311,510,o),
(1341,510,cs),
(1376,510,ls),
(1408,510,o),
(1410,497,o),
(1410,468,cs),
(1410,58,ls),
(1410,4,o),
(1404,0,o),
(1348,0,cs),
(128,0,ls),
(100,0,o),
(90,4,o),
(90,34,cs),
(90,62,ls),
(90,100,o),
(96,117,o),
(112,137,cs),
(1004,1268,ls),
(1033,1305,o),
(1083,1339,o),
(1083,1373,cs),
(1083,1388,o),
(1060,1390,o),
(1018,1390,cs),
(610,1390,ls),
(349,1390,o),
(276,1312,o),
(270,1068,cs),
(270,1031,o),
(265,1030,o),
(228,1030,cs),
(210,1030,ls),
(173,1030,o),
(170,1041,o),
(170,1076,cs),
(170,1452,ls),
(170,1500,o),
(180,1500,o),
(228,1500,cs)
);
}
);
vertWidth = 0;
width = 1510;
},
{
anchors = (
{
name = "Anchor-0";
pos = (796,1500);
},
{
name = "Anchor-1";
pos = (826,0);
},
{
name = "Anchor-2";
pos = (826,0);
}
);
layerId = "8097EFC1-F009-4E0B-8F96-722A50586A5E";
shapes = (
{
closed = 1;
nodes = (
(1426,1500,ls),
(1475,1500,o),
(1490,1490,o),
(1490,1438,cs),
(1490,1242,ls),
(1490,1172,o),
(1475,1156,o),
(1442,1124,cs),
(652,367,ls),
(624,340,o),
(567,308,o),
(567,288,cs),
(567,277,o),
(582,270,o),
(630,270,cs),
(1010,270,ls),
(1210,270,o),
(1298,386,o),
(1309,626,cs),
(1311,681,o),
(1314,690,o),
(1370,690,cs),
(1498,690,ls),
(1545,690,o),
(1550,656,o),
(1550,614,cs),
(1550,62,ls),
(1550,4,o),
(1540,0,o),
(1484,0,cs),
(118,0,ls),
(60,0,o),
(50,2,o),
(50,60,cs),
(50,270,ls),
(50,337,o),
(64,343,o),
(96,374,cs),
(922,1166,ls),
(941,1185,o),
(952,1198,o),
(952,1208,cs),
(952,1224,o),
(925,1230,o),
(870,1230,cs),
(630,1230,ls),
(430,1230,o),
(360,1103,o),
(351,896,cs),
(349,850,o),
(350,850,o),
(302,850,cs),
(146,850,ls),
(110,850,o),
(110,850,o),
(110,886,cs),
(110,1456,ls),
(110,1498,o),
(118,1500,o),
(160,1500,cs)
);
}
);
vertWidth = 0;
width = 1615;
},
{
anchors = (
{
name = "Anchor-0";
pos = (531,1500);
},
{
name = "Anchor-1";
pos = (571,0);
},
{
name = "Anchor-2";
pos = (571,0);
}
);
layerId = "871B1205-2168-46B7-8FAD-FF3EA4ADCFD7";
shapes = (
{
closed = 1;
nodes = (
(897,1500,ls),
(922,1500,o),
(925,1492,o),
(925,1466,cs),
(925,1364,ls),
(925,1316,o),
(900,1268,o),
(884,1238,cs),
(343,234,ls),
(317,185,o),
(299,160,o),
(299,132,cs),
(299,119,o),
(307,110,o),
(337,110,cs),
(595,110,ls),
(856,110,o),
(859,188,o),
(865,468,cs),
(866,494,o),
(866,510,o),
(896,510,cs),
(931,510,ls),
(963,510,o),
(965,497,o),
(965,468,cs),
(965,58,ls),
(965,4,o),
(959,0,o),
(903,0,cs),
(83,0,ls),
(55,0,o),
(45,-6,o),
(45,24,cs),
(45,62,ls),
(45,100,o),
(54,114,o),
(67,137,cs),
(699,1278,ls),
(721,1319,o),
(728,1339,o),
(728,1373,cs),
(728,1388,o),
(715,1390,o),
(703,1390,cs),
(475,1390,ls),
(264,1390,o),
(181,1312,o),
(175,1068,cs),
(175,1031,o),
(170,1030,o),
(133,1030,cs),
(115,1030,ls),
(78,1030,o),
(75,1041,o),
(75,1076,cs),
(75,1452,ls),
(75,1500,o),
(85,1500,o),
(133,1500,cs)
);
}
);
vertWidth = 0;
width = 1015;
},
{
anchors = (
{
name = "Anchor-0";
pos = (406,1500);
},
{
name = "Anchor-1";
pos = (436,0);
},
{
name = "Anchor-2";
pos = (436,0);
}
);
layerId = "E1447247-EC0C-4B84-932A-C76B64125023";
shapes = (
{
closed = 1;
nodes = (
(1036,1500,ls),
(1085,1500,o),
(1100,1490,o),
(1100,1438,cs),
(1100,1172,ls),
(1100,1102,o),
(1076.341,1061.604,o),
(1052,1024,cs),
(632,367,ls),
(613.665,333.952,o),
(597,308,o),
(597,288,cs),
(597,277,o),
(602,270,o),
(650,270,cs),
(690,270,ls),
(890,270,o),
(908,386,o),
(919,626,cs),
(921,681,o),
(924,690,o),
(980,690,cs),
(1108,690,ls),
(1155,690,o),
(1160,656,o),
(1160,614,cs),
(1160,62,ls),
(1160,4,o),
(1150,0,o),
(1094,0,cs),
(78,0,ls),
(20,0,o),
(10,2,o),
(10,60,cs),
(10,240,ls),
(10,307,o),
(31.919,337.741,o),
(56,374,cs),
(532,1166,ls),
(546.572,1187.94,o),
(562,1198,o),
(562,1208,cs),
(562,1224,o),
(545,1230,o),
(520,1230,cs),
(500,1230,ls),
(350,1230,o),
(270,1103,o),
(261,896,cs),
(259,850,o),
(260,850,o),
(212,850,cs),
(56,850,ls),
(20,850,o),
(20,850,o),
(20,886,cs),
(20,1456,ls),
(20,1498,o),
(28,1500,o),
(70,1500,cs)
);
}
);
vertWidth = 0;
width = 1190;
}
);
unicode = 90;
},
{
glyphname = R.alt;
kernLeft = kc0_1;
kernRight = kc0_24;
layers = (
{
layerId = "EAF0EFDD-E653-4C10-B7B2-F7A391578EE2";
shapes = (
{
closed = 1;
nodes = (
(865,810,ls),
(1017,810,o),
(1165,902,o),
(1165,1100,cs),
(1165,1298,o),
(1017,1390,o),
(865,1390,cs),
(531,1390,ls),
(490,1390,o),
(485,1384,o),
(485,1342,cs),
(485,862,ls),
(485,812,o),
(496,810,o),
(543,810,cs)
);
},
{
closed = 1;
nodes = (
(1355,0,ls),
(929,0,o),
(1298,690,o),
(845,690,cs),
(539,690,ls),
(494,690,o),
(485,689,o),
(485,644,cs),
(485,150,ls),
(485,118,o),
(489,110,o),
(523,110,cs),
(671,110,ls),
(700,110,o),
(705,104,o),
(705,74,cs),
(705,42,ls),
(705,3,o),
(694,0,o),
(657,0,cs),
(109,0,ls),
(80,0,o),
(75,6,o),
(75,36,cs),
(75,66,ls),
(75,104,o),
(80,110,o),
(117,110,cs),
(251,110,ls),
(291,110,o),
(295,118,o),
(295,156,cs),
(295,1354,ls),
(295,1381,o),
(294,1390,o),
(267,1390,cs),
(107,1390,ls),
(85,1390,o),
(75,1400,o),
(75,1422,cs),
(75,1466,ls),
(75,1492,o),
(78,1500,o),
(103,1500,cs),
(865,1500,ls),
(1227,1500,o),
(1365,1320,o),
(1365,1100,cs),
(1365,944,o),
(1305,824,o),
(1134,764,cs),
(1103,753,o),
(1098,730,o),
(1125,717,cs),
(1434,567,o),
(1217,110,o),
(1407,110,cs),
(1467,110,ls),
(1493,110,o),
(1505,107,o),
(1505,78,cs),
(1505,36,ls),
(1505,5,o),
(1498,0,o),
(1469,0,cs)
);
}
);
vertWidth = 0;
width = 1545;
},
{
layerId = "8097EFC1-F009-4E0B-8F96-722A50586A5E";
shapes = (
{
closed = 1;
nodes = (
(960,880,ls),
(1072,880,o),
(1140,952,o),
(1140,1050,cs),
(1140,1148,o),
(1072,1230,o),
(960,1230,cs),
(791,1230,ls),
(759,1230,o),
(740,1230,o),
(740,1194,cs),
(740,914,ls),
(740,882,o),
(755,880,o),
(785,880,cs)
);
},
{
closed = 1;
nodes = (
(1440,0,ls),
(834,0,o),
(1283,620,o),
(810,620,cs),
(785,620,ls),
(749,620,o),
(740,618,o),
(740,582,cs),
(740,330,ls),
(740,290,o),
(749,270,o),
(793,270,cs),
(915,270,ls),
(958,270,o),
(960,260,o),
(960,216,cs),
(960,58,ls),
(960,7,o),
(936,0,o),
(889,0,cs),
(111,0,ls),
(53,0,o),
(50,9,o),
(50,68,cs),
(50,214,ls),
(50,269,o),
(61,270,o),
(117,270,cs),
(201,270,ls),
(250,270,o),
(270,271,o),
(270,320,cs),
(270,1168,ls),
(270,1212,o),
(261,1230,o),
(213,1230,cs),
(103,1230,ls),
(66,1230,o),
(50,1235,o),
(50,1274,cs),
(50,1446,ls),
(50,1491,o),
(70,1500,o),
(111,1500,cs),
(960,1500,ls),
(1402,1500,o),
(1620,1370,o),
(1620,1090,cs),
(1620,911,o),
(1526,806,o),
(1317,759,cs),
(1262,747,o),
(1257,733,o),
(1315,711,cs),
(1645,584,o),
(1431,270,o),
(1612,270,cs),
(1679,270,ls),
(1724,270,o),
(1730,275,o),
(1730,228,cs),
(1730,44,ls),
(1730,2,o),
(1718,0,o),
(1679,0,cs)
);
}
);
vertWidth = 0;
width = 1750;
},
{
layerId = "871B1205-2168-46B7-8FAD-FF3EA4ADCFD7";
shapes = (
{
closed = 1;
nodes = (
(545,810,ls),
(697,810,o),
(745,902,o),
(745,1100,cs),
(745,1298,o),
(657,1390,o),
(545,1390,cs),
(391,1390,ls),
(350,1390,o),
(345,1384,o),
(345,1342,cs),
(345,862,ls),
(345,812,o),
(356,810,o),
(403,810,cs)
);
},
{
closed = 1;
nodes = (
(865,0,ls),
(479,0,o),
(918,690,o),
(525,690,cs),
(399,690,ls),
(354,690,o),
(345,689,o),
(345,644,cs),
(345,150,ls),
(345,118,o),
(349,110,o),
(383,110,cs),
(451,110,ls),
(480,110,o),
(485,104,o),
(485,74,cs),
(485,42,ls),
(485,3,o),
(474,0,o),
(437,0,cs),
(69,0,ls),
(40,0,o),
(35,6,o),
(35,36,cs),
(35,66,ls),
(35,104,o),
(40,110,o),
(77,110,cs),
(111,110,ls),
(151,110,o),
(155,118,o),
(155,156,cs),
(155,1354,ls),
(155,1381,o),
(154,1390,o),
(127,1390,cs),
(67,1390,ls),
(45,1390,o),
(35,1400,o),
(35,1422,cs),
(35,1466,ls),
(35,1492,o),
(38,1500,o),
(63,1500,cs),
(545,1500,ls),
(847,1500,o),
(945,1320,o),
(945,1100,cs),
(945,944,o),
(885,834,o),
(774,764,cs),
(746,746,o),
(738,731,o),
(765,717,cs),
(1034,577,o),
(757,110,o),
(967,110,cs),
(1007,110,ls),
(1033,110,o),
(1045,107,o),
(1045,78,cs),
(1045,36,ls),
(1045,5,o),
(1038,0,o),
(1009,0,cs)
);
}
);
vertWidth = 0;
width = 1055;
},
{
associatedMasterId = "871B1205-2168-46B7-8FAD-FF3EA4ADCFD7";
layerId = "10EC7192-12F8-463A-9E0A-7ECF29FF8EFD";
name = Back;
shapes = (
{
closed = 1;
nodes = (
(1090,79,o),
(1069,-20,o),
(905,-20,cs),
(489,-20,o),
(918,690,o),
(525,690,cs),
(391,690,ls),
(347,690,o),
(345,682,o),
(345,638,cs),
(345,144,ls),
(345,113,o),
(353,110,o),
(385,110,cs),
(454,110,ls),
(482,110,o),
(485,103,o),
(485,74,cs),
(485,29,ls),
(485,4,o),
(478,0,o),
(452,0,cs),
(66,0,ls),
(41,0,o),
(35,6,o),
(35,32,cs),
(35,75,ls),
(35,105,o),
(43,110,o),
(71,110,cs),
(107,110,ls),
(148,110,o),
(155,113,o),
(155,153,cs),
(155,1342,ls),
(155,1385,o),
(148,1390,o),
(106,1390,cs),
(71,1390,ls),
(36,1390,o),
(35,1399,o),
(35,1435,cs),
(35,1466,ls),
(35,1492,o),
(38,1500,o),
(63,1500,cs),
(575,1500,ls),
(867,1500,o),
(945,1260,o),
(945,1090,cs),
(945,926,o),
(878,834,o),
(768,766,cs),
(733.604,744.737,o),
(741.343,718.496,o),
(782,690,cs),
(1006,533,o),
(817,110,o),
(967,110,cs),
(999,110,o),
(1025.289,142.092,o),
(1031,242,cs),
(1031.73,254.767,o),
(1036.517,258,o),
(1044,258,cs),
(1078,258,ls),
(1084.612,258,o),
(1090,254.824,o),
(1090,230,cs)
);
},
{
closed = 1;
nodes = (
(554,810,ls),
(656,810,o),
(745,902,o),
(745,1100,cs),
(745,1298,o),
(656,1390,o),
(554,1390,cs),
(381,1390,ls),
(334,1390,o),
(345,1390,o),
(345,1343,cs),
(345,858,ls),
(345,817,o),
(338,810,o),
(381,810,cs)
);
}
);
vertWidth = 0;
width = 1055;
},
{
layerId = "E1447247-EC0C-4B84-932A-C76B64125023";
shapes = (
{
closed = 1;
nodes = (
(640,880,ls),
(712,880,o),
(720,952,o),
(720,1050,cs),
(720,1148,o),
(712,1230,o),
(640,1230,cs),
(631,1230,ls),
(599,1230,o),
(600,1230,o),
(600,1194,cs),
(600,914,ls),
(600,882,o),
(595,880,o),
(625,880,cs)
);
},
{
closed = 1;
nodes = (
(1130,-20,ls),
(524,-20,o),
(883,620,o),
(670,620,cs),
(645,620,ls),
(609,620,o),
(600,618,o),
(600,582,cs),
(600,330,ls),
(600,290,o),
(609,270,o),
(653,270,cs),
(675,270,ls),
(718,270,o),
(720,260,o),
(720,216,cs),
(720,58,ls),
(720,7,o),
(696,0,o),
(649,0,cs),
(71,0,ls),
(13,0,o),
(10,9,o),
(10,68,cs),
(10,214,ls),
(10,269,o),
(21,270,o),
(77,270,cs),
(61,270,ls),
(110,270,o),
(130,271,o),
(130,320,cs),
(130,1168,ls),
(130,1212,o),
(121,1230,o),
(73,1230,cs),
(63,1230,ls),
(26,1230,o),
(10,1235,o),
(10,1274,cs),
(10,1446,ls),
(10,1491,o),
(30,1500,o),
(71,1500,cs),
(720,1500,ls),
(1082,1500,o),
(1190,1320,o),
(1190,1090,cs),
(1190,911,o),
(1146,813,o),
(1057,746,cs),
(1012.025,712.143,o),
(1031.277,702.013,o),
(1085,671,cs),
(1305,544,o),
(1101,270,o),
(1212,270,cs),
(1259,270,ls),
(1272,270,o),
(1280,255,o),
(1280,228,cs),
(1280,24,ls),
(1280,-18,o),
(1278,-20,o),
(1239,-20,cs)
);
}
);
vertWidth = 0;
width = 1290;
},
{
associatedMasterId = "E1447247-EC0C-4B84-932A-C76B64125023";
layerId = "28C07B27-0E34-40F2-8125-34E75D7F2498";
name = Back;
shapes = (
{
closed = 1;
nodes = (
(1344,95,o),
(1260,-40,o),
(1050,-40,cs),
(554,-40,o),
(883,620,o),
(650,620,cs),
(638,620,ls),
(600,620,o),
(600,610,o),
(600,572,cs),
(600,310,ls),
(600,279,o),
(601,270,o),
(632,270,cs),
(674,270,ls),
(710,270,o),
(720,263,o),
(720,224,cs),
(720,72,ls),
(720,13,o),
(719,0,o),
(660,0,cs),
(53,0,ls),
(19,0,o),
(10,5,o),
(10,38,cs),
(10,226,ls),
(10,263,o),
(16,270,o),
(52,270,cs),
(73,270,ls),
(120,270,o),
(130,276,o),
(130,322,cs),
(130,1179,ls),
(130,1225,o),
(119,1230,o),
(76,1230,cs),
(56,1230,ls),
(14,1230,o),
(10,1242,o),
(10,1282,cs),
(10,1462,ls),
(10,1496,o),
(20,1500,o),
(55,1500,cs),
(720,1500,ls),
(1092,1500,o),
(1220,1300,o),
(1220,1110,cs),
(1220,949,o),
(1198,835,o),
(1083,742,cs),
(1041.41,708.366,o),
(1014,707,o),
(1066,678,cs),
(1308,545,o),
(1103,308,o),
(1218,308,cs),
(1244,308,o),
(1246.289,323.092,o),
(1256,358,cs),
(1263.349,384.417,o),
(1282.649,388.472,o),
(1321,374,cs),
(1374,354,ls),
(1405.678,342.046,o),
(1395.936,315.11,o),
(1386,273,cs)
);
},
{
closed = 1;
nodes = (
(649,880,ls),
(711,880,o),
(720,952,o),
(720,1050,cs),
(720,1148,o),
(711,1230,o),
(649,1230,cs),
(631,1230,ls),
(593,1230,o),
(600,1221,o),
(600,1182,cs),
(600,926,ls),
(600,877,o),
(593,880,o),
(641,880,cs)
);
}
);
vertWidth = 0;
width = 1290;
}
);
},
{
glyphname = a;
kernLeft = kc0_17;
kernRight = kc0_0;
layers = (
{
anchors = (
{
name = "Anchor-0";
pos = (587,1040);
},
{
name = "Anchor-1";
pos = (610,0);
},
{
name = "Anchor-2";
pos = (610,0);
},
{
name = "Anchor-3";
pos = (1000,10);
}
);
layerId = "EAF0EFDD-E653-4C10-B7B2-F7A391578EE2";
shapes = (
{
closed = 1;
nodes = (
(115,434,o),
(289,598,o),
(633,598,cs),
(731,598,ls),
(754,598,o),
(757,600,o),
(757,624,cs),
(757,734,ls),
(757,868,o),
(721,968,o),
(561,968,cs),
(453,968,o),
(347,930,o),
(347,890,cs),
(347,854,o),
(403,864,o),
(403,786,cs),
(403,718,o),
(361,670,o),
(293,670,cs),
(231,670,o),
(175,698,o),
(175,786,cs),
(175,960,o),
(399,1060,o),
(601,1060,cs),
(881,1060,o),
(937,906,o),
(937,744,cs),
(937,142,ls),
(937,102,o),
(961,84,o),
(989,84,cs),
(1017,84,o),
(1049,94,o),
(1084,149,cs),
(1091,161,o),
(1097,164,o),
(1107,156,c),
(1143,134,ls),
(1154,127,o),
(1155,123,o),
(1149,110,cs),
(1102,21,o),
(1022,-20,o),
(941,-20,cs),
(940,-20,ls),
(789,-20,o),
(771,75,o),
(763,124,cs),
(759,148,o),
(753,148,o),
(735,123,cs),
(703,78,o),
(636,-20,o),
(425,-20,cs),
(247,-20,o),
(115,78,o),
(115,246,cs)
);
},
{
closed = 1;
nodes = (
(319,142,o),
(415,92,o),
(515,92,cs),
(651,92,o),
(757,200,o),
(757,382,cs),
(757,502,ls),
(757,519,o),
(754,522,o),
(737,522,cs),
(633,522,ls),
(401,522,o),
(319,430,o),
(319,276,cs)
);
}
);
vertWidth = 2310;
width = 1142;
},
{
anchors = (
{
name = "Anchor-0";
pos = (672,1040);
},
{
name = "Anchor-1";
pos = (685,0);
},
{
name = "Anchor-2";
pos = (685,0);
},
{
name = "Anchor-3";
pos = (1205,90);
}
);
layerId = "8097EFC1-F009-4E0B-8F96-722A50586A5E";
shapes = (
{
closed = 1;
nodes = (
(45,474,o),
(289,588,o),
(633,588,cs),
(701,588,ls),
(724,588,o),
(727,590,o),
(727,614,cs),
(727,734,ls),
(727,838,o),
(661,888,o),
(571,888,cs),
(541,888,o),
(519,880,o),
(519,868,cs),
(519,845,o),
(553,844,o),
(553,756,cs),
(553,658,o),
(451,600,o),
(343,600,cs),
(221,600,o),
(125,658,o),
(125,766,cs),
(125,920,o),
(309,1060,o),
(701,1060,cs),
(981,1060,o),
(1147,946,o),
(1147,694,cs),
(1147,272,ls),
(1147,232,o),
(1171,214,o),
(1199,214,cs),
(1227,214,o),
(1254,224,o),
(1277,267,cs),
(1284,279,o),
(1290,282,o),
(1300,274,c),
(1414,204,ls),
(1425,197,o),
(1426,193,o),
(1420,180,cs),
(1373,91,o),
(1272,-20,o),
(1091,-20,cs),
(1090,-20,ls),
(949,-20,o),
(869,10,o),
(809,77,cs),
(776,113,o),
(764,113,o),
(742,91,cs),
(676,26,o),
(566,-20,o),
(395,-20,cs),
(167,-20,o),
(45,68,o),
(45,246,cs)
);
},
{
closed = 1;
nodes = (
(519,232,o),
(545,199,o),
(605,199,cs),
(691,199,o),
(727,250,o),
(727,382,cs),
(727,417,ls),
(727,434,o),
(724,437,o),
(707,437,cs),
(699,437,ls),
(607,437,o),
(519,360,o),
(519,286,cs)
);
}
);
vertWidth = 2310;
width = 1344;
},
{
anchors = (
{
name = "Anchor-0";
pos = (450,1040);
},
{
name = "Anchor-1";
pos = (373,0);
},
{
name = "Anchor-2";
pos = (843,90);
},
{
name = "Anchor-3";
pos = (843,90);
}
);
layerId = "871B1205-2168-46B7-8FAD-FF3EA4ADCFD7";
shapes = (
{
closed = 1;
nodes = (
(58,434,o),
(182,598,o),
(476,598,cs),
(524,598,ls),
(547,598,o),
(550,600,o),
(550,624,cs),
(550,734,ls),
(550,868,o),
(524,968,o),
(394,968,cs),
(326,968,o),
(260,940,o),
(260,900,cs),
(260,864,o),
(346,864,o),
(346,786,cs),
(346,718,o),
(304,670,o),
(236,670,cs),
(174,670,o),
(118,728,o),
(118,816,cs),
(118,950,o),
(232,1060,o),
(434,1060,cs),
(684,1060,o),
(730,906,o),
(730,744,cs),
(730,142,ls),
(730,102,o),
(733,74,o),
(752,74,cs),
(777,74,o),
(790,153,o),
(793,208,cs),
(794,222,o),
(798,227,o),
(820,225,cs),
(844,223,ls),
(855,222,o),
(857,213,o),
(857,199,cs),
(856,110,o),
(825,-20,o),
(704,-20,cs),
(703,-20,ls),
(582,-20,o),
(566,65,o),
(558,114,cs),
(554,138,o),
(544,143,o),
(533,113,cs),
(517,69,o),
(469,-20,o),
(328,-20,cs),
(150,-20,o),
(58,78,o),
(58,246,cs)
);
},
{
closed = 1;
nodes = (
(252,142,o),
(298,92,o),
(368,92,cs),
(464,92,o),
(550,200,o),
(550,382,cs),
(550,502,ls),
(550,519,o),
(547,522,o),
(530,522,cs),
(476,522,ls),
(344,522,o),
(252,430,o),
(252,276,cs)
);
}
);
vertWidth = 2310;
width = 852;
},
{
anchors = (
{
name = "Anchor-0";
pos = (476.656,1040);
},
{
name = "Anchor-1";
pos = (489.656,0);
},
{
name = "Anchor-2";
pos = (489.656,0);
},
{
name = "Anchor-3";
pos = (1009.66,90);
}
);
layerId = "E1447247-EC0C-4B84-932A-C76B64125023";
shapes = (
{
closed = 1;
nodes = (
(9.656,484,o),
(193.656,588,o),
(467.656,588,cs),
(515.656,588,ls),
(538.656,588,o),
(541.656,590,o),
(541.656,614,cs),
(541.656,664,ls),
(541.656,768,o),
(582.656,898,o),
(502.656,898,cs),
(472.656,898,o),
(440.656,880,o),
(440.656,868,cs),
(440.656,845,o),
(487.656,844,o),
(487.656,756,cs),
(487.656,658,o),
(395.656,600,o),
(287.656,600,cs),
(165.656,600,o),
(69.656,678,o),
(69.656,786,cs),
(69.656,940,o),
(223.656,1070,o),
(515.656,1070,cs),
(795.656,1070,o),
(951.656,946,o),
(951.656,694,cs),
(951.656,232,ls),
(951.656,192,o),
(965.656,184,o),
(973.656,184,cs),
(981.656,184,o),
(997.656,194,o),
(1001.656,297,cs),
(1002.195,310.883,o),
(1013.656,317,o),
(1024.656,314,c),
(1128.656,294,ls),
(1140.377,291.746,o),
(1135.159,284.31,o),
(1134.656,270,cs),
(1127.656,71,o),
(1036.656,-20,o),
(825.656,-20,cs),
(824.656,-20,ls),
(673.656,-20,o),
(590.365,21.034,o),
(538.656,88,cs),
(522.748,108.602,o),
(523.695,117.032,o),
(506.656,91,cs),
(470.656,36,o),
(450.656,-20,o),
(279.656,-20,cs),
(111.656,-20,o),
(9.656,78,o),
(9.656,256,cs)
);
},
{
closed = 1;
nodes = (
(463.656,232,o),
(489.656,199,o),
(509.656,199,cs),
(531.656,199,o),
(551.656,250,o),
(551.656,342,cs),
(551.656,410,ls),
(551.656,427,o),
(545.656,437,o),
(533.656,437,cs),
(520.656,437,ls),
(498.656,437,o),
(463.656,420,o),
(463.656,316,cs)
);
}
);
vertWidth = 2310;
width = 1087;
}
);
unicode = 97;
},
{
glyphname = ae;
kernLeft = kc0_17;
layers = (
{
layerId = "EAF0EFDD-E653-4C10-B7B2-F7A391578EE2";
shapes = (
{
closed = 1;
nodes = (
(1426,608,ls),
(1452,608,o),
(1455,610,o),
(1455,624,cs),
(1455,756,o),
(1382,972,o),
(1220,972,cs),
(1035,972,o),
(946,790,o),
(946,633,cs),
(946,613,o),
(950,608,o),
(974,608,cs)
);
},
{
closed = 1;
nodes = (
(742,494,o),
(741,522,o),
(712,522,cs),
(618,522,ls),
(386,522,o),
(304,430,o),
(304,276,cs),
(304,142,o),
(400,92,o),
(500,92,cs),
(636,92,o),
(742,200,o),
(742,382,cs),
(742,447,ls)
);
},
{
closed = 1;
nodes = (
(100,434,o),
(274,598,o),
(618,598,cs),
(716,598,ls),
(739,598,o),
(742,600,o),
(742,624,cs),
(742,734,ls),
(742,868,o),
(706,968,o),
(546,968,cs),
(438,968,o),
(332,930,o),
(332,890,cs),
(332,854,o),
(388,864,o),
(388,786,cs),
(388,718,o),
(346,670,o),
(278,670,cs),
(216,670,o),
(160,698,o),
(160,786,cs),
(160,960,o),
(384,1060,o),
(586,1060,cs),
(728,1060,o),
(812,1020,o),
(861,960,cs),
(882,933,o),
(877,924,o),
(904,948,cs),
(981,1019,o),
(1086,1060,o),
(1220,1060,cs),
(1546,1060,o),
(1654,788,o),
(1654,551,cs),
(1654,524,o),
(1646,522,o),
(1618,522,cs),
(975,522,ls),
(953,522,o),
(942,516,o),
(942,493,cs),
(942,272,o),
(1023,78,o),
(1230,78,cs),
(1388,78,o),
(1493,175,o),
(1546,322,cs),
(1551,336,o),
(1553,346,o),
(1573,346,cs),
(1631,346,ls),
(1651,346,o),
(1655,340,o),
(1651,325,cs),
(1596,125,o),
(1463,-20,o),
(1217,-20,cs),
(1053,-20,o),
(918,94,o),
(878,134,cs),
(861,151,o),
(841,156,o),
(820,133,cs),
(778,88,o),
(621,-20,o),
(410,-20,cs),
(232,-20,o),
(100,78,o),
(100,246,cs)
);
}
);
vertWidth = 2310;
width = 1746;
},
{
layerId = "8097EFC1-F009-4E0B-8F96-722A50586A5E";
shapes = (
{
closed = 1;
nodes = (
(1422,658,ls),
(1450,658,o),
(1450,658,o),
(1448,685,cs),
(1442,795,o),
(1406,882,o),
(1318,882,cs),
(1222,882,o),
(1184,806,o),
(1170,695,cs),
(1166,666,o),
(1161,658,o),
(1196,658,cs)
);
},
{
closed = 1;
nodes = (
(727,422,o),
(725,437,o),
(707,437,cs),
(699,437,ls),
(607,437,o),
(519,360,o),
(519,286,cs),
(519,232,o),
(545,199,o),
(605,199,cs),
(691,199,o),
(727,250,o),
(727,382,cs),
(727,408,ls)
);
},
{
closed = 1;
nodes = (
(45,474,o),
(289,588,o),
(633,588,cs),
(701,588,ls),
(724,588,o),
(727,590,o),
(727,614,cs),
(727,734,ls),
(727,838,o),
(661,888,o),
(571,888,cs),
(541,888,o),
(519,880,o),
(519,868,cs),
(519,845,o),
(553,844,o),
(553,756,cs),
(553,658,o),
(451,600,o),
(343,600,cs),
(221,600,o),
(125,648,o),
(125,756,cs),
(125,980,o),
(419,1060,o),
(701,1060,cs),
(803,1060,o),
(891,1045,o),
(960,1013,cs),
(990,999,o),
(993,1002,o),
(1022,1016,cs),
(1107,1057,o),
(1210,1080,o),
(1330,1080,cs),
(1810,1080,o),
(1868,706,o),
(1868,490,cs),
(1868,459,o),
(1864,452,o),
(1834,452,cs),
(1188,452,ls),
(1160,452,o),
(1163,447,o),
(1165,422,cs),
(1176,280,o),
(1217,166,o),
(1360,166,cs),
(1459,166,o),
(1516,218,o),
(1564,322,cs),
(1571,337,o),
(1576,346,o),
(1600,346,cs),
(1812,346,ls),
(1840,346,o),
(1845,342,o),
(1840,320,cs),
(1780,65,o),
(1570,-40,o),
(1316,-40,cs),
(1132,-40,o),
(1026,31,o),
(939,127,cs),
(906,163,o),
(894,163,o),
(872,141,cs),
(806,76,o),
(736,-20,o),
(435,-20,cs),
(207,-20,o),
(45,68,o),
(45,246,cs)
);
}
);
vertWidth = 2310;
width = 1921;
},
{
layerId = "871B1205-2168-46B7-8FAD-FF3EA4ADCFD7";
shapes = (
{
closed = 1;
nodes = (
(976,608,ls),
(1002,608,o),
(1005,610,o),
(1005,624,cs),
(1005,756,o),
(1032,972,o),
(870,972,cs),
(685,972,o),
(696,790,o),
(696,633,cs),
(696,613,o),
(700,608,o),
(724,608,cs)
);
},
{
closed = 1;
nodes = (
(492,494,o),
(491,522,o),
(462,522,cs),
(458,522,ls),
(316,522,o),
(254,430,o),
(254,276,cs),
(254,142,o),
(290,92,o),
(370,92,cs),
(466,92,o),
(492,200,o),
(492,382,cs),
(492,447,ls)
);
},
{
closed = 1;
nodes = (
(50,434,o),
(139,598,o),
(463,598,cs),
(466,598,ls),
(489,598,o),
(492,600,o),
(492,624,cs),
(492,734,ls),
(492,868,o),
(476,968,o),
(366,968,cs),
(288,968,o),
(262,930,o),
(262,900,cs),
(262,864,o),
(338,864,o),
(338,786,cs),
(338,718,o),
(296,670,o),
(228,670,cs),
(166,670,o),
(110,728,o),
(110,816,cs),
(110,910,o),
(184,1060,o),
(386,1060,cs),
(528,1060,o),
(575,1000,o),
(604,960,cs),
(624,932,o),
(625,919,o),
(647,948,cs),
(685,999,o),
(756,1060,o),
(870,1060,cs),
(1196,1060,o),
(1204,788,o),
(1204,551,cs),
(1204,524,o),
(1196,522,o),
(1168,522,cs),
(725,522,ls),
(703,522,o),
(692,516,o),
(692,493,cs),
(692,272,o),
(673,78,o),
(880,78,cs),
(1038,78,o),
(1083,215,o),
(1096,322,cs),
(1098,337,o),
(1103,346,o),
(1123,346,cs),
(1181,346,ls),
(1201,346,o),
(1202,340,o),
(1201,325,cs),
(1186,165,o),
(1113,-20,o),
(867,-20,cs),
(703,-20,o),
(643,94,o),
(622,134,cs),
(611,155,o),
(588,161,o),
(574,133,cs),
(552,88,o),
(531,-20,o),
(340,-20,cs),
(162,-20,o),
(50,78,o),
(50,246,cs)
);
}
);
vertWidth = 2310;
width = 1254;
},
{
layerId = "E1447247-EC0C-4B84-932A-C76B64125023";
shapes = (
{
closed = 1;
nodes = (
(1032,658,ls),
(1060,658,o),
(1057.017,657.944,o),
(1058,685,cs),
(1062,795,o),
(1056,882,o),
(1018,882,cs),
(972,882,o),
(974,806,o),
(970,695,cs),
(968.945,665.744,o),
(961,658,o),
(996,658,cs)
);
},
{
closed = 1;
nodes = (
(551.656,427,o),
(545.656,437,o),
(533.656,437,cs),
(520.656,437,ls),
(498.656,437,o),
(463.656,420,o),
(463.656,316,cs),
(463.656,232,o),
(489.656,199,o),
(509.656,199,cs),
(531.656,199,o),
(551.656,250,o),
(551.656,342,cs),
(551.656,410,ls)
);
},
{
closed = 1;
nodes = (
(9.656,484,o),
(193.656,588,o),
(467.656,588,cs),
(515.656,588,ls),
(538.656,588,o),
(541.656,590,o),
(541.656,614,cs),
(541.656,664,ls),
(541.656,768,o),
(582.656,898,o),
(502.656,898,cs),
(472.656,898,o),
(440.656,880,o),
(440.656,868,cs),
(440.656,845,o),
(487.656,844,o),
(487.656,756,cs),
(487.656,658,o),
(395.656,600,o),
(287.656,600,cs),
(165.656,600,o),
(69.656,678,o),
(69.656,786,cs),
(69.656,940,o),
(233.656,1070,o),
(475.656,1070,cs),
(624.416,1070,o),
(680.04,1010.521,o),
(708,953.559,cs),
(738.721,890.971,o),
(767.859,889.748,o),
(804,950.748,cs),
(840.514,1012.377,o),
(916.773,1080,o),
(1070,1080,cs),
(1380,1080,o),
(1448,816,o),
(1448,490,cs),
(1448,459,o),
(1444,452,o),
(1414,452,cs),
(988,452,ls),
(960,452,o),
(964.823,447.079,o),
(965,422,cs),
(966,280,o),
(967,166,o),
(1040,166,cs),
(1109,166,o),
(1116,218,o),
(1124,322,cs),
(1125.27,338.504,o),
(1136,346,o),
(1160,346,cs),
(1412,346,ls),
(1440,346,o),
(1441.764,342.492,o),
(1440,320,cs),
(1420,65,o),
(1340,-40,o),
(1056,-40,cs),
(906.813,-40,o),
(812.541,18.217,o),
(758.656,88,cs),
(742.748,108.602,o),
(731.854,112.801,o),
(709.656,91,cs),
(653.656,36,o),
(600.656,-20,o),
(389.656,-20,cs),
(111.656,-20,o),
(9.656,78,o),
(9.656,256,cs)
);
}
);
vertWidth = 2310;
width = 1478;
}
);
unicode = 230;
},
{
glyphname = b;
kernLeft = kc0_6;
kernRight = kc0_8;
layers = (
{
anchors = (
{
name = "Anchor-0";
pos = (847,1040);
},
{
name = "Anchor-1";
pos = (700,0);
},
{
name = "Anchor-2";
pos = (700,0);
}
);
layerId = "EAF0EFDD-E653-4C10-B7B2-F7A391578EE2";
shapes = (
{
closed = 1;
nodes = (
(425,292,o),
(539,84,o),
(721,84,cs),
(889,84,o),
(1001,292,o),
(1001,520,cs),
(1001,748,o),
(889,956,o),
(721,956,cs),
(539,956,o),
(425,748,o),
(425,520,cs)
);
},
{
closed = 1;
nodes = (
(69,1450,o),
(65,1456,o),
(65,1470,cs),
(65,1545,ls),
(65,1555,o),
(66,1560,o),
(76,1560,cs),
(409,1560,ls),
(419,1560,o),
(425,1558,o),
(425,1547,cs),
(425,867,ls),
(425,837,o),
(427,834,o),
(435,850,cs),
(501,981,o),
(613,1058,o),
(757,1058,cs),
(995,1058,o),
(1201,860,o),
(1201,520,cs),
(1201,180,o),
(995,-20,o),
(757,-20,cs),
(617,-20,o),
(507,52,o),
(441,177,cs),
(428,201,o),
(425,200,o),
(425,152,cs),
(425,36,ls),
(425,16,o),
(421,0,o),
(400,0,cs),
(84,0,ls),
(68,0,o),
(65,1,o),
(65,17,cs),
(65,94,ls),
(65,107,o),
(70,110,o),
(84,110,cs),
(228,110,ls),
(242,110,o),
(245,113,o),
(245,128,cs),
(245,1430,ls),
(245,1446,o),
(241,1450,o),
(229,1450,cs),
(82,1450,ls)
);
}
);
vertWidth = 2310;
width = 1311;
},
{
anchors = (
{
name = "Anchor-0";
pos = (972,1040);
},
{
name = "Anchor-1";
pos = (685,0);
},
{
name = "Anchor-2";
pos = (685,0);
}
);
layerId = "8097EFC1-F009-4E0B-8F96-722A50586A5E";
shapes = (
{
closed = 1;
nodes = (
(645,332,o),
(719,204,o),
(821,204,cs),
(909,204,o),
(981,332,o),
(981,520,cs),
(981,708,o),
(909,836,o),
(821,836,cs),
(719,836,o),
(645,708,o),
(645,520,cs)
);
},
{
closed = 1;
nodes = (
(50,1350,o),
(45,1354,o),
(45,1384,cs),
(45,1529,ls),
(45,1556,o),
(56,1560,o),
(81,1560,cs),
(597,1560,ls),
(629,1560,o),
(645,1559,o),
(645,1524,cs),
(645,943,ls),
(645,902,o),
(649,901,o),
(661,916,cs),
(737,1010,o),
(813,1078,o),
(977,1078,cs),
(1235,1078,o),
(1421,880,o),
(1421,520,cs),
(1421,160,o),
(1215,-40,o),
(957,-40,cs),
(803,-40,o),
(731,8,o),
(668,103,cs),
(653,126,o),
(645,123,o),
(645,84,cs),
(645,36,ls),
(645,2,o),
(632,0,o),
(601,0,cs),
(79,0,ls),
(52,0,o),
(45,5,o),
(45,34,cs),
(45,178,ls),
(45,207,o),
(58,210,o),
(85,210,cs),
(187,210,ls),
(221,210,o),
(225,217,o),
(225,252,cs),
(225,1323,ls),
(225,1343,o),
(222,1350,o),
(203,1350,cs),
(81,1350,ls)
);
}
);
vertWidth = 2310;
width = 1471;
},
{
anchors = (
{
name = "Anchor-0";
pos = (739,1040);
},
{
name = "Anchor-1";
pos = (552,0);
},
{
name = "Anchor-2";
pos = (552,0);
}
);
layerId = "871B1205-2168-46B7-8FAD-FF3EA4ADCFD7";
shapes = (
{
closed = 1;
nodes = (
(292,222,o),
(376,84,o),
(478,84,cs),
(596,84,o),
(668,222,o),
(668,520,cs),
(668,818,o),
(606,956,o),
(488,956,cs),
(386,956,o),
(292,818,o),
(292,520,cs)
);
},
{
closed = 1;
nodes = (
(36,1450,o),
(32,1456,o),
(32,1470,cs),
(32,1545,ls),
(32,1555,o),
(33,1560,o),
(43,1560,cs),
(276,1560,ls),
(286,1560,o),
(292,1558,o),
(292,1547,cs),
(292,927,ls),
(292,897,o),
(294,893,o),
(302,910,cs),
(338,981,o),
(410,1058,o),
(544,1058,cs),
(762,1058,o),
(868,860,o),
(868,520,cs),
(868,180,o),
(782,-20,o),
(544,-20,cs),
(424,-20,o),
(344,42,o),
(308,117,cs),
(296,142,o),
(292,140,o),
(292,92,cs),
(292,36,ls),
(292,16,o),
(288,0,o),
(267,0,cs),
(51,0,ls),
(35,0,o),
(32,1,o),
(32,17,cs),
(32,94,ls),
(32,107,o),
(37,110,o),
(51,110,cs),
(95,110,ls),
(109,110,o),
(112,113,o),
(112,128,cs),
(112,1430,ls),
(112,1446,o),
(108,1450,o),
(96,1450,cs),
(49,1450,ls)
);
}
);
vertWidth = 2310;
width = 923;
},
{
anchors = (
{
name = "Anchor-0";
pos = (737,1040);
},
{
name = "Anchor-1";
pos = (550,0);
},
{
name = "Anchor-2";
pos = (550,0);
}
);
layerId = "E1447247-EC0C-4B84-932A-C76B64125023";
shapes = (
{
closed = 1;
nodes = (
(510,262,o),
(534,204,o),
(576,204,cs),
(614,204,o),
(646,262,o),
(646,520,cs),
(646,778,o),
(614,836,o),
(576,836,cs),
(524,836,o),
(510,778,o),
(510,520,cs)
);
},
{
closed = 1;
nodes = (
(15,1350,o),
(10,1354,o),
(10,1384,cs),
(10,1529,ls),
(10,1556,o),
(21,1560,o),
(46,1560,cs),
(462,1560,ls),
(494,1560,o),
(510,1559,o),
(510,1524,cs),
(510,943,ls),
(510,902,o),
(517.557,898.746,o),
(526,916,cs),
(572,1010,o),
(608,1078,o),
(772,1078,cs),
(1010,1078,o),
(1086,880,o),
(1086,520,cs),
(1086,160,o),
(1000,-40,o),
(742,-40,cs),
(608,-40,o),
(566,8,o),
(533,103,cs),
(523.989,128.938,o),
(510,123,o),
(510,84,cs),
(510,36,ls),
(510,2,o),
(497,0,o),
(466,0,cs),
(44,0,ls),
(17,0,o),
(10,5,o),
(10,34,cs),
(10,178,ls),
(10,207,o),
(23,210,o),
(50,210,cs),
(52,210,ls),
(86,210,o),
(90,217,o),
(90,252,cs),
(90,1323,ls),
(90,1343,o),
(87,1350,o),
(68,1350,cs),
(46,1350,ls)
);
}
);
vertWidth = 2310;
width = 1116;
}
);
unicode = 98;
},
{
glyphname = c;
kernLeft = kc0_2;
kernRight = kc0_8;
layers = (
{
anchors = (
{
name = "Anchor-0";
pos = (606,1040);
},
{
name = "Anchor-1";
pos = (604,0);
},
{
name = "Anchor-2";
pos = (604,0);
}
);
layerId = "EAF0EFDD-E653-4C10-B7B2-F7A391578EE2";
shapes = (
{
closed = 1;
nodes = (
(105,820,o),
(281,1060,o),
(603,1060,cs),
(847,1060,o),
(995,926,o),
(995,762,cs),
(995,666,o),
(925,630,o),
(867,630,cs),
(813,630,o),
(753,672,o),
(753,746,cs),
(753,818,o),
(817,828,o),
(817,874,cs),
(817,928,o),
(731,966,o),
(623,966,cs),
(405,966,o),
(307,748,o),
(307,520,cs),
(307,292,o),
(385,78,o),
(603,78,cs),
(762,78,o),
(865,178,o),
(917,327,cs),
(922,340,o),
(926,346,o),
(945,346,cs),
(1007,346,ls),
(1028,346,o),
(1031,343,o),
(1026,328,cs),
(962,124,o),
(834,-20,o),
(599,-20,cs),
(257,-20,o),
(105,220,o),
(105,520,cs)
);
}
);
vertWidth = 2310;
width = 1116;
},
{
anchors = (
{
name = "Anchor-0";
pos = (686,1040);
},
{
name = "Anchor-1";
pos = (684,0);
},
{
name = "Anchor-2";
pos = (684,0);
}
);
layerId = "8097EFC1-F009-4E0B-8F96-722A50586A5E";
shapes = (
{
closed = 1;
nodes = (
(50,800,o),
(266,1080,o),
(688,1080,cs),
(1012,1080,o),
(1178,918,o),
(1178,744,cs),
(1178,588,o),
(1070,500,o),
(932,500,cs),
(778,500,o),
(698,582,o),
(698,696,cs),
(698,798,o),
(780,818,o),
(780,852,cs),
(780,878,o),
(754,898,o),
(698,898,cs),
(568,898,o),
(520,768,o),
(520,540,cs),
(520,352,o),
(552,166,o),
(690,166,cs),
(788,166,o),
(845,218,o),
(893,321,cs),
(902,341,o),
(911,346,o),
(942,346,cs),
(1138,346,ls),
(1172,346,o),
(1176,342,o),
(1169,315,cs),
(1107,64,o),
(898,-40,o),
(646,-40,cs),
(244,-40,o),
(50,220,o),
(50,500,cs)
);
}
);
vertWidth = 2310;
width = 1268;
},
{
anchors = (
{
name = "Anchor-0";
pos = (423,1040);
},
{
name = "Anchor-1";
pos = (421,0);
},
{
name = "Anchor-2";
pos = (421,0);
}
);
layerId = "871B1205-2168-46B7-8FAD-FF3EA4ADCFD7";
shapes = (
{
closed = 1;
nodes = (
(52,820,o),
(158,1060,o),
(460,1060,cs),
(664,1060,o),
(742,926,o),
(742,782,cs),
(742,686,o),
(672,630,o),
(614,630,cs),
(560,630,o),
(500,672,o),
(500,746,cs),
(500,828,o),
(594,828,o),
(594,874,cs),
(594,928,o),
(548,966,o),
(470,966,cs),
(272,966,o),
(254,748,o),
(254,520,cs),
(254,292,o),
(282,78,o),
(440,78,cs),
(549,78,o),
(612,188,o),
(624,327,cs),
(625,341,o),
(633,346,o),
(652,346,cs),
(714,346,ls),
(735,346,o),
(734,344,o),
(733,328,cs),
(719,134,o),
(621,-20,o),
(426,-20,cs),
(114,-20,o),
(52,220,o),
(52,520,cs)
);
}
);
vertWidth = 2310;
width = 787;
},
{
anchors = (
{
name = "Anchor-0";
pos = (566,1040);
},
{
name = "Anchor-1";
pos = (564,0);
},
{
name = "Anchor-2";
pos = (564,0);
}
);
layerId = "E1447247-EC0C-4B84-932A-C76B64125023";
shapes = (
{
closed = 1;
nodes = (
(30,810,o),
(146,1080,o),
(558,1080,cs),
(882,1080,o),
(958,918,o),
(958,744,cs),
(958,588,o),
(830,500,o),
(692,500,cs),
(558,500,o),
(508,552,o),
(508,666,cs),
(508,788,o),
(590,788,o),
(590,852,cs),
(590,878,o),
(574,898,o),
(548,898,cs),
(478,898,o),
(470,788,o),
(470,510,cs),
(470,212,o),
(492,166,o),
(560,166,cs),
(608,166,o),
(625,238,o),
(633,321,cs),
(635.104,342.831,o),
(651,346,o),
(682,346,cs),
(928,346,ls),
(962,346,o),
(959.223,342.892,o),
(959,315,cs),
(957,64,o),
(828,-40,o),
(526,-40,cs),
(114,-40,o),
(30,230,o),
(30,510,cs)
);
}
);
vertWidth = 2310;
width = 988;
}
);
unicode = 99;
},
